%TF.GenerationSoftware,KiCad,Pcbnew,8.0.1-rc1*%
%TF.CreationDate,2025-05-18T23:27:59-05:00*%
%TF.ProjectId,rfReciever,72665265-6369-4657-9665-722e6b696361,rev?*%
%TF.SameCoordinates,Original*%
%TF.FileFunction,Legend,Top*%
%TF.FilePolarity,Positive*%
%FSLAX46Y46*%
G04 Gerber Fmt 4.6, Leading zero omitted, Abs format (unit mm)*
G04 Created by KiCad (PCBNEW 8.0.1-rc1) date 2025-05-18 23:27:59*
%MOMM*%
%LPD*%
G01*
G04 APERTURE LIST*
%ADD10C,0.100000*%
%ADD11C,0.112500*%
%ADD12C,0.125000*%
%ADD13C,0.150000*%
%ADD14C,0.120000*%
G04 APERTURE END LIST*
D10*
X140679360Y-83687419D02*
X140869836Y-83687419D01*
X140869836Y-83687419D02*
X140965074Y-83735038D01*
X140965074Y-83735038D02*
X141060312Y-83830276D01*
X141060312Y-83830276D02*
X141107931Y-84020752D01*
X141107931Y-84020752D02*
X141107931Y-84354085D01*
X141107931Y-84354085D02*
X141060312Y-84544561D01*
X141060312Y-84544561D02*
X140965074Y-84639800D01*
X140965074Y-84639800D02*
X140869836Y-84687419D01*
X140869836Y-84687419D02*
X140679360Y-84687419D01*
X140679360Y-84687419D02*
X140584122Y-84639800D01*
X140584122Y-84639800D02*
X140488884Y-84544561D01*
X140488884Y-84544561D02*
X140441265Y-84354085D01*
X140441265Y-84354085D02*
X140441265Y-84020752D01*
X140441265Y-84020752D02*
X140488884Y-83830276D01*
X140488884Y-83830276D02*
X140584122Y-83735038D01*
X140584122Y-83735038D02*
X140679360Y-83687419D01*
X141536503Y-84687419D02*
X141536503Y-83687419D01*
X141536503Y-83687419D02*
X142107931Y-84687419D01*
X142107931Y-84687419D02*
X142107931Y-83687419D01*
X142094360Y-66972419D02*
X142284836Y-66972419D01*
X142284836Y-66972419D02*
X142380074Y-67020038D01*
X142380074Y-67020038D02*
X142475312Y-67115276D01*
X142475312Y-67115276D02*
X142522931Y-67305752D01*
X142522931Y-67305752D02*
X142522931Y-67639085D01*
X142522931Y-67639085D02*
X142475312Y-67829561D01*
X142475312Y-67829561D02*
X142380074Y-67924800D01*
X142380074Y-67924800D02*
X142284836Y-67972419D01*
X142284836Y-67972419D02*
X142094360Y-67972419D01*
X142094360Y-67972419D02*
X141999122Y-67924800D01*
X141999122Y-67924800D02*
X141903884Y-67829561D01*
X141903884Y-67829561D02*
X141856265Y-67639085D01*
X141856265Y-67639085D02*
X141856265Y-67305752D01*
X141856265Y-67305752D02*
X141903884Y-67115276D01*
X141903884Y-67115276D02*
X141999122Y-67020038D01*
X141999122Y-67020038D02*
X142094360Y-66972419D01*
X142951503Y-67972419D02*
X142951503Y-66972419D01*
X142951503Y-66972419D02*
X143522931Y-67972419D01*
X143522931Y-67972419D02*
X143522931Y-66972419D01*
X149275312Y-69872419D02*
X148941979Y-69396228D01*
X148703884Y-69872419D02*
X148703884Y-68872419D01*
X148703884Y-68872419D02*
X149084836Y-68872419D01*
X149084836Y-68872419D02*
X149180074Y-68920038D01*
X149180074Y-68920038D02*
X149227693Y-68967657D01*
X149227693Y-68967657D02*
X149275312Y-69062895D01*
X149275312Y-69062895D02*
X149275312Y-69205752D01*
X149275312Y-69205752D02*
X149227693Y-69300990D01*
X149227693Y-69300990D02*
X149180074Y-69348609D01*
X149180074Y-69348609D02*
X149084836Y-69396228D01*
X149084836Y-69396228D02*
X148703884Y-69396228D01*
X149608646Y-68872419D02*
X150275312Y-69872419D01*
X150275312Y-68872419D02*
X149608646Y-69872419D01*
G36*
X152673787Y-55819853D02*
G01*
X152801010Y-55859114D01*
X152882779Y-55936935D01*
X152882972Y-55937637D01*
X152926612Y-56018683D01*
X152926805Y-56022641D01*
X152973706Y-56197091D01*
X152972931Y-56200990D01*
X152975927Y-56328536D01*
X152974424Y-56331720D01*
X152933640Y-56508032D01*
X152930590Y-56511963D01*
X152892626Y-56594013D01*
X152892338Y-56594206D01*
X152811408Y-56679242D01*
X152690467Y-56722591D01*
X152689598Y-56722419D01*
X152501326Y-56725204D01*
X152497952Y-55821731D01*
X152672550Y-55819148D01*
X152673787Y-55819853D01*
G37*
G36*
X153184042Y-56933530D02*
G01*
X150195154Y-56933530D01*
X150195154Y-56200990D01*
X150306265Y-56200990D01*
X150309349Y-56332256D01*
X150306810Y-56336488D01*
X150307758Y-56355974D01*
X150355477Y-56533466D01*
X150354010Y-56537868D01*
X150359163Y-56556684D01*
X150405309Y-56642384D01*
X150405309Y-56648695D01*
X150416147Y-56664916D01*
X150509643Y-56753898D01*
X150513981Y-56762573D01*
X150525893Y-56769363D01*
X150527607Y-56770994D01*
X150528755Y-56770994D01*
X150530930Y-56772234D01*
X150665664Y-56813813D01*
X150670464Y-56818613D01*
X150689598Y-56822419D01*
X150775806Y-56819550D01*
X150781292Y-56822293D01*
X150800647Y-56819853D01*
X150936958Y-56770994D01*
X150946828Y-56770994D01*
X150958248Y-56763362D01*
X150960452Y-56762573D01*
X150960964Y-56761547D01*
X150963049Y-56760155D01*
X151021506Y-56696314D01*
X151025312Y-56677180D01*
X151021506Y-56324713D01*
X150994446Y-56297653D01*
X150975312Y-56293847D01*
X150765702Y-56297653D01*
X150738642Y-56324713D01*
X150738642Y-56362981D01*
X150765702Y-56390041D01*
X150784836Y-56393847D01*
X150925824Y-56391287D01*
X150928662Y-56654158D01*
X150905229Y-56679750D01*
X150785705Y-56722591D01*
X150784836Y-56722419D01*
X150705536Y-56725057D01*
X150705409Y-56724985D01*
X150578187Y-56685724D01*
X150496415Y-56607900D01*
X150496224Y-56607200D01*
X150452583Y-56526152D01*
X150452391Y-56522196D01*
X150405489Y-56347745D01*
X150406265Y-56343847D01*
X150403268Y-56216300D01*
X150404772Y-56213117D01*
X150445555Y-56036804D01*
X150448605Y-56032875D01*
X150486569Y-55950823D01*
X150486858Y-55950631D01*
X150567787Y-55865595D01*
X150688727Y-55822245D01*
X150689598Y-55822419D01*
X150815128Y-55819469D01*
X150924148Y-55869912D01*
X150960453Y-55857810D01*
X150977567Y-55823582D01*
X150965465Y-55787278D01*
X150950053Y-55775316D01*
X150943792Y-55772419D01*
X151353884Y-55772419D01*
X151357690Y-56791553D01*
X151384750Y-56818613D01*
X151423018Y-56818613D01*
X151450078Y-56791553D01*
X151453884Y-56772419D01*
X151450828Y-55954163D01*
X151929092Y-56784847D01*
X151929118Y-56791553D01*
X151938159Y-56800594D01*
X151944698Y-56811951D01*
X151951322Y-56813757D01*
X151956178Y-56818613D01*
X151969126Y-56818613D01*
X151981618Y-56822020D01*
X151987580Y-56818613D01*
X151994446Y-56818613D01*
X152003599Y-56809459D01*
X152014844Y-56803034D01*
X152016651Y-56796407D01*
X152021506Y-56791553D01*
X152025312Y-56772419D01*
X152021577Y-55772419D01*
X152401503Y-55772419D01*
X152405309Y-56791553D01*
X152432369Y-56818613D01*
X152451503Y-56822419D01*
X152679557Y-56819044D01*
X152686054Y-56822293D01*
X152705409Y-56819853D01*
X152841720Y-56770994D01*
X152851590Y-56770994D01*
X152863010Y-56763362D01*
X152865214Y-56762573D01*
X152865726Y-56761547D01*
X152867811Y-56760155D01*
X152954148Y-56669435D01*
X152960453Y-56667334D01*
X152972414Y-56651922D01*
X153012118Y-56566109D01*
X153015486Y-56564089D01*
X153023819Y-56546450D01*
X153065395Y-56366710D01*
X153069125Y-56362981D01*
X153072931Y-56343847D01*
X153069846Y-56212580D01*
X153072386Y-56208349D01*
X153071438Y-56188863D01*
X153023718Y-56011370D01*
X153025186Y-56006969D01*
X153020033Y-55988153D01*
X152973887Y-55902452D01*
X152973887Y-55896142D01*
X152963048Y-55879921D01*
X152869550Y-55790938D01*
X152865214Y-55782265D01*
X152853303Y-55775475D01*
X152851589Y-55773844D01*
X152850441Y-55773844D01*
X152848266Y-55772604D01*
X152713531Y-55731024D01*
X152708732Y-55726225D01*
X152689598Y-55722419D01*
X152432369Y-55726225D01*
X152405309Y-55753285D01*
X152401503Y-55772419D01*
X152021577Y-55772419D01*
X152021506Y-55753285D01*
X151994446Y-55726225D01*
X151956178Y-55726225D01*
X151929118Y-55753285D01*
X151925312Y-55772419D01*
X151928367Y-56590674D01*
X151450103Y-55759989D01*
X151450078Y-55753285D01*
X151441038Y-55744245D01*
X151434499Y-55732887D01*
X151427872Y-55731079D01*
X151423018Y-55726225D01*
X151410071Y-55726225D01*
X151397578Y-55722818D01*
X151391616Y-55726225D01*
X151384750Y-55726225D01*
X151375596Y-55735378D01*
X151364352Y-55741804D01*
X151362544Y-55748430D01*
X151357690Y-55753285D01*
X151353884Y-55772419D01*
X150943792Y-55772419D01*
X150858164Y-55732800D01*
X150851589Y-55726225D01*
X150838195Y-55723560D01*
X150836000Y-55722545D01*
X150834911Y-55722907D01*
X150832455Y-55722419D01*
X150699153Y-55725550D01*
X150693142Y-55722545D01*
X150673786Y-55724985D01*
X150537475Y-55773844D01*
X150527607Y-55773844D01*
X150516189Y-55781473D01*
X150513981Y-55782265D01*
X150513467Y-55783292D01*
X150511386Y-55784683D01*
X150425047Y-55875402D01*
X150418743Y-55877504D01*
X150406781Y-55892916D01*
X150367076Y-55978727D01*
X150363710Y-55980748D01*
X150355377Y-55998387D01*
X150313800Y-56178126D01*
X150310071Y-56181856D01*
X150306265Y-56200990D01*
X150195154Y-56200990D01*
X150195154Y-55611308D01*
X153184042Y-55611308D01*
X153184042Y-56933530D01*
G37*
D11*
X134850000Y-53573757D02*
X135064286Y-53573757D01*
X134807143Y-53702328D02*
X134957143Y-53252328D01*
X134957143Y-53252328D02*
X135107143Y-53702328D01*
X135450000Y-53702328D02*
X135450000Y-53466614D01*
X135450000Y-53466614D02*
X135428571Y-53423757D01*
X135428571Y-53423757D02*
X135385714Y-53402328D01*
X135385714Y-53402328D02*
X135300000Y-53402328D01*
X135300000Y-53402328D02*
X135257142Y-53423757D01*
X135450000Y-53680900D02*
X135407142Y-53702328D01*
X135407142Y-53702328D02*
X135300000Y-53702328D01*
X135300000Y-53702328D02*
X135257142Y-53680900D01*
X135257142Y-53680900D02*
X135235714Y-53638042D01*
X135235714Y-53638042D02*
X135235714Y-53595185D01*
X135235714Y-53595185D02*
X135257142Y-53552328D01*
X135257142Y-53552328D02*
X135300000Y-53530900D01*
X135300000Y-53530900D02*
X135407142Y-53530900D01*
X135407142Y-53530900D02*
X135450000Y-53509471D01*
X135621428Y-53402328D02*
X135728571Y-53702328D01*
X135835714Y-53402328D02*
X135728571Y-53702328D01*
X135728571Y-53702328D02*
X135685714Y-53809471D01*
X135685714Y-53809471D02*
X135664285Y-53830900D01*
X135664285Y-53830900D02*
X135621428Y-53852328D01*
X136200000Y-53402328D02*
X136200000Y-53702328D01*
X136007142Y-53402328D02*
X136007142Y-53638042D01*
X136007142Y-53638042D02*
X136028571Y-53680900D01*
X136028571Y-53680900D02*
X136071428Y-53702328D01*
X136071428Y-53702328D02*
X136135714Y-53702328D01*
X136135714Y-53702328D02*
X136178571Y-53680900D01*
X136178571Y-53680900D02*
X136200000Y-53659471D01*
X136392857Y-53680900D02*
X136435714Y-53702328D01*
X136435714Y-53702328D02*
X136521428Y-53702328D01*
X136521428Y-53702328D02*
X136564285Y-53680900D01*
X136564285Y-53680900D02*
X136585714Y-53638042D01*
X136585714Y-53638042D02*
X136585714Y-53616614D01*
X136585714Y-53616614D02*
X136564285Y-53573757D01*
X136564285Y-53573757D02*
X136521428Y-53552328D01*
X136521428Y-53552328D02*
X136457143Y-53552328D01*
X136457143Y-53552328D02*
X136414285Y-53530900D01*
X136414285Y-53530900D02*
X136392857Y-53488042D01*
X136392857Y-53488042D02*
X136392857Y-53466614D01*
X136392857Y-53466614D02*
X136414285Y-53423757D01*
X136414285Y-53423757D02*
X136457143Y-53402328D01*
X136457143Y-53402328D02*
X136521428Y-53402328D01*
X136521428Y-53402328D02*
X136564285Y-53423757D01*
X136778571Y-53702328D02*
X136778571Y-53252328D01*
X136971429Y-53702328D02*
X136971429Y-53466614D01*
X136971429Y-53466614D02*
X136950000Y-53423757D01*
X136950000Y-53423757D02*
X136907143Y-53402328D01*
X136907143Y-53402328D02*
X136842857Y-53402328D01*
X136842857Y-53402328D02*
X136800000Y-53423757D01*
X136800000Y-53423757D02*
X136778571Y-53445185D01*
X137464286Y-53252328D02*
X137614286Y-53702328D01*
X137614286Y-53702328D02*
X137764286Y-53252328D01*
X137914285Y-53702328D02*
X137914285Y-53402328D01*
X137914285Y-53252328D02*
X137892857Y-53273757D01*
X137892857Y-53273757D02*
X137914285Y-53295185D01*
X137914285Y-53295185D02*
X137935714Y-53273757D01*
X137935714Y-53273757D02*
X137914285Y-53252328D01*
X137914285Y-53252328D02*
X137914285Y-53295185D01*
X138128571Y-53402328D02*
X138128571Y-53788042D01*
X138128571Y-53788042D02*
X138107143Y-53830900D01*
X138107143Y-53830900D02*
X138064286Y-53852328D01*
X138064286Y-53852328D02*
X138042857Y-53852328D01*
X138128571Y-53252328D02*
X138107143Y-53273757D01*
X138107143Y-53273757D02*
X138128571Y-53295185D01*
X138128571Y-53295185D02*
X138150000Y-53273757D01*
X138150000Y-53273757D02*
X138128571Y-53252328D01*
X138128571Y-53252328D02*
X138128571Y-53295185D01*
D10*
G36*
X150003090Y-56933530D02*
G01*
X147351341Y-56933530D01*
X147351341Y-56696314D01*
X147462452Y-56696314D01*
X147473290Y-56712535D01*
X147516749Y-56752330D01*
X147518492Y-56757560D01*
X147533904Y-56769521D01*
X147625793Y-56812037D01*
X147632369Y-56818613D01*
X147645762Y-56821277D01*
X147647958Y-56822293D01*
X147649046Y-56821930D01*
X147651503Y-56822419D01*
X147930682Y-56818933D01*
X147940762Y-56822293D01*
X147954096Y-56818641D01*
X147956351Y-56818613D01*
X147957162Y-56817801D01*
X147959578Y-56817140D01*
X148045278Y-56770994D01*
X148051590Y-56770994D01*
X148067811Y-56760155D01*
X148070148Y-56757602D01*
X148070227Y-56757560D01*
X148070249Y-56757491D01*
X148107604Y-56716695D01*
X148112834Y-56714953D01*
X148124795Y-56699541D01*
X148167311Y-56607651D01*
X148173887Y-56601076D01*
X148176551Y-56587682D01*
X148177567Y-56585487D01*
X148177204Y-56584398D01*
X148177693Y-56581942D01*
X148174264Y-56350209D01*
X148177567Y-56340302D01*
X148173920Y-56326987D01*
X148173887Y-56324713D01*
X148173075Y-56323901D01*
X148172414Y-56321486D01*
X148126268Y-56235785D01*
X148126268Y-56229474D01*
X148115429Y-56213253D01*
X148112877Y-56210916D01*
X148112834Y-56210836D01*
X148112763Y-56210812D01*
X148071969Y-56173458D01*
X148070227Y-56168230D01*
X148054815Y-56156268D01*
X147962926Y-56113752D01*
X147956351Y-56107177D01*
X147942957Y-56104512D01*
X147940762Y-56103497D01*
X147939673Y-56103859D01*
X147937217Y-56103371D01*
X147902796Y-56104179D01*
X147903581Y-56103269D01*
X148411089Y-56103269D01*
X148413940Y-56122569D01*
X148649965Y-56772676D01*
X148649184Y-56774902D01*
X148655990Y-56789271D01*
X148662055Y-56805975D01*
X148664437Y-56807103D01*
X148665566Y-56809486D01*
X148681421Y-56815148D01*
X148696639Y-56822357D01*
X148699122Y-56821470D01*
X148701605Y-56822357D01*
X148716822Y-56815148D01*
X148732678Y-56809486D01*
X148733806Y-56807103D01*
X148736189Y-56805975D01*
X148746209Y-56789236D01*
X148778848Y-56696314D01*
X149176738Y-56696314D01*
X149187576Y-56712535D01*
X149231035Y-56752330D01*
X149232778Y-56757560D01*
X149248190Y-56769521D01*
X149340079Y-56812037D01*
X149346655Y-56818613D01*
X149360048Y-56821277D01*
X149362244Y-56822293D01*
X149363332Y-56821930D01*
X149365789Y-56822419D01*
X149644968Y-56818933D01*
X149655048Y-56822293D01*
X149668382Y-56818641D01*
X149670637Y-56818613D01*
X149671448Y-56817801D01*
X149673864Y-56817140D01*
X149759564Y-56770994D01*
X149765876Y-56770994D01*
X149782097Y-56760155D01*
X149784434Y-56757602D01*
X149784513Y-56757560D01*
X149784535Y-56757491D01*
X149821890Y-56716695D01*
X149827120Y-56714953D01*
X149839081Y-56699541D01*
X149881597Y-56607651D01*
X149888173Y-56601076D01*
X149890837Y-56587682D01*
X149891853Y-56585487D01*
X149891490Y-56584398D01*
X149891979Y-56581942D01*
X149888550Y-56350209D01*
X149891853Y-56340302D01*
X149888206Y-56326987D01*
X149888173Y-56324713D01*
X149887361Y-56323901D01*
X149886700Y-56321486D01*
X149840554Y-56235785D01*
X149840554Y-56229474D01*
X149829715Y-56213253D01*
X149827163Y-56210916D01*
X149827120Y-56210836D01*
X149827049Y-56210812D01*
X149786255Y-56173458D01*
X149784513Y-56168230D01*
X149769101Y-56156268D01*
X149677212Y-56113752D01*
X149670637Y-56107177D01*
X149657243Y-56104512D01*
X149655048Y-56103497D01*
X149653959Y-56103859D01*
X149651503Y-56103371D01*
X149617082Y-56104179D01*
X149877164Y-55802561D01*
X149888173Y-55791553D01*
X149888173Y-55789794D01*
X149889343Y-55788438D01*
X149888173Y-55770883D01*
X149888173Y-55753285D01*
X149886916Y-55752028D01*
X149886798Y-55750254D01*
X149873553Y-55738665D01*
X149861113Y-55726225D01*
X149858812Y-55725767D01*
X149857998Y-55725055D01*
X149855925Y-55725193D01*
X149841979Y-55722419D01*
X149203798Y-55726225D01*
X149176738Y-55753285D01*
X149176738Y-55791553D01*
X149203798Y-55818613D01*
X149222932Y-55822419D01*
X149735480Y-55819362D01*
X149473460Y-56123228D01*
X149462452Y-56134237D01*
X149462452Y-56135995D01*
X149461282Y-56137352D01*
X149462452Y-56154906D01*
X149462452Y-56172505D01*
X149463708Y-56173761D01*
X149463827Y-56175536D01*
X149477071Y-56187124D01*
X149489512Y-56199565D01*
X149491812Y-56200022D01*
X149492627Y-56200735D01*
X149494699Y-56200596D01*
X149508646Y-56203371D01*
X149634176Y-56200421D01*
X149711193Y-56236056D01*
X149711386Y-56236345D01*
X149750067Y-56271766D01*
X149792066Y-56349764D01*
X149795235Y-56563950D01*
X149759293Y-56641631D01*
X149759004Y-56641825D01*
X149723583Y-56680507D01*
X149645610Y-56722492D01*
X149383960Y-56725759D01*
X149306100Y-56689733D01*
X149305907Y-56689445D01*
X149242067Y-56630986D01*
X149203798Y-56630986D01*
X149176738Y-56658045D01*
X149176738Y-56696314D01*
X148778848Y-56696314D01*
X148987155Y-56103270D01*
X148970773Y-56068685D01*
X148934734Y-56055814D01*
X148900150Y-56072196D01*
X148890130Y-56088935D01*
X148700340Y-56629261D01*
X148498094Y-56072196D01*
X148463510Y-56055814D01*
X148427471Y-56068685D01*
X148411089Y-56103269D01*
X147903581Y-56103269D01*
X148162878Y-55802561D01*
X148173887Y-55791553D01*
X148173887Y-55789794D01*
X148175057Y-55788438D01*
X148173887Y-55770883D01*
X148173887Y-55753285D01*
X148172630Y-55752028D01*
X148172512Y-55750254D01*
X148159267Y-55738665D01*
X148146827Y-55726225D01*
X148144526Y-55725767D01*
X148143712Y-55725055D01*
X148141639Y-55725193D01*
X148127693Y-55722419D01*
X147489512Y-55726225D01*
X147462452Y-55753285D01*
X147462452Y-55791553D01*
X147489512Y-55818613D01*
X147508646Y-55822419D01*
X148021194Y-55819362D01*
X147759174Y-56123228D01*
X147748166Y-56134237D01*
X147748166Y-56135995D01*
X147746996Y-56137352D01*
X147748166Y-56154906D01*
X147748166Y-56172505D01*
X147749422Y-56173761D01*
X147749541Y-56175536D01*
X147762785Y-56187124D01*
X147775226Y-56199565D01*
X147777526Y-56200022D01*
X147778341Y-56200735D01*
X147780413Y-56200596D01*
X147794360Y-56203371D01*
X147919890Y-56200421D01*
X147996907Y-56236056D01*
X147997100Y-56236345D01*
X148035781Y-56271766D01*
X148077780Y-56349764D01*
X148080949Y-56563950D01*
X148045007Y-56641631D01*
X148044718Y-56641825D01*
X148009297Y-56680507D01*
X147931324Y-56722492D01*
X147669674Y-56725759D01*
X147591814Y-56689733D01*
X147591621Y-56689445D01*
X147527781Y-56630986D01*
X147489512Y-56630986D01*
X147462452Y-56658045D01*
X147462452Y-56696314D01*
X147351341Y-56696314D01*
X147351341Y-55611308D01*
X150003090Y-55611308D01*
X150003090Y-56933530D01*
G37*
X145475312Y-67877180D02*
X145427693Y-67924800D01*
X145427693Y-67924800D02*
X145284836Y-67972419D01*
X145284836Y-67972419D02*
X145189598Y-67972419D01*
X145189598Y-67972419D02*
X145046741Y-67924800D01*
X145046741Y-67924800D02*
X144951503Y-67829561D01*
X144951503Y-67829561D02*
X144903884Y-67734323D01*
X144903884Y-67734323D02*
X144856265Y-67543847D01*
X144856265Y-67543847D02*
X144856265Y-67400990D01*
X144856265Y-67400990D02*
X144903884Y-67210514D01*
X144903884Y-67210514D02*
X144951503Y-67115276D01*
X144951503Y-67115276D02*
X145046741Y-67020038D01*
X145046741Y-67020038D02*
X145189598Y-66972419D01*
X145189598Y-66972419D02*
X145284836Y-66972419D01*
X145284836Y-66972419D02*
X145427693Y-67020038D01*
X145427693Y-67020038D02*
X145475312Y-67067657D01*
X146094360Y-66972419D02*
X146284836Y-66972419D01*
X146284836Y-66972419D02*
X146380074Y-67020038D01*
X146380074Y-67020038D02*
X146475312Y-67115276D01*
X146475312Y-67115276D02*
X146522931Y-67305752D01*
X146522931Y-67305752D02*
X146522931Y-67639085D01*
X146522931Y-67639085D02*
X146475312Y-67829561D01*
X146475312Y-67829561D02*
X146380074Y-67924800D01*
X146380074Y-67924800D02*
X146284836Y-67972419D01*
X146284836Y-67972419D02*
X146094360Y-67972419D01*
X146094360Y-67972419D02*
X145999122Y-67924800D01*
X145999122Y-67924800D02*
X145903884Y-67829561D01*
X145903884Y-67829561D02*
X145856265Y-67639085D01*
X145856265Y-67639085D02*
X145856265Y-67305752D01*
X145856265Y-67305752D02*
X145903884Y-67115276D01*
X145903884Y-67115276D02*
X145999122Y-67020038D01*
X145999122Y-67020038D02*
X146094360Y-66972419D01*
X146951503Y-67972419D02*
X146951503Y-66972419D01*
X146951503Y-66972419D02*
X147284836Y-67686704D01*
X147284836Y-67686704D02*
X147618169Y-66972419D01*
X147618169Y-66972419D02*
X147618169Y-67972419D01*
X133803884Y-83962475D02*
X133803884Y-82962475D01*
X133803884Y-82962475D02*
X134375312Y-83962475D01*
X134375312Y-83962475D02*
X134375312Y-82962475D01*
X135422931Y-83962475D02*
X135089598Y-83486284D01*
X134851503Y-83962475D02*
X134851503Y-82962475D01*
X134851503Y-82962475D02*
X135232455Y-82962475D01*
X135232455Y-82962475D02*
X135327693Y-83010094D01*
X135327693Y-83010094D02*
X135375312Y-83057713D01*
X135375312Y-83057713D02*
X135422931Y-83152951D01*
X135422931Y-83152951D02*
X135422931Y-83295808D01*
X135422931Y-83295808D02*
X135375312Y-83391046D01*
X135375312Y-83391046D02*
X135327693Y-83438665D01*
X135327693Y-83438665D02*
X135232455Y-83486284D01*
X135232455Y-83486284D02*
X134851503Y-83486284D01*
X135851503Y-83438665D02*
X136184836Y-83438665D01*
X136327693Y-83962475D02*
X135851503Y-83962475D01*
X135851503Y-83962475D02*
X135851503Y-82962475D01*
X135851503Y-82962475D02*
X136327693Y-82962475D01*
X133803884Y-85191466D02*
X134565789Y-85191466D01*
X134994360Y-85524800D02*
X135137217Y-85572419D01*
X135137217Y-85572419D02*
X135375312Y-85572419D01*
X135375312Y-85572419D02*
X135470550Y-85524800D01*
X135470550Y-85524800D02*
X135518169Y-85477180D01*
X135518169Y-85477180D02*
X135565788Y-85381942D01*
X135565788Y-85381942D02*
X135565788Y-85286704D01*
X135565788Y-85286704D02*
X135518169Y-85191466D01*
X135518169Y-85191466D02*
X135470550Y-85143847D01*
X135470550Y-85143847D02*
X135375312Y-85096228D01*
X135375312Y-85096228D02*
X135184836Y-85048609D01*
X135184836Y-85048609D02*
X135089598Y-85000990D01*
X135089598Y-85000990D02*
X135041979Y-84953371D01*
X135041979Y-84953371D02*
X134994360Y-84858133D01*
X134994360Y-84858133D02*
X134994360Y-84762895D01*
X134994360Y-84762895D02*
X135041979Y-84667657D01*
X135041979Y-84667657D02*
X135089598Y-84620038D01*
X135089598Y-84620038D02*
X135184836Y-84572419D01*
X135184836Y-84572419D02*
X135422931Y-84572419D01*
X135422931Y-84572419D02*
X135565788Y-84620038D01*
X135994360Y-85048609D02*
X136327693Y-85048609D01*
X136470550Y-85572419D02*
X135994360Y-85572419D01*
X135994360Y-85572419D02*
X135994360Y-84572419D01*
X135994360Y-84572419D02*
X136470550Y-84572419D01*
X136756265Y-84572419D02*
X137327693Y-84572419D01*
X137041979Y-85572419D02*
X137041979Y-84572419D01*
X136675312Y-79172419D02*
X136341979Y-78696228D01*
X136103884Y-79172419D02*
X136103884Y-78172419D01*
X136103884Y-78172419D02*
X136484836Y-78172419D01*
X136484836Y-78172419D02*
X136580074Y-78220038D01*
X136580074Y-78220038D02*
X136627693Y-78267657D01*
X136627693Y-78267657D02*
X136675312Y-78362895D01*
X136675312Y-78362895D02*
X136675312Y-78505752D01*
X136675312Y-78505752D02*
X136627693Y-78600990D01*
X136627693Y-78600990D02*
X136580074Y-78648609D01*
X136580074Y-78648609D02*
X136484836Y-78696228D01*
X136484836Y-78696228D02*
X136103884Y-78696228D01*
X137056265Y-79124800D02*
X137199122Y-79172419D01*
X137199122Y-79172419D02*
X137437217Y-79172419D01*
X137437217Y-79172419D02*
X137532455Y-79124800D01*
X137532455Y-79124800D02*
X137580074Y-79077180D01*
X137580074Y-79077180D02*
X137627693Y-78981942D01*
X137627693Y-78981942D02*
X137627693Y-78886704D01*
X137627693Y-78886704D02*
X137580074Y-78791466D01*
X137580074Y-78791466D02*
X137532455Y-78743847D01*
X137532455Y-78743847D02*
X137437217Y-78696228D01*
X137437217Y-78696228D02*
X137246741Y-78648609D01*
X137246741Y-78648609D02*
X137151503Y-78600990D01*
X137151503Y-78600990D02*
X137103884Y-78553371D01*
X137103884Y-78553371D02*
X137056265Y-78458133D01*
X137056265Y-78458133D02*
X137056265Y-78362895D01*
X137056265Y-78362895D02*
X137103884Y-78267657D01*
X137103884Y-78267657D02*
X137151503Y-78220038D01*
X137151503Y-78220038D02*
X137246741Y-78172419D01*
X137246741Y-78172419D02*
X137484836Y-78172419D01*
X137484836Y-78172419D02*
X137627693Y-78220038D01*
X138008646Y-79124800D02*
X138151503Y-79172419D01*
X138151503Y-79172419D02*
X138389598Y-79172419D01*
X138389598Y-79172419D02*
X138484836Y-79124800D01*
X138484836Y-79124800D02*
X138532455Y-79077180D01*
X138532455Y-79077180D02*
X138580074Y-78981942D01*
X138580074Y-78981942D02*
X138580074Y-78886704D01*
X138580074Y-78886704D02*
X138532455Y-78791466D01*
X138532455Y-78791466D02*
X138484836Y-78743847D01*
X138484836Y-78743847D02*
X138389598Y-78696228D01*
X138389598Y-78696228D02*
X138199122Y-78648609D01*
X138199122Y-78648609D02*
X138103884Y-78600990D01*
X138103884Y-78600990D02*
X138056265Y-78553371D01*
X138056265Y-78553371D02*
X138008646Y-78458133D01*
X138008646Y-78458133D02*
X138008646Y-78362895D01*
X138008646Y-78362895D02*
X138056265Y-78267657D01*
X138056265Y-78267657D02*
X138103884Y-78220038D01*
X138103884Y-78220038D02*
X138199122Y-78172419D01*
X138199122Y-78172419D02*
X138437217Y-78172419D01*
X138437217Y-78172419D02*
X138580074Y-78220038D01*
X139008646Y-79172419D02*
X139008646Y-78172419D01*
G36*
X155098266Y-56933530D02*
G01*
X153397285Y-56933530D01*
X153397285Y-56263052D01*
X153508396Y-56263052D01*
X153510071Y-56265099D01*
X153510071Y-56267743D01*
X153521968Y-56279640D01*
X153532629Y-56292670D01*
X153535261Y-56292933D01*
X153537131Y-56294803D01*
X153553958Y-56294803D01*
X153570708Y-56296478D01*
X153572755Y-56294803D01*
X153575399Y-56294803D01*
X153591620Y-56283964D01*
X153627041Y-56245282D01*
X153705039Y-56203283D01*
X153919226Y-56200114D01*
X153996907Y-56236056D01*
X153997100Y-56236345D01*
X154035781Y-56271766D01*
X154077780Y-56349764D01*
X154080949Y-56563950D01*
X154045007Y-56641631D01*
X154044718Y-56641825D01*
X154009297Y-56680507D01*
X153931298Y-56722506D01*
X153717113Y-56725675D01*
X153639433Y-56689733D01*
X153639240Y-56689445D01*
X153575400Y-56630986D01*
X153537131Y-56630986D01*
X153510071Y-56658045D01*
X153510071Y-56696314D01*
X153520909Y-56712535D01*
X153564368Y-56752330D01*
X153566111Y-56757560D01*
X153581523Y-56769521D01*
X153673412Y-56812037D01*
X153679988Y-56818613D01*
X153693381Y-56821277D01*
X153695577Y-56822293D01*
X153696665Y-56821930D01*
X153699122Y-56822419D01*
X153930853Y-56818990D01*
X153940762Y-56822293D01*
X153954076Y-56818646D01*
X153956351Y-56818613D01*
X153957162Y-56817801D01*
X153959578Y-56817140D01*
X154045278Y-56770994D01*
X154051590Y-56770994D01*
X154067811Y-56760155D01*
X154070148Y-56757602D01*
X154070227Y-56757560D01*
X154070249Y-56757491D01*
X154107604Y-56716695D01*
X154112834Y-56714953D01*
X154124795Y-56699541D01*
X154167311Y-56607651D01*
X154173887Y-56601076D01*
X154176551Y-56587682D01*
X154177567Y-56585487D01*
X154177204Y-56584398D01*
X154177693Y-56581942D01*
X154174264Y-56350209D01*
X154177567Y-56340302D01*
X154173920Y-56326987D01*
X154173887Y-56324713D01*
X154173075Y-56323901D01*
X154172414Y-56321486D01*
X154126268Y-56235785D01*
X154126268Y-56229474D01*
X154115429Y-56213253D01*
X154112877Y-56210916D01*
X154112834Y-56210836D01*
X154112763Y-56210812D01*
X154071969Y-56173458D01*
X154070227Y-56168230D01*
X154054815Y-56156268D01*
X153962926Y-56113752D01*
X153956351Y-56107177D01*
X153942957Y-56104512D01*
X153940762Y-56103497D01*
X153939673Y-56103859D01*
X153937217Y-56103371D01*
X153705484Y-56106799D01*
X153695577Y-56103497D01*
X153682262Y-56107143D01*
X153679988Y-56107177D01*
X153679176Y-56107988D01*
X153676761Y-56108650D01*
X153616392Y-56141155D01*
X153619888Y-56103269D01*
X154411089Y-56103269D01*
X154413940Y-56122569D01*
X154649965Y-56772676D01*
X154649184Y-56774902D01*
X154655990Y-56789271D01*
X154662055Y-56805975D01*
X154664437Y-56807103D01*
X154665566Y-56809486D01*
X154681421Y-56815148D01*
X154696639Y-56822357D01*
X154699122Y-56821470D01*
X154701605Y-56822357D01*
X154716822Y-56815148D01*
X154732678Y-56809486D01*
X154733806Y-56807103D01*
X154736189Y-56805975D01*
X154746209Y-56789236D01*
X154987155Y-56103270D01*
X154970773Y-56068685D01*
X154934734Y-56055814D01*
X154900150Y-56072196D01*
X154890130Y-56088935D01*
X154700340Y-56629261D01*
X154498094Y-56072196D01*
X154463510Y-56055814D01*
X154427471Y-56068685D01*
X154411089Y-56103269D01*
X153619888Y-56103269D01*
X153645835Y-55822096D01*
X154099208Y-55818613D01*
X154126268Y-55791553D01*
X154126268Y-55753285D01*
X154099208Y-55726225D01*
X154080074Y-55722419D01*
X153604660Y-55726072D01*
X153589441Y-55724550D01*
X153587418Y-55726204D01*
X153584750Y-55726225D01*
X153572849Y-55738125D01*
X153559823Y-55748784D01*
X153558783Y-55752191D01*
X153557690Y-55753285D01*
X153557690Y-55755777D01*
X153554132Y-55767444D01*
X153511654Y-56227746D01*
X153510071Y-56229475D01*
X153510071Y-56244901D01*
X153508396Y-56263052D01*
X153397285Y-56263052D01*
X153397285Y-55611308D01*
X155098266Y-55611308D01*
X155098266Y-56933530D01*
G37*
X153061027Y-68472419D02*
X153632455Y-68472419D01*
X153346741Y-69472419D02*
X153346741Y-68472419D01*
X153870551Y-68472419D02*
X154537217Y-69472419D01*
X154537217Y-68472419D02*
X153870551Y-69472419D01*
D12*
X133571429Y-52840464D02*
X133571429Y-52090464D01*
X133571429Y-52090464D02*
X133750000Y-52090464D01*
X133750000Y-52090464D02*
X133857143Y-52126178D01*
X133857143Y-52126178D02*
X133928572Y-52197607D01*
X133928572Y-52197607D02*
X133964286Y-52269035D01*
X133964286Y-52269035D02*
X134000000Y-52411892D01*
X134000000Y-52411892D02*
X134000000Y-52519035D01*
X134000000Y-52519035D02*
X133964286Y-52661892D01*
X133964286Y-52661892D02*
X133928572Y-52733321D01*
X133928572Y-52733321D02*
X133857143Y-52804750D01*
X133857143Y-52804750D02*
X133750000Y-52840464D01*
X133750000Y-52840464D02*
X133571429Y-52840464D01*
X134642858Y-52840464D02*
X134642858Y-52447607D01*
X134642858Y-52447607D02*
X134607143Y-52376178D01*
X134607143Y-52376178D02*
X134535715Y-52340464D01*
X134535715Y-52340464D02*
X134392858Y-52340464D01*
X134392858Y-52340464D02*
X134321429Y-52376178D01*
X134642858Y-52804750D02*
X134571429Y-52840464D01*
X134571429Y-52840464D02*
X134392858Y-52840464D01*
X134392858Y-52840464D02*
X134321429Y-52804750D01*
X134321429Y-52804750D02*
X134285715Y-52733321D01*
X134285715Y-52733321D02*
X134285715Y-52661892D01*
X134285715Y-52661892D02*
X134321429Y-52590464D01*
X134321429Y-52590464D02*
X134392858Y-52554750D01*
X134392858Y-52554750D02*
X134571429Y-52554750D01*
X134571429Y-52554750D02*
X134642858Y-52519035D01*
X134892857Y-52340464D02*
X135178571Y-52340464D01*
X135000000Y-52090464D02*
X135000000Y-52733321D01*
X135000000Y-52733321D02*
X135035714Y-52804750D01*
X135035714Y-52804750D02*
X135107143Y-52840464D01*
X135107143Y-52840464D02*
X135178571Y-52840464D01*
X135750000Y-52840464D02*
X135750000Y-52447607D01*
X135750000Y-52447607D02*
X135714285Y-52376178D01*
X135714285Y-52376178D02*
X135642857Y-52340464D01*
X135642857Y-52340464D02*
X135500000Y-52340464D01*
X135500000Y-52340464D02*
X135428571Y-52376178D01*
X135750000Y-52804750D02*
X135678571Y-52840464D01*
X135678571Y-52840464D02*
X135500000Y-52840464D01*
X135500000Y-52840464D02*
X135428571Y-52804750D01*
X135428571Y-52804750D02*
X135392857Y-52733321D01*
X135392857Y-52733321D02*
X135392857Y-52661892D01*
X135392857Y-52661892D02*
X135428571Y-52590464D01*
X135428571Y-52590464D02*
X135500000Y-52554750D01*
X135500000Y-52554750D02*
X135678571Y-52554750D01*
X135678571Y-52554750D02*
X135750000Y-52519035D01*
X136928571Y-52447607D02*
X137035714Y-52483321D01*
X137035714Y-52483321D02*
X137071428Y-52519035D01*
X137071428Y-52519035D02*
X137107142Y-52590464D01*
X137107142Y-52590464D02*
X137107142Y-52697607D01*
X137107142Y-52697607D02*
X137071428Y-52769035D01*
X137071428Y-52769035D02*
X137035714Y-52804750D01*
X137035714Y-52804750D02*
X136964285Y-52840464D01*
X136964285Y-52840464D02*
X136678571Y-52840464D01*
X136678571Y-52840464D02*
X136678571Y-52090464D01*
X136678571Y-52090464D02*
X136928571Y-52090464D01*
X136928571Y-52090464D02*
X137000000Y-52126178D01*
X137000000Y-52126178D02*
X137035714Y-52161892D01*
X137035714Y-52161892D02*
X137071428Y-52233321D01*
X137071428Y-52233321D02*
X137071428Y-52304750D01*
X137071428Y-52304750D02*
X137035714Y-52376178D01*
X137035714Y-52376178D02*
X137000000Y-52411892D01*
X137000000Y-52411892D02*
X136928571Y-52447607D01*
X136928571Y-52447607D02*
X136678571Y-52447607D01*
X137428571Y-52840464D02*
X137428571Y-52340464D01*
X137428571Y-52483321D02*
X137464285Y-52411892D01*
X137464285Y-52411892D02*
X137500000Y-52376178D01*
X137500000Y-52376178D02*
X137571428Y-52340464D01*
X137571428Y-52340464D02*
X137642857Y-52340464D01*
X138000000Y-52840464D02*
X137928571Y-52804750D01*
X137928571Y-52804750D02*
X137892857Y-52769035D01*
X137892857Y-52769035D02*
X137857143Y-52697607D01*
X137857143Y-52697607D02*
X137857143Y-52483321D01*
X137857143Y-52483321D02*
X137892857Y-52411892D01*
X137892857Y-52411892D02*
X137928571Y-52376178D01*
X137928571Y-52376178D02*
X138000000Y-52340464D01*
X138000000Y-52340464D02*
X138107143Y-52340464D01*
X138107143Y-52340464D02*
X138178571Y-52376178D01*
X138178571Y-52376178D02*
X138214286Y-52411892D01*
X138214286Y-52411892D02*
X138250000Y-52483321D01*
X138250000Y-52483321D02*
X138250000Y-52697607D01*
X138250000Y-52697607D02*
X138214286Y-52769035D01*
X138214286Y-52769035D02*
X138178571Y-52804750D01*
X138178571Y-52804750D02*
X138107143Y-52840464D01*
X138107143Y-52840464D02*
X138000000Y-52840464D01*
X138571428Y-52840464D02*
X138571428Y-52090464D01*
X138642857Y-52554750D02*
X138857142Y-52840464D01*
X138857142Y-52340464D02*
X138571428Y-52626178D01*
X139464285Y-52804750D02*
X139392857Y-52840464D01*
X139392857Y-52840464D02*
X139250000Y-52840464D01*
X139250000Y-52840464D02*
X139178571Y-52804750D01*
X139178571Y-52804750D02*
X139142857Y-52733321D01*
X139142857Y-52733321D02*
X139142857Y-52447607D01*
X139142857Y-52447607D02*
X139178571Y-52376178D01*
X139178571Y-52376178D02*
X139250000Y-52340464D01*
X139250000Y-52340464D02*
X139392857Y-52340464D01*
X139392857Y-52340464D02*
X139464285Y-52376178D01*
X139464285Y-52376178D02*
X139500000Y-52447607D01*
X139500000Y-52447607D02*
X139500000Y-52519035D01*
X139500000Y-52519035D02*
X139142857Y-52590464D01*
X139821428Y-52840464D02*
X139821428Y-52340464D01*
X139821428Y-52483321D02*
X139857142Y-52411892D01*
X139857142Y-52411892D02*
X139892857Y-52376178D01*
X139892857Y-52376178D02*
X139964285Y-52340464D01*
X139964285Y-52340464D02*
X140035714Y-52340464D01*
D13*
X134261905Y-80954819D02*
X134261905Y-79954819D01*
X134261905Y-79954819D02*
X134500000Y-79954819D01*
X134500000Y-79954819D02*
X134642857Y-80002438D01*
X134642857Y-80002438D02*
X134738095Y-80097676D01*
X134738095Y-80097676D02*
X134785714Y-80192914D01*
X134785714Y-80192914D02*
X134833333Y-80383390D01*
X134833333Y-80383390D02*
X134833333Y-80526247D01*
X134833333Y-80526247D02*
X134785714Y-80716723D01*
X134785714Y-80716723D02*
X134738095Y-80811961D01*
X134738095Y-80811961D02*
X134642857Y-80907200D01*
X134642857Y-80907200D02*
X134500000Y-80954819D01*
X134500000Y-80954819D02*
X134261905Y-80954819D01*
X135166667Y-79954819D02*
X135833333Y-79954819D01*
X135833333Y-79954819D02*
X135404762Y-80954819D01*
X141233333Y-77254819D02*
X140900000Y-76778628D01*
X140661905Y-77254819D02*
X140661905Y-76254819D01*
X140661905Y-76254819D02*
X141042857Y-76254819D01*
X141042857Y-76254819D02*
X141138095Y-76302438D01*
X141138095Y-76302438D02*
X141185714Y-76350057D01*
X141185714Y-76350057D02*
X141233333Y-76445295D01*
X141233333Y-76445295D02*
X141233333Y-76588152D01*
X141233333Y-76588152D02*
X141185714Y-76683390D01*
X141185714Y-76683390D02*
X141138095Y-76731009D01*
X141138095Y-76731009D02*
X141042857Y-76778628D01*
X141042857Y-76778628D02*
X140661905Y-76778628D01*
X141566667Y-76254819D02*
X142233333Y-76254819D01*
X142233333Y-76254819D02*
X141804762Y-77254819D01*
X150466667Y-85607200D02*
X150609524Y-85654819D01*
X150609524Y-85654819D02*
X150847619Y-85654819D01*
X150847619Y-85654819D02*
X150942857Y-85607200D01*
X150942857Y-85607200D02*
X150990476Y-85559580D01*
X150990476Y-85559580D02*
X151038095Y-85464342D01*
X151038095Y-85464342D02*
X151038095Y-85369104D01*
X151038095Y-85369104D02*
X150990476Y-85273866D01*
X150990476Y-85273866D02*
X150942857Y-85226247D01*
X150942857Y-85226247D02*
X150847619Y-85178628D01*
X150847619Y-85178628D02*
X150657143Y-85131009D01*
X150657143Y-85131009D02*
X150561905Y-85083390D01*
X150561905Y-85083390D02*
X150514286Y-85035771D01*
X150514286Y-85035771D02*
X150466667Y-84940533D01*
X150466667Y-84940533D02*
X150466667Y-84845295D01*
X150466667Y-84845295D02*
X150514286Y-84750057D01*
X150514286Y-84750057D02*
X150561905Y-84702438D01*
X150561905Y-84702438D02*
X150657143Y-84654819D01*
X150657143Y-84654819D02*
X150895238Y-84654819D01*
X150895238Y-84654819D02*
X151038095Y-84702438D01*
X151371429Y-84654819D02*
X151609524Y-85654819D01*
X151609524Y-85654819D02*
X151800000Y-84940533D01*
X151800000Y-84940533D02*
X151990476Y-85654819D01*
X151990476Y-85654819D02*
X152228572Y-84654819D01*
X152561905Y-84750057D02*
X152609524Y-84702438D01*
X152609524Y-84702438D02*
X152704762Y-84654819D01*
X152704762Y-84654819D02*
X152942857Y-84654819D01*
X152942857Y-84654819D02*
X153038095Y-84702438D01*
X153038095Y-84702438D02*
X153085714Y-84750057D01*
X153085714Y-84750057D02*
X153133333Y-84845295D01*
X153133333Y-84845295D02*
X153133333Y-84940533D01*
X153133333Y-84940533D02*
X153085714Y-85083390D01*
X153085714Y-85083390D02*
X152514286Y-85654819D01*
X152514286Y-85654819D02*
X153133333Y-85654819D01*
X145866666Y-52354819D02*
X145866666Y-53069104D01*
X145866666Y-53069104D02*
X145819047Y-53211961D01*
X145819047Y-53211961D02*
X145723809Y-53307200D01*
X145723809Y-53307200D02*
X145580952Y-53354819D01*
X145580952Y-53354819D02*
X145485714Y-53354819D01*
X146771428Y-52688152D02*
X146771428Y-53354819D01*
X146533333Y-52307200D02*
X146295238Y-53021485D01*
X146295238Y-53021485D02*
X146914285Y-53021485D01*
X141157142Y-82654819D02*
X140823809Y-82178628D01*
X140585714Y-82654819D02*
X140585714Y-81654819D01*
X140585714Y-81654819D02*
X140966666Y-81654819D01*
X140966666Y-81654819D02*
X141061904Y-81702438D01*
X141061904Y-81702438D02*
X141109523Y-81750057D01*
X141109523Y-81750057D02*
X141157142Y-81845295D01*
X141157142Y-81845295D02*
X141157142Y-81988152D01*
X141157142Y-81988152D02*
X141109523Y-82083390D01*
X141109523Y-82083390D02*
X141061904Y-82131009D01*
X141061904Y-82131009D02*
X140966666Y-82178628D01*
X140966666Y-82178628D02*
X140585714Y-82178628D01*
X142109523Y-82654819D02*
X141538095Y-82654819D01*
X141823809Y-82654819D02*
X141823809Y-81654819D01*
X141823809Y-81654819D02*
X141728571Y-81797676D01*
X141728571Y-81797676D02*
X141633333Y-81892914D01*
X141633333Y-81892914D02*
X141538095Y-81940533D01*
X143014285Y-81654819D02*
X142538095Y-81654819D01*
X142538095Y-81654819D02*
X142490476Y-82131009D01*
X142490476Y-82131009D02*
X142538095Y-82083390D01*
X142538095Y-82083390D02*
X142633333Y-82035771D01*
X142633333Y-82035771D02*
X142871428Y-82035771D01*
X142871428Y-82035771D02*
X142966666Y-82083390D01*
X142966666Y-82083390D02*
X143014285Y-82131009D01*
X143014285Y-82131009D02*
X143061904Y-82226247D01*
X143061904Y-82226247D02*
X143061904Y-82464342D01*
X143061904Y-82464342D02*
X143014285Y-82559580D01*
X143014285Y-82559580D02*
X142966666Y-82607200D01*
X142966666Y-82607200D02*
X142871428Y-82654819D01*
X142871428Y-82654819D02*
X142633333Y-82654819D01*
X142633333Y-82654819D02*
X142538095Y-82607200D01*
X142538095Y-82607200D02*
X142490476Y-82559580D01*
X144257142Y-82654819D02*
X143923809Y-82178628D01*
X143685714Y-82654819D02*
X143685714Y-81654819D01*
X143685714Y-81654819D02*
X144066666Y-81654819D01*
X144066666Y-81654819D02*
X144161904Y-81702438D01*
X144161904Y-81702438D02*
X144209523Y-81750057D01*
X144209523Y-81750057D02*
X144257142Y-81845295D01*
X144257142Y-81845295D02*
X144257142Y-81988152D01*
X144257142Y-81988152D02*
X144209523Y-82083390D01*
X144209523Y-82083390D02*
X144161904Y-82131009D01*
X144161904Y-82131009D02*
X144066666Y-82178628D01*
X144066666Y-82178628D02*
X143685714Y-82178628D01*
X145209523Y-82654819D02*
X144638095Y-82654819D01*
X144923809Y-82654819D02*
X144923809Y-81654819D01*
X144923809Y-81654819D02*
X144828571Y-81797676D01*
X144828571Y-81797676D02*
X144733333Y-81892914D01*
X144733333Y-81892914D02*
X144638095Y-81940533D01*
X145590476Y-81750057D02*
X145638095Y-81702438D01*
X145638095Y-81702438D02*
X145733333Y-81654819D01*
X145733333Y-81654819D02*
X145971428Y-81654819D01*
X145971428Y-81654819D02*
X146066666Y-81702438D01*
X146066666Y-81702438D02*
X146114285Y-81750057D01*
X146114285Y-81750057D02*
X146161904Y-81845295D01*
X146161904Y-81845295D02*
X146161904Y-81940533D01*
X146161904Y-81940533D02*
X146114285Y-82083390D01*
X146114285Y-82083390D02*
X145542857Y-82654819D01*
X145542857Y-82654819D02*
X146161904Y-82654819D01*
X149157142Y-58959580D02*
X149109523Y-59007200D01*
X149109523Y-59007200D02*
X148966666Y-59054819D01*
X148966666Y-59054819D02*
X148871428Y-59054819D01*
X148871428Y-59054819D02*
X148728571Y-59007200D01*
X148728571Y-59007200D02*
X148633333Y-58911961D01*
X148633333Y-58911961D02*
X148585714Y-58816723D01*
X148585714Y-58816723D02*
X148538095Y-58626247D01*
X148538095Y-58626247D02*
X148538095Y-58483390D01*
X148538095Y-58483390D02*
X148585714Y-58292914D01*
X148585714Y-58292914D02*
X148633333Y-58197676D01*
X148633333Y-58197676D02*
X148728571Y-58102438D01*
X148728571Y-58102438D02*
X148871428Y-58054819D01*
X148871428Y-58054819D02*
X148966666Y-58054819D01*
X148966666Y-58054819D02*
X149109523Y-58102438D01*
X149109523Y-58102438D02*
X149157142Y-58150057D01*
X150109523Y-59054819D02*
X149538095Y-59054819D01*
X149823809Y-59054819D02*
X149823809Y-58054819D01*
X149823809Y-58054819D02*
X149728571Y-58197676D01*
X149728571Y-58197676D02*
X149633333Y-58292914D01*
X149633333Y-58292914D02*
X149538095Y-58340533D01*
X150728571Y-58054819D02*
X150823809Y-58054819D01*
X150823809Y-58054819D02*
X150919047Y-58102438D01*
X150919047Y-58102438D02*
X150966666Y-58150057D01*
X150966666Y-58150057D02*
X151014285Y-58245295D01*
X151014285Y-58245295D02*
X151061904Y-58435771D01*
X151061904Y-58435771D02*
X151061904Y-58673866D01*
X151061904Y-58673866D02*
X151014285Y-58864342D01*
X151014285Y-58864342D02*
X150966666Y-58959580D01*
X150966666Y-58959580D02*
X150919047Y-59007200D01*
X150919047Y-59007200D02*
X150823809Y-59054819D01*
X150823809Y-59054819D02*
X150728571Y-59054819D01*
X150728571Y-59054819D02*
X150633333Y-59007200D01*
X150633333Y-59007200D02*
X150585714Y-58959580D01*
X150585714Y-58959580D02*
X150538095Y-58864342D01*
X150538095Y-58864342D02*
X150490476Y-58673866D01*
X150490476Y-58673866D02*
X150490476Y-58435771D01*
X150490476Y-58435771D02*
X150538095Y-58245295D01*
X150538095Y-58245295D02*
X150585714Y-58150057D01*
X150585714Y-58150057D02*
X150633333Y-58102438D01*
X150633333Y-58102438D02*
X150728571Y-58054819D01*
X144188392Y-75292319D02*
X143855059Y-74816128D01*
X143616964Y-75292319D02*
X143616964Y-74292319D01*
X143616964Y-74292319D02*
X143997916Y-74292319D01*
X143997916Y-74292319D02*
X144093154Y-74339938D01*
X144093154Y-74339938D02*
X144140773Y-74387557D01*
X144140773Y-74387557D02*
X144188392Y-74482795D01*
X144188392Y-74482795D02*
X144188392Y-74625652D01*
X144188392Y-74625652D02*
X144140773Y-74720890D01*
X144140773Y-74720890D02*
X144093154Y-74768509D01*
X144093154Y-74768509D02*
X143997916Y-74816128D01*
X143997916Y-74816128D02*
X143616964Y-74816128D01*
X145140773Y-75292319D02*
X144569345Y-75292319D01*
X144855059Y-75292319D02*
X144855059Y-74292319D01*
X144855059Y-74292319D02*
X144759821Y-74435176D01*
X144759821Y-74435176D02*
X144664583Y-74530414D01*
X144664583Y-74530414D02*
X144569345Y-74578033D01*
X145712202Y-74720890D02*
X145616964Y-74673271D01*
X145616964Y-74673271D02*
X145569345Y-74625652D01*
X145569345Y-74625652D02*
X145521726Y-74530414D01*
X145521726Y-74530414D02*
X145521726Y-74482795D01*
X145521726Y-74482795D02*
X145569345Y-74387557D01*
X145569345Y-74387557D02*
X145616964Y-74339938D01*
X145616964Y-74339938D02*
X145712202Y-74292319D01*
X145712202Y-74292319D02*
X145902678Y-74292319D01*
X145902678Y-74292319D02*
X145997916Y-74339938D01*
X145997916Y-74339938D02*
X146045535Y-74387557D01*
X146045535Y-74387557D02*
X146093154Y-74482795D01*
X146093154Y-74482795D02*
X146093154Y-74530414D01*
X146093154Y-74530414D02*
X146045535Y-74625652D01*
X146045535Y-74625652D02*
X145997916Y-74673271D01*
X145997916Y-74673271D02*
X145902678Y-74720890D01*
X145902678Y-74720890D02*
X145712202Y-74720890D01*
X145712202Y-74720890D02*
X145616964Y-74768509D01*
X145616964Y-74768509D02*
X145569345Y-74816128D01*
X145569345Y-74816128D02*
X145521726Y-74911366D01*
X145521726Y-74911366D02*
X145521726Y-75101842D01*
X145521726Y-75101842D02*
X145569345Y-75197080D01*
X145569345Y-75197080D02*
X145616964Y-75244700D01*
X145616964Y-75244700D02*
X145712202Y-75292319D01*
X145712202Y-75292319D02*
X145902678Y-75292319D01*
X145902678Y-75292319D02*
X145997916Y-75244700D01*
X145997916Y-75244700D02*
X146045535Y-75197080D01*
X146045535Y-75197080D02*
X146093154Y-75101842D01*
X146093154Y-75101842D02*
X146093154Y-74911366D01*
X146093154Y-74911366D02*
X146045535Y-74816128D01*
X146045535Y-74816128D02*
X145997916Y-74768509D01*
X145997916Y-74768509D02*
X145902678Y-74720890D01*
X137457142Y-58759580D02*
X137409523Y-58807200D01*
X137409523Y-58807200D02*
X137266666Y-58854819D01*
X137266666Y-58854819D02*
X137171428Y-58854819D01*
X137171428Y-58854819D02*
X137028571Y-58807200D01*
X137028571Y-58807200D02*
X136933333Y-58711961D01*
X136933333Y-58711961D02*
X136885714Y-58616723D01*
X136885714Y-58616723D02*
X136838095Y-58426247D01*
X136838095Y-58426247D02*
X136838095Y-58283390D01*
X136838095Y-58283390D02*
X136885714Y-58092914D01*
X136885714Y-58092914D02*
X136933333Y-57997676D01*
X136933333Y-57997676D02*
X137028571Y-57902438D01*
X137028571Y-57902438D02*
X137171428Y-57854819D01*
X137171428Y-57854819D02*
X137266666Y-57854819D01*
X137266666Y-57854819D02*
X137409523Y-57902438D01*
X137409523Y-57902438D02*
X137457142Y-57950057D01*
X138409523Y-58854819D02*
X137838095Y-58854819D01*
X138123809Y-58854819D02*
X138123809Y-57854819D01*
X138123809Y-57854819D02*
X138028571Y-57997676D01*
X138028571Y-57997676D02*
X137933333Y-58092914D01*
X137933333Y-58092914D02*
X137838095Y-58140533D01*
X138742857Y-57854819D02*
X139361904Y-57854819D01*
X139361904Y-57854819D02*
X139028571Y-58235771D01*
X139028571Y-58235771D02*
X139171428Y-58235771D01*
X139171428Y-58235771D02*
X139266666Y-58283390D01*
X139266666Y-58283390D02*
X139314285Y-58331009D01*
X139314285Y-58331009D02*
X139361904Y-58426247D01*
X139361904Y-58426247D02*
X139361904Y-58664342D01*
X139361904Y-58664342D02*
X139314285Y-58759580D01*
X139314285Y-58759580D02*
X139266666Y-58807200D01*
X139266666Y-58807200D02*
X139171428Y-58854819D01*
X139171428Y-58854819D02*
X138885714Y-58854819D01*
X138885714Y-58854819D02*
X138790476Y-58807200D01*
X138790476Y-58807200D02*
X138742857Y-58759580D01*
X138857142Y-56459580D02*
X138809523Y-56507200D01*
X138809523Y-56507200D02*
X138666666Y-56554819D01*
X138666666Y-56554819D02*
X138571428Y-56554819D01*
X138571428Y-56554819D02*
X138428571Y-56507200D01*
X138428571Y-56507200D02*
X138333333Y-56411961D01*
X138333333Y-56411961D02*
X138285714Y-56316723D01*
X138285714Y-56316723D02*
X138238095Y-56126247D01*
X138238095Y-56126247D02*
X138238095Y-55983390D01*
X138238095Y-55983390D02*
X138285714Y-55792914D01*
X138285714Y-55792914D02*
X138333333Y-55697676D01*
X138333333Y-55697676D02*
X138428571Y-55602438D01*
X138428571Y-55602438D02*
X138571428Y-55554819D01*
X138571428Y-55554819D02*
X138666666Y-55554819D01*
X138666666Y-55554819D02*
X138809523Y-55602438D01*
X138809523Y-55602438D02*
X138857142Y-55650057D01*
X139809523Y-56554819D02*
X139238095Y-56554819D01*
X139523809Y-56554819D02*
X139523809Y-55554819D01*
X139523809Y-55554819D02*
X139428571Y-55697676D01*
X139428571Y-55697676D02*
X139333333Y-55792914D01*
X139333333Y-55792914D02*
X139238095Y-55840533D01*
X140761904Y-56554819D02*
X140190476Y-56554819D01*
X140476190Y-56554819D02*
X140476190Y-55554819D01*
X140476190Y-55554819D02*
X140380952Y-55697676D01*
X140380952Y-55697676D02*
X140285714Y-55792914D01*
X140285714Y-55792914D02*
X140190476Y-55840533D01*
X138961905Y-69754819D02*
X138961905Y-68754819D01*
X138961905Y-68754819D02*
X139200000Y-68754819D01*
X139200000Y-68754819D02*
X139342857Y-68802438D01*
X139342857Y-68802438D02*
X139438095Y-68897676D01*
X139438095Y-68897676D02*
X139485714Y-68992914D01*
X139485714Y-68992914D02*
X139533333Y-69183390D01*
X139533333Y-69183390D02*
X139533333Y-69326247D01*
X139533333Y-69326247D02*
X139485714Y-69516723D01*
X139485714Y-69516723D02*
X139438095Y-69611961D01*
X139438095Y-69611961D02*
X139342857Y-69707200D01*
X139342857Y-69707200D02*
X139200000Y-69754819D01*
X139200000Y-69754819D02*
X138961905Y-69754819D01*
X140104762Y-69183390D02*
X140009524Y-69135771D01*
X140009524Y-69135771D02*
X139961905Y-69088152D01*
X139961905Y-69088152D02*
X139914286Y-68992914D01*
X139914286Y-68992914D02*
X139914286Y-68945295D01*
X139914286Y-68945295D02*
X139961905Y-68850057D01*
X139961905Y-68850057D02*
X140009524Y-68802438D01*
X140009524Y-68802438D02*
X140104762Y-68754819D01*
X140104762Y-68754819D02*
X140295238Y-68754819D01*
X140295238Y-68754819D02*
X140390476Y-68802438D01*
X140390476Y-68802438D02*
X140438095Y-68850057D01*
X140438095Y-68850057D02*
X140485714Y-68945295D01*
X140485714Y-68945295D02*
X140485714Y-68992914D01*
X140485714Y-68992914D02*
X140438095Y-69088152D01*
X140438095Y-69088152D02*
X140390476Y-69135771D01*
X140390476Y-69135771D02*
X140295238Y-69183390D01*
X140295238Y-69183390D02*
X140104762Y-69183390D01*
X140104762Y-69183390D02*
X140009524Y-69231009D01*
X140009524Y-69231009D02*
X139961905Y-69278628D01*
X139961905Y-69278628D02*
X139914286Y-69373866D01*
X139914286Y-69373866D02*
X139914286Y-69564342D01*
X139914286Y-69564342D02*
X139961905Y-69659580D01*
X139961905Y-69659580D02*
X140009524Y-69707200D01*
X140009524Y-69707200D02*
X140104762Y-69754819D01*
X140104762Y-69754819D02*
X140295238Y-69754819D01*
X140295238Y-69754819D02*
X140390476Y-69707200D01*
X140390476Y-69707200D02*
X140438095Y-69659580D01*
X140438095Y-69659580D02*
X140485714Y-69564342D01*
X140485714Y-69564342D02*
X140485714Y-69373866D01*
X140485714Y-69373866D02*
X140438095Y-69278628D01*
X140438095Y-69278628D02*
X140390476Y-69231009D01*
X140390476Y-69231009D02*
X140295238Y-69183390D01*
X150233333Y-76759580D02*
X150185714Y-76807200D01*
X150185714Y-76807200D02*
X150042857Y-76854819D01*
X150042857Y-76854819D02*
X149947619Y-76854819D01*
X149947619Y-76854819D02*
X149804762Y-76807200D01*
X149804762Y-76807200D02*
X149709524Y-76711961D01*
X149709524Y-76711961D02*
X149661905Y-76616723D01*
X149661905Y-76616723D02*
X149614286Y-76426247D01*
X149614286Y-76426247D02*
X149614286Y-76283390D01*
X149614286Y-76283390D02*
X149661905Y-76092914D01*
X149661905Y-76092914D02*
X149709524Y-75997676D01*
X149709524Y-75997676D02*
X149804762Y-75902438D01*
X149804762Y-75902438D02*
X149947619Y-75854819D01*
X149947619Y-75854819D02*
X150042857Y-75854819D01*
X150042857Y-75854819D02*
X150185714Y-75902438D01*
X150185714Y-75902438D02*
X150233333Y-75950057D01*
X151138095Y-75854819D02*
X150661905Y-75854819D01*
X150661905Y-75854819D02*
X150614286Y-76331009D01*
X150614286Y-76331009D02*
X150661905Y-76283390D01*
X150661905Y-76283390D02*
X150757143Y-76235771D01*
X150757143Y-76235771D02*
X150995238Y-76235771D01*
X150995238Y-76235771D02*
X151090476Y-76283390D01*
X151090476Y-76283390D02*
X151138095Y-76331009D01*
X151138095Y-76331009D02*
X151185714Y-76426247D01*
X151185714Y-76426247D02*
X151185714Y-76664342D01*
X151185714Y-76664342D02*
X151138095Y-76759580D01*
X151138095Y-76759580D02*
X151090476Y-76807200D01*
X151090476Y-76807200D02*
X150995238Y-76854819D01*
X150995238Y-76854819D02*
X150757143Y-76854819D01*
X150757143Y-76854819D02*
X150661905Y-76807200D01*
X150661905Y-76807200D02*
X150614286Y-76759580D01*
X137557142Y-63154819D02*
X137223809Y-62678628D01*
X136985714Y-63154819D02*
X136985714Y-62154819D01*
X136985714Y-62154819D02*
X137366666Y-62154819D01*
X137366666Y-62154819D02*
X137461904Y-62202438D01*
X137461904Y-62202438D02*
X137509523Y-62250057D01*
X137509523Y-62250057D02*
X137557142Y-62345295D01*
X137557142Y-62345295D02*
X137557142Y-62488152D01*
X137557142Y-62488152D02*
X137509523Y-62583390D01*
X137509523Y-62583390D02*
X137461904Y-62631009D01*
X137461904Y-62631009D02*
X137366666Y-62678628D01*
X137366666Y-62678628D02*
X136985714Y-62678628D01*
X138509523Y-63154819D02*
X137938095Y-63154819D01*
X138223809Y-63154819D02*
X138223809Y-62154819D01*
X138223809Y-62154819D02*
X138128571Y-62297676D01*
X138128571Y-62297676D02*
X138033333Y-62392914D01*
X138033333Y-62392914D02*
X137938095Y-62440533D01*
X139366666Y-62488152D02*
X139366666Y-63154819D01*
X139128571Y-62107200D02*
X138890476Y-62821485D01*
X138890476Y-62821485D02*
X139509523Y-62821485D01*
X151366666Y-71854819D02*
X151366666Y-72569104D01*
X151366666Y-72569104D02*
X151319047Y-72711961D01*
X151319047Y-72711961D02*
X151223809Y-72807200D01*
X151223809Y-72807200D02*
X151080952Y-72854819D01*
X151080952Y-72854819D02*
X150985714Y-72854819D01*
X151795238Y-71950057D02*
X151842857Y-71902438D01*
X151842857Y-71902438D02*
X151938095Y-71854819D01*
X151938095Y-71854819D02*
X152176190Y-71854819D01*
X152176190Y-71854819D02*
X152271428Y-71902438D01*
X152271428Y-71902438D02*
X152319047Y-71950057D01*
X152319047Y-71950057D02*
X152366666Y-72045295D01*
X152366666Y-72045295D02*
X152366666Y-72140533D01*
X152366666Y-72140533D02*
X152319047Y-72283390D01*
X152319047Y-72283390D02*
X151747619Y-72854819D01*
X151747619Y-72854819D02*
X152366666Y-72854819D01*
X140938392Y-75292319D02*
X140605059Y-74816128D01*
X140366964Y-75292319D02*
X140366964Y-74292319D01*
X140366964Y-74292319D02*
X140747916Y-74292319D01*
X140747916Y-74292319D02*
X140843154Y-74339938D01*
X140843154Y-74339938D02*
X140890773Y-74387557D01*
X140890773Y-74387557D02*
X140938392Y-74482795D01*
X140938392Y-74482795D02*
X140938392Y-74625652D01*
X140938392Y-74625652D02*
X140890773Y-74720890D01*
X140890773Y-74720890D02*
X140843154Y-74768509D01*
X140843154Y-74768509D02*
X140747916Y-74816128D01*
X140747916Y-74816128D02*
X140366964Y-74816128D01*
X141890773Y-75292319D02*
X141319345Y-75292319D01*
X141605059Y-75292319D02*
X141605059Y-74292319D01*
X141605059Y-74292319D02*
X141509821Y-74435176D01*
X141509821Y-74435176D02*
X141414583Y-74530414D01*
X141414583Y-74530414D02*
X141319345Y-74578033D01*
X142747916Y-74292319D02*
X142557440Y-74292319D01*
X142557440Y-74292319D02*
X142462202Y-74339938D01*
X142462202Y-74339938D02*
X142414583Y-74387557D01*
X142414583Y-74387557D02*
X142319345Y-74530414D01*
X142319345Y-74530414D02*
X142271726Y-74720890D01*
X142271726Y-74720890D02*
X142271726Y-75101842D01*
X142271726Y-75101842D02*
X142319345Y-75197080D01*
X142319345Y-75197080D02*
X142366964Y-75244700D01*
X142366964Y-75244700D02*
X142462202Y-75292319D01*
X142462202Y-75292319D02*
X142652678Y-75292319D01*
X142652678Y-75292319D02*
X142747916Y-75244700D01*
X142747916Y-75244700D02*
X142795535Y-75197080D01*
X142795535Y-75197080D02*
X142843154Y-75101842D01*
X142843154Y-75101842D02*
X142843154Y-74863747D01*
X142843154Y-74863747D02*
X142795535Y-74768509D01*
X142795535Y-74768509D02*
X142747916Y-74720890D01*
X142747916Y-74720890D02*
X142652678Y-74673271D01*
X142652678Y-74673271D02*
X142462202Y-74673271D01*
X142462202Y-74673271D02*
X142366964Y-74720890D01*
X142366964Y-74720890D02*
X142319345Y-74768509D01*
X142319345Y-74768509D02*
X142271726Y-74863747D01*
X143433333Y-54754819D02*
X143100000Y-54278628D01*
X142861905Y-54754819D02*
X142861905Y-53754819D01*
X142861905Y-53754819D02*
X143242857Y-53754819D01*
X143242857Y-53754819D02*
X143338095Y-53802438D01*
X143338095Y-53802438D02*
X143385714Y-53850057D01*
X143385714Y-53850057D02*
X143433333Y-53945295D01*
X143433333Y-53945295D02*
X143433333Y-54088152D01*
X143433333Y-54088152D02*
X143385714Y-54183390D01*
X143385714Y-54183390D02*
X143338095Y-54231009D01*
X143338095Y-54231009D02*
X143242857Y-54278628D01*
X143242857Y-54278628D02*
X142861905Y-54278628D01*
X144290476Y-54088152D02*
X144290476Y-54754819D01*
X144052381Y-53707200D02*
X143814286Y-54421485D01*
X143814286Y-54421485D02*
X144433333Y-54421485D01*
X138566666Y-86954819D02*
X138566666Y-87669104D01*
X138566666Y-87669104D02*
X138519047Y-87811961D01*
X138519047Y-87811961D02*
X138423809Y-87907200D01*
X138423809Y-87907200D02*
X138280952Y-87954819D01*
X138280952Y-87954819D02*
X138185714Y-87954819D01*
X138947619Y-86954819D02*
X139566666Y-86954819D01*
X139566666Y-86954819D02*
X139233333Y-87335771D01*
X139233333Y-87335771D02*
X139376190Y-87335771D01*
X139376190Y-87335771D02*
X139471428Y-87383390D01*
X139471428Y-87383390D02*
X139519047Y-87431009D01*
X139519047Y-87431009D02*
X139566666Y-87526247D01*
X139566666Y-87526247D02*
X139566666Y-87764342D01*
X139566666Y-87764342D02*
X139519047Y-87859580D01*
X139519047Y-87859580D02*
X139471428Y-87907200D01*
X139471428Y-87907200D02*
X139376190Y-87954819D01*
X139376190Y-87954819D02*
X139090476Y-87954819D01*
X139090476Y-87954819D02*
X138995238Y-87907200D01*
X138995238Y-87907200D02*
X138947619Y-87859580D01*
X147361905Y-71954819D02*
X147361905Y-70954819D01*
X147361905Y-70954819D02*
X147600000Y-70954819D01*
X147600000Y-70954819D02*
X147742857Y-71002438D01*
X147742857Y-71002438D02*
X147838095Y-71097676D01*
X147838095Y-71097676D02*
X147885714Y-71192914D01*
X147885714Y-71192914D02*
X147933333Y-71383390D01*
X147933333Y-71383390D02*
X147933333Y-71526247D01*
X147933333Y-71526247D02*
X147885714Y-71716723D01*
X147885714Y-71716723D02*
X147838095Y-71811961D01*
X147838095Y-71811961D02*
X147742857Y-71907200D01*
X147742857Y-71907200D02*
X147600000Y-71954819D01*
X147600000Y-71954819D02*
X147361905Y-71954819D01*
X148409524Y-71954819D02*
X148600000Y-71954819D01*
X148600000Y-71954819D02*
X148695238Y-71907200D01*
X148695238Y-71907200D02*
X148742857Y-71859580D01*
X148742857Y-71859580D02*
X148838095Y-71716723D01*
X148838095Y-71716723D02*
X148885714Y-71526247D01*
X148885714Y-71526247D02*
X148885714Y-71145295D01*
X148885714Y-71145295D02*
X148838095Y-71050057D01*
X148838095Y-71050057D02*
X148790476Y-71002438D01*
X148790476Y-71002438D02*
X148695238Y-70954819D01*
X148695238Y-70954819D02*
X148504762Y-70954819D01*
X148504762Y-70954819D02*
X148409524Y-71002438D01*
X148409524Y-71002438D02*
X148361905Y-71050057D01*
X148361905Y-71050057D02*
X148314286Y-71145295D01*
X148314286Y-71145295D02*
X148314286Y-71383390D01*
X148314286Y-71383390D02*
X148361905Y-71478628D01*
X148361905Y-71478628D02*
X148409524Y-71526247D01*
X148409524Y-71526247D02*
X148504762Y-71573866D01*
X148504762Y-71573866D02*
X148695238Y-71573866D01*
X148695238Y-71573866D02*
X148790476Y-71526247D01*
X148790476Y-71526247D02*
X148838095Y-71478628D01*
X148838095Y-71478628D02*
X148885714Y-71383390D01*
X143957142Y-65159580D02*
X143909523Y-65207200D01*
X143909523Y-65207200D02*
X143766666Y-65254819D01*
X143766666Y-65254819D02*
X143671428Y-65254819D01*
X143671428Y-65254819D02*
X143528571Y-65207200D01*
X143528571Y-65207200D02*
X143433333Y-65111961D01*
X143433333Y-65111961D02*
X143385714Y-65016723D01*
X143385714Y-65016723D02*
X143338095Y-64826247D01*
X143338095Y-64826247D02*
X143338095Y-64683390D01*
X143338095Y-64683390D02*
X143385714Y-64492914D01*
X143385714Y-64492914D02*
X143433333Y-64397676D01*
X143433333Y-64397676D02*
X143528571Y-64302438D01*
X143528571Y-64302438D02*
X143671428Y-64254819D01*
X143671428Y-64254819D02*
X143766666Y-64254819D01*
X143766666Y-64254819D02*
X143909523Y-64302438D01*
X143909523Y-64302438D02*
X143957142Y-64350057D01*
X144909523Y-65254819D02*
X144338095Y-65254819D01*
X144623809Y-65254819D02*
X144623809Y-64254819D01*
X144623809Y-64254819D02*
X144528571Y-64397676D01*
X144528571Y-64397676D02*
X144433333Y-64492914D01*
X144433333Y-64492914D02*
X144338095Y-64540533D01*
X145290476Y-64350057D02*
X145338095Y-64302438D01*
X145338095Y-64302438D02*
X145433333Y-64254819D01*
X145433333Y-64254819D02*
X145671428Y-64254819D01*
X145671428Y-64254819D02*
X145766666Y-64302438D01*
X145766666Y-64302438D02*
X145814285Y-64350057D01*
X145814285Y-64350057D02*
X145861904Y-64445295D01*
X145861904Y-64445295D02*
X145861904Y-64540533D01*
X145861904Y-64540533D02*
X145814285Y-64683390D01*
X145814285Y-64683390D02*
X145242857Y-65254819D01*
X145242857Y-65254819D02*
X145861904Y-65254819D01*
X148033333Y-73654819D02*
X147700000Y-73178628D01*
X147461905Y-73654819D02*
X147461905Y-72654819D01*
X147461905Y-72654819D02*
X147842857Y-72654819D01*
X147842857Y-72654819D02*
X147938095Y-72702438D01*
X147938095Y-72702438D02*
X147985714Y-72750057D01*
X147985714Y-72750057D02*
X148033333Y-72845295D01*
X148033333Y-72845295D02*
X148033333Y-72988152D01*
X148033333Y-72988152D02*
X147985714Y-73083390D01*
X147985714Y-73083390D02*
X147938095Y-73131009D01*
X147938095Y-73131009D02*
X147842857Y-73178628D01*
X147842857Y-73178628D02*
X147461905Y-73178628D01*
X148509524Y-73654819D02*
X148700000Y-73654819D01*
X148700000Y-73654819D02*
X148795238Y-73607200D01*
X148795238Y-73607200D02*
X148842857Y-73559580D01*
X148842857Y-73559580D02*
X148938095Y-73416723D01*
X148938095Y-73416723D02*
X148985714Y-73226247D01*
X148985714Y-73226247D02*
X148985714Y-72845295D01*
X148985714Y-72845295D02*
X148938095Y-72750057D01*
X148938095Y-72750057D02*
X148890476Y-72702438D01*
X148890476Y-72702438D02*
X148795238Y-72654819D01*
X148795238Y-72654819D02*
X148604762Y-72654819D01*
X148604762Y-72654819D02*
X148509524Y-72702438D01*
X148509524Y-72702438D02*
X148461905Y-72750057D01*
X148461905Y-72750057D02*
X148414286Y-72845295D01*
X148414286Y-72845295D02*
X148414286Y-73083390D01*
X148414286Y-73083390D02*
X148461905Y-73178628D01*
X148461905Y-73178628D02*
X148509524Y-73226247D01*
X148509524Y-73226247D02*
X148604762Y-73273866D01*
X148604762Y-73273866D02*
X148795238Y-73273866D01*
X148795238Y-73273866D02*
X148890476Y-73226247D01*
X148890476Y-73226247D02*
X148938095Y-73178628D01*
X148938095Y-73178628D02*
X148985714Y-73083390D01*
X144738095Y-60954819D02*
X144738095Y-61764342D01*
X144738095Y-61764342D02*
X144785714Y-61859580D01*
X144785714Y-61859580D02*
X144833333Y-61907200D01*
X144833333Y-61907200D02*
X144928571Y-61954819D01*
X144928571Y-61954819D02*
X145119047Y-61954819D01*
X145119047Y-61954819D02*
X145214285Y-61907200D01*
X145214285Y-61907200D02*
X145261904Y-61859580D01*
X145261904Y-61859580D02*
X145309523Y-61764342D01*
X145309523Y-61764342D02*
X145309523Y-60954819D01*
X145738095Y-61050057D02*
X145785714Y-61002438D01*
X145785714Y-61002438D02*
X145880952Y-60954819D01*
X145880952Y-60954819D02*
X146119047Y-60954819D01*
X146119047Y-60954819D02*
X146214285Y-61002438D01*
X146214285Y-61002438D02*
X146261904Y-61050057D01*
X146261904Y-61050057D02*
X146309523Y-61145295D01*
X146309523Y-61145295D02*
X146309523Y-61240533D01*
X146309523Y-61240533D02*
X146261904Y-61383390D01*
X146261904Y-61383390D02*
X145690476Y-61954819D01*
X145690476Y-61954819D02*
X146309523Y-61954819D01*
X135433333Y-65854579D02*
X135385714Y-65902199D01*
X135385714Y-65902199D02*
X135242857Y-65949818D01*
X135242857Y-65949818D02*
X135147619Y-65949818D01*
X135147619Y-65949818D02*
X135004762Y-65902199D01*
X135004762Y-65902199D02*
X134909524Y-65806960D01*
X134909524Y-65806960D02*
X134861905Y-65711722D01*
X134861905Y-65711722D02*
X134814286Y-65521246D01*
X134814286Y-65521246D02*
X134814286Y-65378389D01*
X134814286Y-65378389D02*
X134861905Y-65187913D01*
X134861905Y-65187913D02*
X134909524Y-65092675D01*
X134909524Y-65092675D02*
X135004762Y-64997437D01*
X135004762Y-64997437D02*
X135147619Y-64949818D01*
X135147619Y-64949818D02*
X135242857Y-64949818D01*
X135242857Y-64949818D02*
X135385714Y-64997437D01*
X135385714Y-64997437D02*
X135433333Y-65045056D01*
X135814286Y-65045056D02*
X135861905Y-64997437D01*
X135861905Y-64997437D02*
X135957143Y-64949818D01*
X135957143Y-64949818D02*
X136195238Y-64949818D01*
X136195238Y-64949818D02*
X136290476Y-64997437D01*
X136290476Y-64997437D02*
X136338095Y-65045056D01*
X136338095Y-65045056D02*
X136385714Y-65140294D01*
X136385714Y-65140294D02*
X136385714Y-65235532D01*
X136385714Y-65235532D02*
X136338095Y-65378389D01*
X136338095Y-65378389D02*
X135766667Y-65949818D01*
X135766667Y-65949818D02*
X136385714Y-65949818D01*
X146638069Y-62735833D02*
X147352354Y-62735833D01*
X147352354Y-62735833D02*
X147495211Y-62783452D01*
X147495211Y-62783452D02*
X147590450Y-62878690D01*
X147590450Y-62878690D02*
X147638069Y-63021547D01*
X147638069Y-63021547D02*
X147638069Y-63116785D01*
X147638069Y-61735833D02*
X147638069Y-62307261D01*
X147638069Y-62021547D02*
X146638069Y-62021547D01*
X146638069Y-62021547D02*
X146780926Y-62116785D01*
X146780926Y-62116785D02*
X146876164Y-62212023D01*
X146876164Y-62212023D02*
X146923783Y-62307261D01*
X144966667Y-85507200D02*
X145109524Y-85554819D01*
X145109524Y-85554819D02*
X145347619Y-85554819D01*
X145347619Y-85554819D02*
X145442857Y-85507200D01*
X145442857Y-85507200D02*
X145490476Y-85459580D01*
X145490476Y-85459580D02*
X145538095Y-85364342D01*
X145538095Y-85364342D02*
X145538095Y-85269104D01*
X145538095Y-85269104D02*
X145490476Y-85173866D01*
X145490476Y-85173866D02*
X145442857Y-85126247D01*
X145442857Y-85126247D02*
X145347619Y-85078628D01*
X145347619Y-85078628D02*
X145157143Y-85031009D01*
X145157143Y-85031009D02*
X145061905Y-84983390D01*
X145061905Y-84983390D02*
X145014286Y-84935771D01*
X145014286Y-84935771D02*
X144966667Y-84840533D01*
X144966667Y-84840533D02*
X144966667Y-84745295D01*
X144966667Y-84745295D02*
X145014286Y-84650057D01*
X145014286Y-84650057D02*
X145061905Y-84602438D01*
X145061905Y-84602438D02*
X145157143Y-84554819D01*
X145157143Y-84554819D02*
X145395238Y-84554819D01*
X145395238Y-84554819D02*
X145538095Y-84602438D01*
X145871429Y-84554819D02*
X146109524Y-85554819D01*
X146109524Y-85554819D02*
X146300000Y-84840533D01*
X146300000Y-84840533D02*
X146490476Y-85554819D01*
X146490476Y-85554819D02*
X146728572Y-84554819D01*
X147633333Y-85554819D02*
X147061905Y-85554819D01*
X147347619Y-85554819D02*
X147347619Y-84554819D01*
X147347619Y-84554819D02*
X147252381Y-84697676D01*
X147252381Y-84697676D02*
X147157143Y-84792914D01*
X147157143Y-84792914D02*
X147061905Y-84840533D01*
X137557142Y-60754819D02*
X137223809Y-60278628D01*
X136985714Y-60754819D02*
X136985714Y-59754819D01*
X136985714Y-59754819D02*
X137366666Y-59754819D01*
X137366666Y-59754819D02*
X137461904Y-59802438D01*
X137461904Y-59802438D02*
X137509523Y-59850057D01*
X137509523Y-59850057D02*
X137557142Y-59945295D01*
X137557142Y-59945295D02*
X137557142Y-60088152D01*
X137557142Y-60088152D02*
X137509523Y-60183390D01*
X137509523Y-60183390D02*
X137461904Y-60231009D01*
X137461904Y-60231009D02*
X137366666Y-60278628D01*
X137366666Y-60278628D02*
X136985714Y-60278628D01*
X138509523Y-60754819D02*
X137938095Y-60754819D01*
X138223809Y-60754819D02*
X138223809Y-59754819D01*
X138223809Y-59754819D02*
X138128571Y-59897676D01*
X138128571Y-59897676D02*
X138033333Y-59992914D01*
X138033333Y-59992914D02*
X137938095Y-60040533D01*
X138985714Y-60754819D02*
X139176190Y-60754819D01*
X139176190Y-60754819D02*
X139271428Y-60707200D01*
X139271428Y-60707200D02*
X139319047Y-60659580D01*
X139319047Y-60659580D02*
X139414285Y-60516723D01*
X139414285Y-60516723D02*
X139461904Y-60326247D01*
X139461904Y-60326247D02*
X139461904Y-59945295D01*
X139461904Y-59945295D02*
X139414285Y-59850057D01*
X139414285Y-59850057D02*
X139366666Y-59802438D01*
X139366666Y-59802438D02*
X139271428Y-59754819D01*
X139271428Y-59754819D02*
X139080952Y-59754819D01*
X139080952Y-59754819D02*
X138985714Y-59802438D01*
X138985714Y-59802438D02*
X138938095Y-59850057D01*
X138938095Y-59850057D02*
X138890476Y-59945295D01*
X138890476Y-59945295D02*
X138890476Y-60183390D01*
X138890476Y-60183390D02*
X138938095Y-60278628D01*
X138938095Y-60278628D02*
X138985714Y-60326247D01*
X138985714Y-60326247D02*
X139080952Y-60373866D01*
X139080952Y-60373866D02*
X139271428Y-60373866D01*
X139271428Y-60373866D02*
X139366666Y-60326247D01*
X139366666Y-60326247D02*
X139414285Y-60278628D01*
X139414285Y-60278628D02*
X139461904Y-60183390D01*
X150233333Y-78659580D02*
X150185714Y-78707200D01*
X150185714Y-78707200D02*
X150042857Y-78754819D01*
X150042857Y-78754819D02*
X149947619Y-78754819D01*
X149947619Y-78754819D02*
X149804762Y-78707200D01*
X149804762Y-78707200D02*
X149709524Y-78611961D01*
X149709524Y-78611961D02*
X149661905Y-78516723D01*
X149661905Y-78516723D02*
X149614286Y-78326247D01*
X149614286Y-78326247D02*
X149614286Y-78183390D01*
X149614286Y-78183390D02*
X149661905Y-77992914D01*
X149661905Y-77992914D02*
X149709524Y-77897676D01*
X149709524Y-77897676D02*
X149804762Y-77802438D01*
X149804762Y-77802438D02*
X149947619Y-77754819D01*
X149947619Y-77754819D02*
X150042857Y-77754819D01*
X150042857Y-77754819D02*
X150185714Y-77802438D01*
X150185714Y-77802438D02*
X150233333Y-77850057D01*
X151090476Y-77754819D02*
X150900000Y-77754819D01*
X150900000Y-77754819D02*
X150804762Y-77802438D01*
X150804762Y-77802438D02*
X150757143Y-77850057D01*
X150757143Y-77850057D02*
X150661905Y-77992914D01*
X150661905Y-77992914D02*
X150614286Y-78183390D01*
X150614286Y-78183390D02*
X150614286Y-78564342D01*
X150614286Y-78564342D02*
X150661905Y-78659580D01*
X150661905Y-78659580D02*
X150709524Y-78707200D01*
X150709524Y-78707200D02*
X150804762Y-78754819D01*
X150804762Y-78754819D02*
X150995238Y-78754819D01*
X150995238Y-78754819D02*
X151090476Y-78707200D01*
X151090476Y-78707200D02*
X151138095Y-78659580D01*
X151138095Y-78659580D02*
X151185714Y-78564342D01*
X151185714Y-78564342D02*
X151185714Y-78326247D01*
X151185714Y-78326247D02*
X151138095Y-78231009D01*
X151138095Y-78231009D02*
X151090476Y-78183390D01*
X151090476Y-78183390D02*
X150995238Y-78135771D01*
X150995238Y-78135771D02*
X150804762Y-78135771D01*
X150804762Y-78135771D02*
X150709524Y-78183390D01*
X150709524Y-78183390D02*
X150661905Y-78231009D01*
X150661905Y-78231009D02*
X150614286Y-78326247D01*
X150233333Y-80659580D02*
X150185714Y-80707200D01*
X150185714Y-80707200D02*
X150042857Y-80754819D01*
X150042857Y-80754819D02*
X149947619Y-80754819D01*
X149947619Y-80754819D02*
X149804762Y-80707200D01*
X149804762Y-80707200D02*
X149709524Y-80611961D01*
X149709524Y-80611961D02*
X149661905Y-80516723D01*
X149661905Y-80516723D02*
X149614286Y-80326247D01*
X149614286Y-80326247D02*
X149614286Y-80183390D01*
X149614286Y-80183390D02*
X149661905Y-79992914D01*
X149661905Y-79992914D02*
X149709524Y-79897676D01*
X149709524Y-79897676D02*
X149804762Y-79802438D01*
X149804762Y-79802438D02*
X149947619Y-79754819D01*
X149947619Y-79754819D02*
X150042857Y-79754819D01*
X150042857Y-79754819D02*
X150185714Y-79802438D01*
X150185714Y-79802438D02*
X150233333Y-79850057D01*
X150566667Y-79754819D02*
X151233333Y-79754819D01*
X151233333Y-79754819D02*
X150804762Y-80754819D01*
X138633333Y-73854819D02*
X138300000Y-73378628D01*
X138061905Y-73854819D02*
X138061905Y-72854819D01*
X138061905Y-72854819D02*
X138442857Y-72854819D01*
X138442857Y-72854819D02*
X138538095Y-72902438D01*
X138538095Y-72902438D02*
X138585714Y-72950057D01*
X138585714Y-72950057D02*
X138633333Y-73045295D01*
X138633333Y-73045295D02*
X138633333Y-73188152D01*
X138633333Y-73188152D02*
X138585714Y-73283390D01*
X138585714Y-73283390D02*
X138538095Y-73331009D01*
X138538095Y-73331009D02*
X138442857Y-73378628D01*
X138442857Y-73378628D02*
X138061905Y-73378628D01*
X139204762Y-73283390D02*
X139109524Y-73235771D01*
X139109524Y-73235771D02*
X139061905Y-73188152D01*
X139061905Y-73188152D02*
X139014286Y-73092914D01*
X139014286Y-73092914D02*
X139014286Y-73045295D01*
X139014286Y-73045295D02*
X139061905Y-72950057D01*
X139061905Y-72950057D02*
X139109524Y-72902438D01*
X139109524Y-72902438D02*
X139204762Y-72854819D01*
X139204762Y-72854819D02*
X139395238Y-72854819D01*
X139395238Y-72854819D02*
X139490476Y-72902438D01*
X139490476Y-72902438D02*
X139538095Y-72950057D01*
X139538095Y-72950057D02*
X139585714Y-73045295D01*
X139585714Y-73045295D02*
X139585714Y-73092914D01*
X139585714Y-73092914D02*
X139538095Y-73188152D01*
X139538095Y-73188152D02*
X139490476Y-73235771D01*
X139490476Y-73235771D02*
X139395238Y-73283390D01*
X139395238Y-73283390D02*
X139204762Y-73283390D01*
X139204762Y-73283390D02*
X139109524Y-73331009D01*
X139109524Y-73331009D02*
X139061905Y-73378628D01*
X139061905Y-73378628D02*
X139014286Y-73473866D01*
X139014286Y-73473866D02*
X139014286Y-73664342D01*
X139014286Y-73664342D02*
X139061905Y-73759580D01*
X139061905Y-73759580D02*
X139109524Y-73807200D01*
X139109524Y-73807200D02*
X139204762Y-73854819D01*
X139204762Y-73854819D02*
X139395238Y-73854819D01*
X139395238Y-73854819D02*
X139490476Y-73807200D01*
X139490476Y-73807200D02*
X139538095Y-73759580D01*
X139538095Y-73759580D02*
X139585714Y-73664342D01*
X139585714Y-73664342D02*
X139585714Y-73473866D01*
X139585714Y-73473866D02*
X139538095Y-73378628D01*
X139538095Y-73378628D02*
X139490476Y-73331009D01*
X139490476Y-73331009D02*
X139395238Y-73283390D01*
D14*
%TO.C,D7*%
X136259100Y-79593200D02*
X136259100Y-81513200D01*
X136259100Y-81513200D02*
X138944100Y-81513200D01*
X138944100Y-79593200D02*
X136259100Y-79593200D01*
%TO.C,R7*%
X141627064Y-77765000D02*
X141172936Y-77765000D01*
X141627064Y-79235000D02*
X141172936Y-79235000D01*
%TO.C,SW2*%
X149596250Y-84277500D02*
X150696250Y-84277500D01*
X149596250Y-85797500D02*
X149596250Y-85877500D01*
X152916250Y-84277500D02*
X154016250Y-84277500D01*
X154016250Y-85797500D02*
X154016250Y-85877500D01*
%TO.C,J4*%
X147270000Y-55030000D02*
X147270000Y-53700000D01*
X148600000Y-55030000D02*
X147270000Y-55030000D01*
X149870000Y-52370000D02*
X155010000Y-52370000D01*
X149870000Y-55030000D02*
X149870000Y-52370000D01*
X149870000Y-55030000D02*
X155010000Y-55030000D01*
X155010000Y-55030000D02*
X155010000Y-52370000D01*
%TO.C,R15*%
X141608664Y-79818200D02*
X141154536Y-79818200D01*
X141608664Y-81288200D02*
X141154536Y-81288200D01*
%TO.C,R12*%
X143846250Y-79685436D02*
X143846250Y-80139564D01*
X145316250Y-79685436D02*
X145316250Y-80139564D01*
%TO.C,C10*%
X146011252Y-57765000D02*
X145488748Y-57765000D01*
X146011252Y-59235000D02*
X145488748Y-59235000D01*
%TO.C,R18*%
X143096250Y-72110436D02*
X143096250Y-72564564D01*
X144566250Y-72110436D02*
X144566250Y-72564564D01*
%TO.C,C13*%
X141671252Y-57515000D02*
X141148748Y-57515000D01*
X141671252Y-58985000D02*
X141148748Y-58985000D01*
%TO.C,C11*%
X142488748Y-55265000D02*
X143011252Y-55265000D01*
X142488748Y-56735000D02*
X143011252Y-56735000D01*
%TO.C,D8*%
X141581250Y-70297500D02*
X144266250Y-70297500D01*
X144266250Y-68377500D02*
X141581250Y-68377500D01*
X144266250Y-70297500D02*
X144266250Y-68377500D01*
%TO.C,C5*%
X147892852Y-75568200D02*
X147370348Y-75568200D01*
X147892852Y-77038200D02*
X147370348Y-77038200D01*
%TO.C,R14*%
X141182936Y-62015000D02*
X141637064Y-62015000D01*
X141182936Y-63485000D02*
X141637064Y-63485000D01*
%TO.C,J2*%
X150640000Y-67040000D02*
X150640000Y-67415000D01*
X150640000Y-67040000D02*
X152760000Y-67040000D01*
X150640000Y-67415000D02*
X149410000Y-67415000D01*
X150640000Y-68785000D02*
X150640000Y-71160000D01*
X150640000Y-71160000D02*
X152760000Y-71160000D01*
X152760000Y-67040000D02*
X152760000Y-69415000D01*
X152760000Y-70785000D02*
X152760000Y-71160000D01*
%TO.C,R16*%
X140846250Y-72110436D02*
X140846250Y-72564564D01*
X142316250Y-72110436D02*
X142316250Y-72564564D01*
%TO.C,R4*%
X144865000Y-55627064D02*
X144865000Y-55172936D01*
X146335000Y-55627064D02*
X146335000Y-55172936D01*
%TO.C,J3*%
X138065000Y-82440000D02*
X138065000Y-82815000D01*
X138065000Y-82440000D02*
X140185000Y-82440000D01*
X138065000Y-82815000D02*
X136835000Y-82815000D01*
X138065000Y-84185000D02*
X138065000Y-86560000D01*
X138065000Y-86560000D02*
X140185000Y-86560000D01*
X140185000Y-82440000D02*
X140185000Y-84815000D01*
X140185000Y-86185000D02*
X140185000Y-86560000D01*
%TO.C,D9*%
X145081250Y-70297500D02*
X147766250Y-70297500D01*
X147766250Y-68377500D02*
X145081250Y-68377500D01*
X147766250Y-70297500D02*
X147766250Y-68377500D01*
%TO.C,C12*%
X141671252Y-64015000D02*
X141148748Y-64015000D01*
X141671252Y-65485000D02*
X141148748Y-65485000D01*
%TO.C,R9*%
X145346250Y-72314564D02*
X145346250Y-71860436D01*
X146816250Y-72314564D02*
X146816250Y-71860436D01*
%TO.C,U2*%
X145505750Y-59890000D02*
X144705750Y-59890000D01*
X145505750Y-59890000D02*
X146305750Y-59890000D01*
X145505750Y-63010000D02*
X144705750Y-63010000D01*
X145505750Y-63010000D02*
X146305750Y-63010000D01*
X147045750Y-63290000D02*
X146565750Y-63290000D01*
X146805750Y-62960000D01*
X147045750Y-63290000D01*
G36*
X147045750Y-63290000D02*
G01*
X146565750Y-63290000D01*
X146805750Y-62960000D01*
X147045750Y-63290000D01*
G37*
%TO.C,C2*%
X136950000Y-65233748D02*
X136950000Y-65756252D01*
X138420000Y-65233748D02*
X138420000Y-65756252D01*
D13*
%TO.C,J1*%
X146952250Y-58700000D02*
X147652250Y-59100000D01*
X147652250Y-58300000D02*
X146952250Y-58700000D01*
X147652250Y-59100000D02*
X147652250Y-58300000D01*
X148255750Y-57150000D02*
X148255750Y-65750000D01*
X148255750Y-65750000D02*
X154705750Y-65750000D01*
X154705750Y-57150000D02*
X148255750Y-57150000D01*
D14*
%TO.C,SW1*%
X144096250Y-84277500D02*
X145196250Y-84277500D01*
X144096250Y-85797500D02*
X144096250Y-85877500D01*
X147416250Y-84277500D02*
X148516250Y-84277500D01*
X148516250Y-85797500D02*
X148516250Y-85877500D01*
%TO.C,R19*%
X141182936Y-59515000D02*
X141637064Y-59515000D01*
X141182936Y-60985000D02*
X141637064Y-60985000D01*
%TO.C,C6*%
X147892852Y-77568200D02*
X147370348Y-77568200D01*
X147892852Y-79038200D02*
X147370348Y-79038200D01*
%TO.C,C7*%
X147892852Y-79568200D02*
X147370348Y-79568200D01*
X147892852Y-81038200D02*
X147370348Y-81038200D01*
%TO.C,R8*%
X139058314Y-70852500D02*
X138604186Y-70852500D01*
X139058314Y-72322500D02*
X138604186Y-72322500D01*
%TD*%
M02*
