%TF.GenerationSoftware,KiCad,Pcbnew,8.0.1-rc1*%
%TF.CreationDate,2025-05-18T23:27:59-05:00*%
%TF.ProjectId,rfReciever,72665265-6369-4657-9665-722e6b696361,rev?*%
%TF.SameCoordinates,Original*%
%TF.FileFunction,Paste,Top*%
%TF.FilePolarity,Positive*%
%FSLAX46Y46*%
G04 Gerber Fmt 4.6, Leading zero omitted, Abs format (unit mm)*
G04 Created by KiCad (PCBNEW 8.0.1-rc1) date 2025-05-18 23:27:59*
%MOMM*%
%LPD*%
G01*
G04 APERTURE LIST*
G04 Aperture macros list*
%AMRoundRect*
0 Rectangle with rounded corners*
0 $1 Rounding radius*
0 $2 $3 $4 $5 $6 $7 $8 $9 X,Y pos of 4 corners*
0 Add a 4 corners polygon primitive as box body*
4,1,4,$2,$3,$4,$5,$6,$7,$8,$9,$2,$3,0*
0 Add four circle primitives for the rounded corners*
1,1,$1+$1,$2,$3*
1,1,$1+$1,$4,$5*
1,1,$1+$1,$6,$7*
1,1,$1+$1,$8,$9*
0 Add four rect primitives between the rounded corners*
20,1,$1+$1,$2,$3,$4,$5,0*
20,1,$1+$1,$4,$5,$6,$7,0*
20,1,$1+$1,$6,$7,$8,$9,0*
20,1,$1+$1,$8,$9,$2,$3,0*%
G04 Aperture macros list end*
%ADD10RoundRect,0.243750X-0.243750X-0.456250X0.243750X-0.456250X0.243750X0.456250X-0.243750X0.456250X0*%
%ADD11RoundRect,0.250000X0.262500X0.450000X-0.262500X0.450000X-0.262500X-0.450000X0.262500X-0.450000X0*%
%ADD12RoundRect,0.135000X-0.315000X-0.365000X0.315000X-0.365000X0.315000X0.365000X-0.315000X0.365000X0*%
%ADD13RoundRect,0.082500X-0.767500X-0.192500X0.767500X-0.192500X0.767500X0.192500X-0.767500X0.192500X0*%
%ADD14RoundRect,0.250000X-0.450000X0.262500X-0.450000X-0.262500X0.450000X-0.262500X0.450000X0.262500X0*%
%ADD15RoundRect,0.250000X0.250000X0.475000X-0.250000X0.475000X-0.250000X-0.475000X0.250000X-0.475000X0*%
%ADD16RoundRect,0.250000X-0.250000X-0.475000X0.250000X-0.475000X0.250000X0.475000X-0.250000X0.475000X0*%
%ADD17RoundRect,0.243750X0.243750X0.456250X-0.243750X0.456250X-0.243750X-0.456250X0.243750X-0.456250X0*%
%ADD18RoundRect,0.250000X-0.262500X-0.450000X0.262500X-0.450000X0.262500X0.450000X-0.262500X0.450000X0*%
%ADD19R,2.350000X0.850000*%
%ADD20RoundRect,0.250000X0.450000X-0.262500X0.450000X0.262500X-0.450000X0.262500X-0.450000X-0.262500X0*%
%ADD21RoundRect,0.150000X0.512500X0.150000X-0.512500X0.150000X-0.512500X-0.150000X0.512500X-0.150000X0*%
%ADD22RoundRect,0.250000X-0.475000X0.250000X-0.475000X-0.250000X0.475000X-0.250000X0.475000X0.250000X0*%
%ADD23R,1.000000X0.298000*%
%ADD24R,1.150000X0.630000*%
G04 APERTURE END LIST*
D10*
%TO.C,D7*%
X137006600Y-80553200D03*
X138881600Y-80553200D03*
%TD*%
D11*
%TO.C,R7*%
X142312500Y-78500000D03*
X140487500Y-78500000D03*
%TD*%
D12*
%TO.C,SW2*%
X149756250Y-85037500D03*
X153856250Y-85037500D03*
X149756250Y-86637500D03*
X153856250Y-86637500D03*
D13*
X151806250Y-84412500D03*
%TD*%
D11*
%TO.C,R15*%
X142294100Y-80553200D03*
X140469100Y-80553200D03*
%TD*%
D14*
%TO.C,R12*%
X144581250Y-79000000D03*
X144581250Y-80825000D03*
%TD*%
D15*
%TO.C,C10*%
X146700000Y-58500000D03*
X144800000Y-58500000D03*
%TD*%
D14*
%TO.C,R18*%
X143831250Y-71425000D03*
X143831250Y-73250000D03*
%TD*%
D15*
%TO.C,C13*%
X142360000Y-58250000D03*
X140460000Y-58250000D03*
%TD*%
D16*
%TO.C,C11*%
X141800000Y-56000000D03*
X143700000Y-56000000D03*
%TD*%
D17*
%TO.C,D8*%
X143518750Y-69337500D03*
X141643750Y-69337500D03*
%TD*%
D15*
%TO.C,C5*%
X148581600Y-76303200D03*
X146681600Y-76303200D03*
%TD*%
D18*
%TO.C,R14*%
X140497500Y-62750000D03*
X142322500Y-62750000D03*
%TD*%
D19*
%TO.C,J2*%
X150525000Y-68100000D03*
X152875000Y-70100000D03*
%TD*%
D14*
%TO.C,R16*%
X141581250Y-71425000D03*
X141581250Y-73250000D03*
%TD*%
D20*
%TO.C,R4*%
X145600000Y-56312500D03*
X145600000Y-54487500D03*
%TD*%
D19*
%TO.C,J3*%
X137950000Y-83500000D03*
X140300000Y-85500000D03*
%TD*%
D17*
%TO.C,D9*%
X147018750Y-69337500D03*
X145143750Y-69337500D03*
%TD*%
D15*
%TO.C,C12*%
X142360000Y-64750000D03*
X140460000Y-64750000D03*
%TD*%
D20*
%TO.C,R9*%
X146081250Y-73000000D03*
X146081250Y-71175000D03*
%TD*%
D21*
%TO.C,U2*%
X146643250Y-62400000D03*
X146643250Y-61450000D03*
X146643250Y-60500000D03*
X144368250Y-60500000D03*
X144368250Y-61450000D03*
X144368250Y-62400000D03*
%TD*%
D22*
%TO.C,C2*%
X137685000Y-64545000D03*
X137685000Y-66445000D03*
%TD*%
D23*
%TO.C,J1*%
X154755750Y-58700000D03*
X154755750Y-59200000D03*
X154755750Y-59700000D03*
X154755750Y-60200000D03*
X154755750Y-60700000D03*
X154755750Y-61200000D03*
X154755750Y-61700000D03*
X154755750Y-62200000D03*
X154755750Y-62700000D03*
X154755750Y-63200000D03*
X154755750Y-63700000D03*
X154755750Y-64200000D03*
D24*
X153915750Y-58030000D03*
%TD*%
D12*
%TO.C,SW1*%
X144256250Y-85037500D03*
X148356250Y-85037500D03*
X144256250Y-86637500D03*
X148356250Y-86637500D03*
D13*
X146306250Y-84412500D03*
%TD*%
D18*
%TO.C,R19*%
X140497500Y-60250000D03*
X142322500Y-60250000D03*
%TD*%
D15*
%TO.C,C6*%
X148581600Y-78303200D03*
X146681600Y-78303200D03*
%TD*%
%TO.C,C7*%
X148581600Y-80303200D03*
X146681600Y-80303200D03*
%TD*%
D11*
%TO.C,R8*%
X139743750Y-71587500D03*
X137918750Y-71587500D03*
%TD*%
M02*
