%TF.GenerationSoftware,KiCad,Pcbnew,8.0.1-rc1*%
%TF.CreationDate,2025-05-18T23:27:59-05:00*%
%TF.ProjectId,rfReciever,72665265-6369-4657-9665-722e6b696361,rev?*%
%TF.SameCoordinates,Original*%
%TF.FileFunction,Copper,L2,Inr*%
%TF.FilePolarity,Positive*%
%FSLAX46Y46*%
G04 Gerber Fmt 4.6, Leading zero omitted, Abs format (unit mm)*
G04 Created by KiCad (PCBNEW 8.0.1-rc1) date 2025-05-18 23:27:59*
%MOMM*%
%LPD*%
G01*
G04 APERTURE LIST*
%TA.AperFunction,ComponentPad*%
%ADD10R,1.700000X1.700000*%
%TD*%
%TA.AperFunction,ComponentPad*%
%ADD11O,1.700000X1.700000*%
%TD*%
%TA.AperFunction,ViaPad*%
%ADD12C,0.600000*%
%TD*%
G04 APERTURE END LIST*
D10*
%TO.N,+3.3V*%
%TO.C,J4*%
X148600000Y-53700000D03*
D11*
%TO.N,GND*%
X151140000Y-53700000D03*
%TO.N,+5V*%
X153680000Y-53700000D03*
%TD*%
D12*
%TO.N,GND*%
X140460000Y-64750000D03*
X142400000Y-53400000D03*
X137685000Y-66445000D03*
X152630000Y-64870000D03*
X151793750Y-83000000D03*
X136134160Y-69446800D03*
X146250000Y-87500000D03*
X137918750Y-71587500D03*
X137006600Y-80553200D03*
X136134160Y-82553200D03*
X142750000Y-86500000D03*
X146681600Y-80303200D03*
X137935000Y-61495000D03*
X152380000Y-69174998D03*
X146081250Y-71175000D03*
X134100000Y-69400000D03*
X147750000Y-61450000D03*
X140460000Y-58250000D03*
X151100000Y-52350000D03*
X151750000Y-87500000D03*
X152900000Y-58000000D03*
X143518750Y-67400000D03*
X149880640Y-69446800D03*
%TO.N,/RF_TXD*%
X153200000Y-68000000D03*
%TO.N,/RF_RXD*%
X151500000Y-77750000D03*
X150875000Y-76375000D03*
%TO.N,/UART_RTS*%
X139743750Y-71587500D03*
%TO.N,/UART_CTS*%
X146081250Y-73000000D03*
X141182500Y-66200000D03*
%TO.N,/RF_SLEEP*%
X140700000Y-85500000D03*
%TO.N,/RF_RESET*%
X144581250Y-80825000D03*
X143131250Y-84750000D03*
%TO.N,/RF_PWM*%
X142294100Y-80553200D03*
%TO.N,/RF_ASSOCIATE*%
X143831250Y-71425000D03*
%TO.N,+5V*%
X146700000Y-58500000D03*
X153600000Y-60200000D03*
X153600000Y-62700000D03*
%TO.N,+3.3V*%
X134219100Y-84553200D03*
X139719100Y-86553200D03*
X148630960Y-82553200D03*
X138500000Y-58000000D03*
X135425000Y-63750000D03*
X141800000Y-56000000D03*
%TO.N,/RF_SW_SLEEP*%
X149756250Y-85037500D03*
%TO.N,/RF_DSLEEP*%
X141581250Y-71425000D03*
%TO.N,/USBDM*%
X140497500Y-62750000D03*
%TO.N,/USBDP*%
X140497500Y-60250000D03*
%TO.N,/FTDI_RESET*%
X137685000Y-64545000D03*
X137685000Y-58995000D03*
%TO.N,/USB_Identifier*%
X149040000Y-57560000D03*
X151400000Y-59900000D03*
%TD*%
%TA.AperFunction,Conductor*%
%TO.N,GND*%
G36*
X155392539Y-52070185D02*
G01*
X155438294Y-52122989D01*
X155449500Y-52174500D01*
X155449500Y-54452484D01*
X155449377Y-54454400D01*
X155449500Y-54500502D01*
X155449500Y-54546396D01*
X155449627Y-54548304D01*
X155454112Y-56225168D01*
X155434606Y-56292260D01*
X155381925Y-56338156D01*
X155330112Y-56349500D01*
X155152962Y-56349500D01*
X155152833Y-56349490D01*
X155147118Y-56349491D01*
X155146951Y-56349442D01*
X155028038Y-56349460D01*
X154896126Y-56379588D01*
X154896122Y-56379589D01*
X154896121Y-56379590D01*
X154860759Y-56396624D01*
X154774212Y-56438316D01*
X154668423Y-56522696D01*
X154668422Y-56522697D01*
X154584063Y-56628496D01*
X154555046Y-56688759D01*
X154525357Y-56750416D01*
X154517380Y-56785369D01*
X154495249Y-56882341D01*
X154495249Y-56882343D01*
X154495250Y-56921062D01*
X154495250Y-58147265D01*
X154495299Y-58148016D01*
X154495299Y-58167653D01*
X154502657Y-58199893D01*
X154525403Y-58299565D01*
X154584103Y-58421474D01*
X154584104Y-58421475D01*
X154584105Y-58421477D01*
X154668460Y-58527269D01*
X154774238Y-58611641D01*
X154896138Y-58670363D01*
X155028047Y-58700490D01*
X155047893Y-58700492D01*
X155047990Y-58700500D01*
X155095700Y-58700500D01*
X155143294Y-58700508D01*
X155143295Y-58700507D01*
X155152833Y-58700509D01*
X155152962Y-58700500D01*
X155331250Y-58700500D01*
X155398289Y-58720185D01*
X155444044Y-58772989D01*
X155455250Y-58824500D01*
X155455250Y-64075500D01*
X155435565Y-64142539D01*
X155382761Y-64188294D01*
X155331250Y-64199500D01*
X155152962Y-64199500D01*
X155152833Y-64199490D01*
X155147118Y-64199491D01*
X155146951Y-64199442D01*
X155028038Y-64199460D01*
X154896126Y-64229588D01*
X154896122Y-64229589D01*
X154896121Y-64229590D01*
X154860759Y-64246624D01*
X154774212Y-64288316D01*
X154668423Y-64372696D01*
X154668422Y-64372697D01*
X154584063Y-64478496D01*
X154552041Y-64545000D01*
X154525357Y-64600416D01*
X154519221Y-64627304D01*
X154495249Y-64732341D01*
X154495249Y-64732343D01*
X154495250Y-64770410D01*
X154495250Y-65997265D01*
X154495299Y-65998016D01*
X154495299Y-66017653D01*
X154504200Y-66056658D01*
X154525403Y-66149565D01*
X154584103Y-66271474D01*
X154584104Y-66271475D01*
X154584105Y-66271477D01*
X154668460Y-66377269D01*
X154774238Y-66461641D01*
X154896138Y-66520363D01*
X155028047Y-66550490D01*
X155047893Y-66550492D01*
X155047990Y-66550500D01*
X155095700Y-66550500D01*
X155143294Y-66550508D01*
X155143295Y-66550507D01*
X155152833Y-66550509D01*
X155152962Y-66550500D01*
X155331139Y-66550500D01*
X155398178Y-66570185D01*
X155443933Y-66622989D01*
X155455138Y-66674530D01*
X155452472Y-76877262D01*
X155449611Y-87825532D01*
X155429909Y-87892567D01*
X155377093Y-87938308D01*
X155325611Y-87949500D01*
X133424500Y-87949500D01*
X133357461Y-87929815D01*
X133311706Y-87877011D01*
X133300500Y-87825500D01*
X133300500Y-86553203D01*
X138913535Y-86553203D01*
X138933730Y-86732449D01*
X138933731Y-86732454D01*
X138993311Y-86902723D01*
X139077427Y-87036592D01*
X139089284Y-87055462D01*
X139216838Y-87183016D01*
X139369578Y-87278989D01*
X139539845Y-87338568D01*
X139539850Y-87338569D01*
X139719096Y-87358765D01*
X139719100Y-87358765D01*
X139719104Y-87358765D01*
X139898349Y-87338569D01*
X139898352Y-87338568D01*
X139898355Y-87338568D01*
X140068622Y-87278989D01*
X140221362Y-87183016D01*
X140348916Y-87055462D01*
X140444889Y-86902722D01*
X140504468Y-86732455D01*
X140512982Y-86656891D01*
X144626750Y-86656891D01*
X144653821Y-86792987D01*
X144653823Y-86792995D01*
X144706928Y-86921203D01*
X144706933Y-86921212D01*
X144784028Y-87036592D01*
X144784031Y-87036596D01*
X144882153Y-87134718D01*
X144882157Y-87134721D01*
X144997537Y-87211816D01*
X144997543Y-87211819D01*
X144997544Y-87211820D01*
X145125755Y-87264927D01*
X145261858Y-87291999D01*
X145261862Y-87292000D01*
X145261863Y-87292000D01*
X145400638Y-87292000D01*
X145400639Y-87291999D01*
X145536745Y-87264927D01*
X145664956Y-87211820D01*
X145780343Y-87134721D01*
X145878471Y-87036593D01*
X145955570Y-86921206D01*
X146008677Y-86792995D01*
X146035749Y-86656891D01*
X146576750Y-86656891D01*
X146603821Y-86792987D01*
X146603823Y-86792995D01*
X146656928Y-86921203D01*
X146656933Y-86921212D01*
X146734028Y-87036592D01*
X146734031Y-87036596D01*
X146832153Y-87134718D01*
X146832157Y-87134721D01*
X146947537Y-87211816D01*
X146947543Y-87211819D01*
X146947544Y-87211820D01*
X147075755Y-87264927D01*
X147211858Y-87291999D01*
X147211862Y-87292000D01*
X147211863Y-87292000D01*
X147350638Y-87292000D01*
X147350639Y-87291999D01*
X147486745Y-87264927D01*
X147614956Y-87211820D01*
X147730343Y-87134721D01*
X147828471Y-87036593D01*
X147905570Y-86921206D01*
X147958677Y-86792995D01*
X147985749Y-86656891D01*
X150126750Y-86656891D01*
X150153821Y-86792987D01*
X150153823Y-86792995D01*
X150206928Y-86921203D01*
X150206933Y-86921212D01*
X150284028Y-87036592D01*
X150284031Y-87036596D01*
X150382153Y-87134718D01*
X150382157Y-87134721D01*
X150497537Y-87211816D01*
X150497543Y-87211819D01*
X150497544Y-87211820D01*
X150625755Y-87264927D01*
X150761858Y-87291999D01*
X150761862Y-87292000D01*
X150761863Y-87292000D01*
X150900638Y-87292000D01*
X150900639Y-87291999D01*
X151036745Y-87264927D01*
X151164956Y-87211820D01*
X151280343Y-87134721D01*
X151378471Y-87036593D01*
X151455570Y-86921206D01*
X151508677Y-86792995D01*
X151535749Y-86656891D01*
X152076750Y-86656891D01*
X152103821Y-86792987D01*
X152103823Y-86792995D01*
X152156928Y-86921203D01*
X152156933Y-86921212D01*
X152234028Y-87036592D01*
X152234031Y-87036596D01*
X152332153Y-87134718D01*
X152332157Y-87134721D01*
X152447537Y-87211816D01*
X152447543Y-87211819D01*
X152447544Y-87211820D01*
X152575755Y-87264927D01*
X152711858Y-87291999D01*
X152711862Y-87292000D01*
X152711863Y-87292000D01*
X152850638Y-87292000D01*
X152850639Y-87291999D01*
X152986745Y-87264927D01*
X153114956Y-87211820D01*
X153230343Y-87134721D01*
X153328471Y-87036593D01*
X153405570Y-86921206D01*
X153458677Y-86792995D01*
X153485750Y-86656887D01*
X153485750Y-86518113D01*
X153458677Y-86382005D01*
X153405570Y-86253794D01*
X153405569Y-86253793D01*
X153405566Y-86253787D01*
X153328471Y-86138407D01*
X153328468Y-86138403D01*
X153230346Y-86040281D01*
X153230342Y-86040278D01*
X153114962Y-85963183D01*
X153114953Y-85963178D01*
X152986745Y-85910073D01*
X152986737Y-85910071D01*
X152850641Y-85883000D01*
X152850637Y-85883000D01*
X152711863Y-85883000D01*
X152711858Y-85883000D01*
X152575762Y-85910071D01*
X152575754Y-85910073D01*
X152447546Y-85963178D01*
X152447537Y-85963183D01*
X152332157Y-86040278D01*
X152332153Y-86040281D01*
X152234031Y-86138403D01*
X152234028Y-86138407D01*
X152156933Y-86253787D01*
X152156928Y-86253796D01*
X152103823Y-86382004D01*
X152103821Y-86382012D01*
X152076750Y-86518108D01*
X152076750Y-86656891D01*
X151535749Y-86656891D01*
X151535750Y-86656887D01*
X151535750Y-86518113D01*
X151508677Y-86382005D01*
X151455570Y-86253794D01*
X151455569Y-86253793D01*
X151455566Y-86253787D01*
X151378471Y-86138407D01*
X151378468Y-86138403D01*
X151280346Y-86040281D01*
X151280342Y-86040278D01*
X151164962Y-85963183D01*
X151164953Y-85963178D01*
X151036745Y-85910073D01*
X151036737Y-85910071D01*
X150900641Y-85883000D01*
X150900637Y-85883000D01*
X150761863Y-85883000D01*
X150761858Y-85883000D01*
X150625762Y-85910071D01*
X150625754Y-85910073D01*
X150497546Y-85963178D01*
X150497537Y-85963183D01*
X150382157Y-86040278D01*
X150382153Y-86040281D01*
X150284031Y-86138403D01*
X150284028Y-86138407D01*
X150206933Y-86253787D01*
X150206928Y-86253796D01*
X150153823Y-86382004D01*
X150153821Y-86382012D01*
X150126750Y-86518108D01*
X150126750Y-86656891D01*
X147985749Y-86656891D01*
X147985750Y-86656887D01*
X147985750Y-86518113D01*
X147958677Y-86382005D01*
X147905570Y-86253794D01*
X147905569Y-86253793D01*
X147905566Y-86253787D01*
X147828471Y-86138407D01*
X147828468Y-86138403D01*
X147730346Y-86040281D01*
X147730342Y-86040278D01*
X147614962Y-85963183D01*
X147614953Y-85963178D01*
X147486745Y-85910073D01*
X147486737Y-85910071D01*
X147350641Y-85883000D01*
X147350637Y-85883000D01*
X147211863Y-85883000D01*
X147211858Y-85883000D01*
X147075762Y-85910071D01*
X147075754Y-85910073D01*
X146947546Y-85963178D01*
X146947537Y-85963183D01*
X146832157Y-86040278D01*
X146832153Y-86040281D01*
X146734031Y-86138403D01*
X146734028Y-86138407D01*
X146656933Y-86253787D01*
X146656928Y-86253796D01*
X146603823Y-86382004D01*
X146603821Y-86382012D01*
X146576750Y-86518108D01*
X146576750Y-86656891D01*
X146035749Y-86656891D01*
X146035750Y-86656887D01*
X146035750Y-86518113D01*
X146008677Y-86382005D01*
X145955570Y-86253794D01*
X145955569Y-86253793D01*
X145955566Y-86253787D01*
X145878471Y-86138407D01*
X145878468Y-86138403D01*
X145780346Y-86040281D01*
X145780342Y-86040278D01*
X145664962Y-85963183D01*
X145664953Y-85963178D01*
X145536745Y-85910073D01*
X145536737Y-85910071D01*
X145400641Y-85883000D01*
X145400637Y-85883000D01*
X145261863Y-85883000D01*
X145261858Y-85883000D01*
X145125762Y-85910071D01*
X145125754Y-85910073D01*
X144997546Y-85963178D01*
X144997537Y-85963183D01*
X144882157Y-86040278D01*
X144882153Y-86040281D01*
X144784031Y-86138403D01*
X144784028Y-86138407D01*
X144706933Y-86253787D01*
X144706928Y-86253796D01*
X144653823Y-86382004D01*
X144653821Y-86382012D01*
X144626750Y-86518108D01*
X144626750Y-86656891D01*
X140512982Y-86656891D01*
X140524665Y-86553203D01*
X140524665Y-86553196D01*
X140511560Y-86436884D01*
X140523615Y-86368062D01*
X140570964Y-86316683D01*
X140638574Y-86299059D01*
X140648664Y-86299781D01*
X140699997Y-86305565D01*
X140700000Y-86305565D01*
X140700004Y-86305565D01*
X140879249Y-86285369D01*
X140879252Y-86285368D01*
X140879255Y-86285368D01*
X141049522Y-86225789D01*
X141202262Y-86129816D01*
X141329816Y-86002262D01*
X141425789Y-85849522D01*
X141485368Y-85679255D01*
X141485369Y-85679249D01*
X141505565Y-85500003D01*
X141505565Y-85499996D01*
X141485369Y-85320750D01*
X141485368Y-85320745D01*
X141448978Y-85216749D01*
X141425789Y-85150478D01*
X141329816Y-84997738D01*
X141202262Y-84870184D01*
X141183261Y-84858245D01*
X141049523Y-84774211D01*
X140980341Y-84750003D01*
X142325685Y-84750003D01*
X142345880Y-84929249D01*
X142345881Y-84929254D01*
X142405461Y-85099523D01*
X142457923Y-85183015D01*
X142501434Y-85252262D01*
X142628988Y-85379816D01*
X142781728Y-85475789D01*
X142951995Y-85535368D01*
X142952000Y-85535369D01*
X143131246Y-85555565D01*
X143131250Y-85555565D01*
X143131254Y-85555565D01*
X143310499Y-85535369D01*
X143310502Y-85535368D01*
X143310505Y-85535368D01*
X143480772Y-85475789D01*
X143633512Y-85379816D01*
X143761066Y-85252262D01*
X143857039Y-85099522D01*
X143878740Y-85037503D01*
X148950685Y-85037503D01*
X148970880Y-85216749D01*
X148970881Y-85216754D01*
X149030461Y-85387023D01*
X149086236Y-85475788D01*
X149126434Y-85539762D01*
X149253988Y-85667316D01*
X149406728Y-85763289D01*
X149473576Y-85786680D01*
X149576995Y-85822868D01*
X149577000Y-85822869D01*
X149756246Y-85843065D01*
X149756250Y-85843065D01*
X149756254Y-85843065D01*
X149935499Y-85822869D01*
X149935502Y-85822868D01*
X149935505Y-85822868D01*
X150105772Y-85763289D01*
X150258512Y-85667316D01*
X150386066Y-85539762D01*
X150482039Y-85387022D01*
X150541618Y-85216755D01*
X150541619Y-85216749D01*
X150561815Y-85037503D01*
X150561815Y-85037496D01*
X150541619Y-84858250D01*
X150541618Y-84858245D01*
X150497600Y-84732449D01*
X150482039Y-84687978D01*
X150386066Y-84535238D01*
X150258512Y-84407684D01*
X150204817Y-84373945D01*
X150105773Y-84311711D01*
X149935504Y-84252131D01*
X149935499Y-84252130D01*
X149756254Y-84231935D01*
X149756246Y-84231935D01*
X149577000Y-84252130D01*
X149576995Y-84252131D01*
X149406726Y-84311711D01*
X149253987Y-84407684D01*
X149126434Y-84535237D01*
X149030461Y-84687976D01*
X148970881Y-84858245D01*
X148970880Y-84858250D01*
X148950685Y-85037496D01*
X148950685Y-85037503D01*
X143878740Y-85037503D01*
X143916618Y-84929255D01*
X143918395Y-84913484D01*
X143936815Y-84750003D01*
X143936815Y-84749996D01*
X143916619Y-84570750D01*
X143916618Y-84570745D01*
X143857038Y-84400476D01*
X143763826Y-84252131D01*
X143761066Y-84247738D01*
X143633512Y-84120184D01*
X143627278Y-84116267D01*
X143480773Y-84024211D01*
X143310504Y-83964631D01*
X143310499Y-83964630D01*
X143131254Y-83944435D01*
X143131246Y-83944435D01*
X142952000Y-83964630D01*
X142951995Y-83964631D01*
X142781726Y-84024211D01*
X142628987Y-84120184D01*
X142501434Y-84247737D01*
X142405461Y-84400476D01*
X142345881Y-84570745D01*
X142345880Y-84570750D01*
X142325685Y-84749996D01*
X142325685Y-84750003D01*
X140980341Y-84750003D01*
X140879254Y-84714631D01*
X140879249Y-84714630D01*
X140700004Y-84694435D01*
X140699996Y-84694435D01*
X140520750Y-84714630D01*
X140520745Y-84714631D01*
X140350476Y-84774211D01*
X140197737Y-84870184D01*
X140070184Y-84997737D01*
X139974211Y-85150476D01*
X139914631Y-85320745D01*
X139914630Y-85320750D01*
X139894435Y-85499996D01*
X139894435Y-85500005D01*
X139907539Y-85616316D01*
X139895484Y-85685137D01*
X139848135Y-85736516D01*
X139780524Y-85754140D01*
X139770437Y-85753418D01*
X139719105Y-85747635D01*
X139719096Y-85747635D01*
X139539850Y-85767830D01*
X139539845Y-85767831D01*
X139369576Y-85827411D01*
X139216837Y-85923384D01*
X139089284Y-86050937D01*
X138993311Y-86203676D01*
X138933731Y-86373945D01*
X138933730Y-86373950D01*
X138913535Y-86553196D01*
X138913535Y-86553203D01*
X133300500Y-86553203D01*
X133300500Y-85026278D01*
X133320185Y-84959239D01*
X133372989Y-84913484D01*
X133442147Y-84903540D01*
X133505703Y-84932565D01*
X133529491Y-84960303D01*
X133589284Y-85055462D01*
X133716838Y-85183016D01*
X133869578Y-85278989D01*
X133988910Y-85320745D01*
X134039845Y-85338568D01*
X134039850Y-85338569D01*
X134219096Y-85358765D01*
X134219100Y-85358765D01*
X134219104Y-85358765D01*
X134398349Y-85338569D01*
X134398352Y-85338568D01*
X134398355Y-85338568D01*
X134568622Y-85278989D01*
X134721362Y-85183016D01*
X134848916Y-85055462D01*
X134944889Y-84902722D01*
X135004468Y-84732455D01*
X135006476Y-84714632D01*
X135024665Y-84553203D01*
X135024665Y-84553196D01*
X135004469Y-84373950D01*
X135004468Y-84373945D01*
X134960306Y-84247737D01*
X134944889Y-84203678D01*
X134848916Y-84050938D01*
X134721362Y-83923384D01*
X134568623Y-83827411D01*
X134398354Y-83767831D01*
X134398349Y-83767830D01*
X134219104Y-83747635D01*
X134219096Y-83747635D01*
X134039850Y-83767830D01*
X134039845Y-83767831D01*
X133869576Y-83827411D01*
X133716837Y-83923384D01*
X133589284Y-84050937D01*
X133529494Y-84146093D01*
X133477159Y-84192384D01*
X133408105Y-84203032D01*
X133344257Y-84174657D01*
X133305885Y-84116267D01*
X133300500Y-84080121D01*
X133300500Y-82553203D01*
X147825395Y-82553203D01*
X147845590Y-82732449D01*
X147845591Y-82732454D01*
X147905171Y-82902723D01*
X148001144Y-83055462D01*
X148128698Y-83183016D01*
X148281438Y-83278989D01*
X148451705Y-83338568D01*
X148451710Y-83338569D01*
X148630956Y-83358765D01*
X148630960Y-83358765D01*
X148630964Y-83358765D01*
X148810209Y-83338569D01*
X148810212Y-83338568D01*
X148810215Y-83338568D01*
X148980482Y-83278989D01*
X149133222Y-83183016D01*
X149260776Y-83055462D01*
X149356749Y-82902722D01*
X149416328Y-82732455D01*
X149436525Y-82553200D01*
X149416328Y-82373945D01*
X149356749Y-82203678D01*
X149260776Y-82050938D01*
X149133222Y-81923384D01*
X148980483Y-81827411D01*
X148810214Y-81767831D01*
X148810209Y-81767830D01*
X148630964Y-81747635D01*
X148630956Y-81747635D01*
X148451710Y-81767830D01*
X148451705Y-81767831D01*
X148281436Y-81827411D01*
X148128697Y-81923384D01*
X148001144Y-82050937D01*
X147905171Y-82203676D01*
X147845591Y-82373945D01*
X147845590Y-82373950D01*
X147825395Y-82553196D01*
X147825395Y-82553203D01*
X133300500Y-82553203D01*
X133300500Y-80553203D01*
X141488535Y-80553203D01*
X141508730Y-80732449D01*
X141508731Y-80732454D01*
X141568311Y-80902723D01*
X141632108Y-81004254D01*
X141664284Y-81055462D01*
X141791838Y-81183016D01*
X141944578Y-81278989D01*
X142082534Y-81327262D01*
X142114845Y-81338568D01*
X142114850Y-81338569D01*
X142294096Y-81358765D01*
X142294100Y-81358765D01*
X142294104Y-81358765D01*
X142473349Y-81338569D01*
X142473352Y-81338568D01*
X142473355Y-81338568D01*
X142643622Y-81278989D01*
X142796362Y-81183016D01*
X142923916Y-81055462D01*
X143019889Y-80902722D01*
X143047084Y-80825003D01*
X143775685Y-80825003D01*
X143795880Y-81004249D01*
X143795881Y-81004254D01*
X143855461Y-81174523D01*
X143860798Y-81183016D01*
X143951434Y-81327262D01*
X144078988Y-81454816D01*
X144231728Y-81550789D01*
X144401995Y-81610368D01*
X144402000Y-81610369D01*
X144581246Y-81630565D01*
X144581250Y-81630565D01*
X144581254Y-81630565D01*
X144760499Y-81610369D01*
X144760502Y-81610368D01*
X144760505Y-81610368D01*
X144930772Y-81550789D01*
X145083512Y-81454816D01*
X145211066Y-81327262D01*
X145307039Y-81174522D01*
X145366618Y-81004255D01*
X145386815Y-80825000D01*
X145376387Y-80732449D01*
X145366619Y-80645750D01*
X145366618Y-80645745D01*
X145307038Y-80475476D01*
X145243245Y-80373950D01*
X145211066Y-80322738D01*
X145083512Y-80195184D01*
X144930773Y-80099211D01*
X144760504Y-80039631D01*
X144760499Y-80039630D01*
X144581254Y-80019435D01*
X144581246Y-80019435D01*
X144402000Y-80039630D01*
X144401995Y-80039631D01*
X144231726Y-80099211D01*
X144078987Y-80195184D01*
X143951434Y-80322737D01*
X143855461Y-80475476D01*
X143795881Y-80645745D01*
X143795880Y-80645750D01*
X143775685Y-80824996D01*
X143775685Y-80825003D01*
X143047084Y-80825003D01*
X143079468Y-80732455D01*
X143079469Y-80732449D01*
X143099665Y-80553203D01*
X143099665Y-80553196D01*
X143079469Y-80373950D01*
X143079468Y-80373945D01*
X143061550Y-80322738D01*
X143019889Y-80203678D01*
X142923916Y-80050938D01*
X142796362Y-79923384D01*
X142643623Y-79827411D01*
X142473354Y-79767831D01*
X142473349Y-79767830D01*
X142294104Y-79747635D01*
X142294096Y-79747635D01*
X142114850Y-79767830D01*
X142114845Y-79767831D01*
X141944576Y-79827411D01*
X141791837Y-79923384D01*
X141664284Y-80050937D01*
X141568311Y-80203676D01*
X141508731Y-80373945D01*
X141508730Y-80373950D01*
X141488535Y-80553196D01*
X141488535Y-80553203D01*
X133300500Y-80553203D01*
X133300500Y-76375003D01*
X150069435Y-76375003D01*
X150089630Y-76554249D01*
X150089631Y-76554254D01*
X150149211Y-76724523D01*
X150179925Y-76773403D01*
X150245184Y-76877262D01*
X150372738Y-77004816D01*
X150525478Y-77100789D01*
X150695745Y-77160368D01*
X150713814Y-77162403D01*
X150778226Y-77189469D01*
X150817783Y-77247063D01*
X150819922Y-77316900D01*
X150804925Y-77351596D01*
X150774211Y-77400476D01*
X150714631Y-77570745D01*
X150714630Y-77570750D01*
X150694435Y-77749996D01*
X150694435Y-77750003D01*
X150714630Y-77929249D01*
X150714631Y-77929254D01*
X150774211Y-78099523D01*
X150870184Y-78252262D01*
X150997738Y-78379816D01*
X151150478Y-78475789D01*
X151320745Y-78535368D01*
X151320750Y-78535369D01*
X151499996Y-78555565D01*
X151500000Y-78555565D01*
X151500004Y-78555565D01*
X151679249Y-78535369D01*
X151679252Y-78535368D01*
X151679255Y-78535368D01*
X151849522Y-78475789D01*
X152002262Y-78379816D01*
X152129816Y-78252262D01*
X152225789Y-78099522D01*
X152285368Y-77929255D01*
X152305565Y-77750000D01*
X152285368Y-77570745D01*
X152225789Y-77400478D01*
X152129816Y-77247738D01*
X152002262Y-77120184D01*
X151971395Y-77100789D01*
X151849523Y-77024211D01*
X151679253Y-76964631D01*
X151661183Y-76962595D01*
X151596770Y-76935527D01*
X151557216Y-76877932D01*
X151555079Y-76808095D01*
X151570075Y-76773403D01*
X151600789Y-76724522D01*
X151660368Y-76554255D01*
X151680565Y-76375000D01*
X151660368Y-76195745D01*
X151600789Y-76025478D01*
X151504816Y-75872738D01*
X151377262Y-75745184D01*
X151224523Y-75649211D01*
X151054254Y-75589631D01*
X151054249Y-75589630D01*
X150875004Y-75569435D01*
X150874996Y-75569435D01*
X150695750Y-75589630D01*
X150695745Y-75589631D01*
X150525476Y-75649211D01*
X150372737Y-75745184D01*
X150245184Y-75872737D01*
X150149211Y-76025476D01*
X150089631Y-76195745D01*
X150089630Y-76195750D01*
X150069435Y-76374996D01*
X150069435Y-76375003D01*
X133300500Y-76375003D01*
X133300500Y-73000003D01*
X145275685Y-73000003D01*
X145295880Y-73179249D01*
X145295881Y-73179254D01*
X145355461Y-73349523D01*
X145451434Y-73502262D01*
X145578988Y-73629816D01*
X145731728Y-73725789D01*
X145901995Y-73785368D01*
X145902000Y-73785369D01*
X146081246Y-73805565D01*
X146081250Y-73805565D01*
X146081254Y-73805565D01*
X146260499Y-73785369D01*
X146260502Y-73785368D01*
X146260505Y-73785368D01*
X146430772Y-73725789D01*
X146583512Y-73629816D01*
X146711066Y-73502262D01*
X146807039Y-73349522D01*
X146866618Y-73179255D01*
X146886815Y-73000000D01*
X146866618Y-72820745D01*
X146807039Y-72650478D01*
X146711066Y-72497738D01*
X146583512Y-72370184D01*
X146559506Y-72355100D01*
X148605560Y-72355100D01*
X148605560Y-74895100D01*
X152415560Y-74895100D01*
X152415560Y-72355100D01*
X148605560Y-72355100D01*
X146559506Y-72355100D01*
X146430773Y-72274211D01*
X146260504Y-72214631D01*
X146260499Y-72214630D01*
X146081254Y-72194435D01*
X146081246Y-72194435D01*
X145902000Y-72214630D01*
X145901995Y-72214631D01*
X145731726Y-72274211D01*
X145578987Y-72370184D01*
X145451434Y-72497737D01*
X145355461Y-72650476D01*
X145295881Y-72820745D01*
X145295880Y-72820750D01*
X145275685Y-72999996D01*
X145275685Y-73000003D01*
X133300500Y-73000003D01*
X133300500Y-71587503D01*
X138938185Y-71587503D01*
X138958380Y-71766749D01*
X138958381Y-71766754D01*
X139017961Y-71937023D01*
X139091975Y-72054815D01*
X139113934Y-72089762D01*
X139241488Y-72217316D01*
X139394228Y-72313289D01*
X139513717Y-72355100D01*
X139564495Y-72372868D01*
X139564500Y-72372869D01*
X139743746Y-72393065D01*
X139743750Y-72393065D01*
X139743754Y-72393065D01*
X139922999Y-72372869D01*
X139923002Y-72372868D01*
X139923005Y-72372868D01*
X140093272Y-72313289D01*
X140246012Y-72217316D01*
X140373566Y-72089762D01*
X140469539Y-71937022D01*
X140529118Y-71766755D01*
X140548434Y-71595317D01*
X140575500Y-71530904D01*
X140603135Y-71511924D01*
X140584225Y-71500574D01*
X140721864Y-71500574D01*
X140762838Y-71525169D01*
X140793794Y-71587806D01*
X140794874Y-71595315D01*
X140795881Y-71604251D01*
X140795881Y-71604254D01*
X140855461Y-71774523D01*
X140951434Y-71927262D01*
X141078988Y-72054816D01*
X141231728Y-72150789D01*
X141356461Y-72194435D01*
X141401995Y-72210368D01*
X141402000Y-72210369D01*
X141581246Y-72230565D01*
X141581250Y-72230565D01*
X141581254Y-72230565D01*
X141760499Y-72210369D01*
X141760502Y-72210368D01*
X141760505Y-72210368D01*
X141930772Y-72150789D01*
X142083512Y-72054816D01*
X142211066Y-71927262D01*
X142307039Y-71774522D01*
X142366618Y-71604255D01*
X142366618Y-71604252D01*
X142366619Y-71604249D01*
X142386815Y-71425003D01*
X143025685Y-71425003D01*
X143045880Y-71604249D01*
X143045881Y-71604254D01*
X143105461Y-71774523D01*
X143201434Y-71927262D01*
X143328988Y-72054816D01*
X143481728Y-72150789D01*
X143606461Y-72194435D01*
X143651995Y-72210368D01*
X143652000Y-72210369D01*
X143831246Y-72230565D01*
X143831250Y-72230565D01*
X143831254Y-72230565D01*
X144010499Y-72210369D01*
X144010502Y-72210368D01*
X144010505Y-72210368D01*
X144180772Y-72150789D01*
X144333512Y-72054816D01*
X144461066Y-71927262D01*
X144557039Y-71774522D01*
X144616618Y-71604255D01*
X144616618Y-71604252D01*
X144616619Y-71604249D01*
X144636815Y-71425003D01*
X144636815Y-71424996D01*
X144616619Y-71245750D01*
X144616618Y-71245745D01*
X144613900Y-71237978D01*
X144557039Y-71075478D01*
X144461066Y-70922738D01*
X144333512Y-70795184D01*
X144312426Y-70781935D01*
X144180773Y-70699211D01*
X144010504Y-70639631D01*
X144010499Y-70639630D01*
X143831254Y-70619435D01*
X143831246Y-70619435D01*
X143652000Y-70639630D01*
X143651995Y-70639631D01*
X143481726Y-70699211D01*
X143328987Y-70795184D01*
X143201434Y-70922737D01*
X143105461Y-71075476D01*
X143045881Y-71245745D01*
X143045880Y-71245750D01*
X143025685Y-71424996D01*
X143025685Y-71425003D01*
X142386815Y-71425003D01*
X142386815Y-71424996D01*
X142366619Y-71245750D01*
X142366618Y-71245745D01*
X142363900Y-71237978D01*
X142307039Y-71075478D01*
X142211066Y-70922738D01*
X142083512Y-70795184D01*
X142062426Y-70781935D01*
X141930773Y-70699211D01*
X141760504Y-70639631D01*
X141760499Y-70639630D01*
X141581254Y-70619435D01*
X141581246Y-70619435D01*
X141402000Y-70639630D01*
X141401995Y-70639631D01*
X141231726Y-70699211D01*
X141078987Y-70795184D01*
X140951434Y-70922737D01*
X140855461Y-71075476D01*
X140795881Y-71245745D01*
X140795880Y-71245749D01*
X140776565Y-71417182D01*
X140749498Y-71481596D01*
X140721864Y-71500574D01*
X140584225Y-71500574D01*
X140562160Y-71487330D01*
X140531205Y-71424692D01*
X140530124Y-71417177D01*
X140529118Y-71408245D01*
X140469539Y-71237978D01*
X140373566Y-71085238D01*
X140246012Y-70957684D01*
X140190396Y-70922738D01*
X140093273Y-70861711D01*
X139923004Y-70802131D01*
X139922999Y-70802130D01*
X139743754Y-70781935D01*
X139743746Y-70781935D01*
X139564500Y-70802130D01*
X139564495Y-70802131D01*
X139394226Y-70861711D01*
X139241487Y-70957684D01*
X139113934Y-71085237D01*
X139017961Y-71237976D01*
X138958381Y-71408245D01*
X138958380Y-71408250D01*
X138938185Y-71587496D01*
X138938185Y-71587503D01*
X133300500Y-71587503D01*
X133300500Y-68000003D01*
X152394435Y-68000003D01*
X152414630Y-68179249D01*
X152414631Y-68179254D01*
X152474211Y-68349523D01*
X152570184Y-68502262D01*
X152697738Y-68629816D01*
X152850478Y-68725789D01*
X153020745Y-68785368D01*
X153020750Y-68785369D01*
X153199996Y-68805565D01*
X153200000Y-68805565D01*
X153200004Y-68805565D01*
X153379249Y-68785369D01*
X153379252Y-68785368D01*
X153379255Y-68785368D01*
X153549522Y-68725789D01*
X153702262Y-68629816D01*
X153829816Y-68502262D01*
X153925789Y-68349522D01*
X153985368Y-68179255D01*
X154005565Y-68000000D01*
X153985368Y-67820745D01*
X153925789Y-67650478D01*
X153829816Y-67497738D01*
X153702262Y-67370184D01*
X153549523Y-67274211D01*
X153379254Y-67214631D01*
X153379249Y-67214630D01*
X153200004Y-67194435D01*
X153199996Y-67194435D01*
X153020750Y-67214630D01*
X153020745Y-67214631D01*
X152850476Y-67274211D01*
X152697737Y-67370184D01*
X152570184Y-67497737D01*
X152474211Y-67650476D01*
X152414631Y-67820745D01*
X152414630Y-67820750D01*
X152394435Y-67999996D01*
X152394435Y-68000003D01*
X133300500Y-68000003D01*
X133300500Y-66200003D01*
X140376935Y-66200003D01*
X140397130Y-66379249D01*
X140397131Y-66379254D01*
X140456711Y-66549523D01*
X140457331Y-66550509D01*
X140552684Y-66702262D01*
X140680238Y-66829816D01*
X140832978Y-66925789D01*
X141003245Y-66985368D01*
X141003250Y-66985369D01*
X141182496Y-67005565D01*
X141182500Y-67005565D01*
X141182504Y-67005565D01*
X141361749Y-66985369D01*
X141361752Y-66985368D01*
X141361755Y-66985368D01*
X141532022Y-66925789D01*
X141684762Y-66829816D01*
X141812316Y-66702262D01*
X141908289Y-66549522D01*
X141967868Y-66379255D01*
X141968092Y-66377269D01*
X141988065Y-66200003D01*
X141988065Y-66199996D01*
X141967869Y-66020750D01*
X141967868Y-66020745D01*
X141908288Y-65850476D01*
X141812315Y-65697737D01*
X141684762Y-65570184D01*
X141532023Y-65474211D01*
X141361754Y-65414631D01*
X141361749Y-65414630D01*
X141182504Y-65394435D01*
X141182496Y-65394435D01*
X141003250Y-65414630D01*
X141003245Y-65414631D01*
X140832976Y-65474211D01*
X140680237Y-65570184D01*
X140552684Y-65697737D01*
X140456711Y-65850476D01*
X140397131Y-66020745D01*
X140397130Y-66020750D01*
X140376935Y-66199996D01*
X140376935Y-66200003D01*
X133300500Y-66200003D01*
X133300500Y-63750003D01*
X134619435Y-63750003D01*
X134639630Y-63929249D01*
X134639631Y-63929254D01*
X134699211Y-64099523D01*
X134780937Y-64229588D01*
X134795184Y-64252262D01*
X134922738Y-64379816D01*
X135075478Y-64475789D01*
X135206121Y-64521503D01*
X135245745Y-64535368D01*
X135245750Y-64535369D01*
X135424996Y-64555565D01*
X135425000Y-64555565D01*
X135425004Y-64555565D01*
X135518745Y-64545003D01*
X136879435Y-64545003D01*
X136899630Y-64724249D01*
X136899631Y-64724254D01*
X136959211Y-64894523D01*
X137055184Y-65047262D01*
X137182738Y-65174816D01*
X137335478Y-65270789D01*
X137505745Y-65330368D01*
X137505750Y-65330369D01*
X137684996Y-65350565D01*
X137685000Y-65350565D01*
X137685004Y-65350565D01*
X137864249Y-65330369D01*
X137864252Y-65330368D01*
X137864255Y-65330368D01*
X138034522Y-65270789D01*
X138187262Y-65174816D01*
X138314816Y-65047262D01*
X138410789Y-64894522D01*
X138470368Y-64724255D01*
X138481292Y-64627304D01*
X138490565Y-64545003D01*
X138490565Y-64544996D01*
X138470369Y-64365750D01*
X138470368Y-64365745D01*
X138436046Y-64267659D01*
X138410789Y-64195478D01*
X138314816Y-64042738D01*
X138187262Y-63915184D01*
X138034523Y-63819211D01*
X137864254Y-63759631D01*
X137864249Y-63759630D01*
X137685004Y-63739435D01*
X137684996Y-63739435D01*
X137505750Y-63759630D01*
X137505745Y-63759631D01*
X137335476Y-63819211D01*
X137182737Y-63915184D01*
X137055184Y-64042737D01*
X136959211Y-64195476D01*
X136899631Y-64365745D01*
X136899630Y-64365750D01*
X136879435Y-64544996D01*
X136879435Y-64545003D01*
X135518745Y-64545003D01*
X135604249Y-64535369D01*
X135604252Y-64535368D01*
X135604255Y-64535368D01*
X135774522Y-64475789D01*
X135927262Y-64379816D01*
X136054816Y-64252262D01*
X136150789Y-64099522D01*
X136210368Y-63929255D01*
X136210369Y-63929249D01*
X136230565Y-63750003D01*
X136230565Y-63749996D01*
X136210369Y-63570750D01*
X136210368Y-63570745D01*
X136197989Y-63535368D01*
X136150789Y-63400478D01*
X136054816Y-63247738D01*
X135927262Y-63120184D01*
X135894379Y-63099522D01*
X135774523Y-63024211D01*
X135604254Y-62964631D01*
X135604249Y-62964630D01*
X135425004Y-62944435D01*
X135424996Y-62944435D01*
X135245750Y-62964630D01*
X135245745Y-62964631D01*
X135075476Y-63024211D01*
X134922737Y-63120184D01*
X134795184Y-63247737D01*
X134699211Y-63400476D01*
X134639631Y-63570745D01*
X134639630Y-63570750D01*
X134619435Y-63749996D01*
X134619435Y-63750003D01*
X133300500Y-63750003D01*
X133300500Y-62750003D01*
X139691935Y-62750003D01*
X139712130Y-62929249D01*
X139712131Y-62929254D01*
X139771711Y-63099523D01*
X139836267Y-63202262D01*
X139867684Y-63252262D01*
X139995238Y-63379816D01*
X140147978Y-63475789D01*
X140233073Y-63505565D01*
X140318245Y-63535368D01*
X140318250Y-63535369D01*
X140497496Y-63555565D01*
X140497500Y-63555565D01*
X140497504Y-63555565D01*
X140676749Y-63535369D01*
X140676752Y-63535368D01*
X140676755Y-63535368D01*
X140847022Y-63475789D01*
X140999762Y-63379816D01*
X141127316Y-63252262D01*
X141223289Y-63099522D01*
X141282868Y-62929255D01*
X141288502Y-62879254D01*
X141303065Y-62750003D01*
X141303065Y-62749996D01*
X141297432Y-62700003D01*
X152794435Y-62700003D01*
X152814630Y-62879249D01*
X152814631Y-62879254D01*
X152874211Y-63049523D01*
X152918611Y-63120184D01*
X152970184Y-63202262D01*
X153097738Y-63329816D01*
X153188080Y-63386582D01*
X153210192Y-63400476D01*
X153250478Y-63425789D01*
X153393367Y-63475788D01*
X153420745Y-63485368D01*
X153420750Y-63485369D01*
X153599996Y-63505565D01*
X153600000Y-63505565D01*
X153600004Y-63505565D01*
X153779249Y-63485369D01*
X153779252Y-63485368D01*
X153779255Y-63485368D01*
X153949522Y-63425789D01*
X154102262Y-63329816D01*
X154229816Y-63202262D01*
X154325789Y-63049522D01*
X154385368Y-62879255D01*
X154399931Y-62750003D01*
X154405565Y-62700003D01*
X154405565Y-62699996D01*
X154385369Y-62520750D01*
X154385368Y-62520745D01*
X154325788Y-62350476D01*
X154229815Y-62197737D01*
X154102262Y-62070184D01*
X153949523Y-61974211D01*
X153779254Y-61914631D01*
X153779249Y-61914630D01*
X153600004Y-61894435D01*
X153599996Y-61894435D01*
X153420750Y-61914630D01*
X153420745Y-61914631D01*
X153250476Y-61974211D01*
X153097737Y-62070184D01*
X152970184Y-62197737D01*
X152874211Y-62350476D01*
X152814631Y-62520745D01*
X152814630Y-62520750D01*
X152794435Y-62699996D01*
X152794435Y-62700003D01*
X141297432Y-62700003D01*
X141282869Y-62570750D01*
X141282868Y-62570745D01*
X141223288Y-62400476D01*
X141127315Y-62247737D01*
X140999762Y-62120184D01*
X140847023Y-62024211D01*
X140676754Y-61964631D01*
X140676749Y-61964630D01*
X140497504Y-61944435D01*
X140497496Y-61944435D01*
X140318250Y-61964630D01*
X140318245Y-61964631D01*
X140147976Y-62024211D01*
X139995237Y-62120184D01*
X139867684Y-62247737D01*
X139771711Y-62400476D01*
X139712131Y-62570745D01*
X139712130Y-62570750D01*
X139691935Y-62749996D01*
X139691935Y-62750003D01*
X133300500Y-62750003D01*
X133300500Y-60250003D01*
X139691935Y-60250003D01*
X139712130Y-60429249D01*
X139712131Y-60429254D01*
X139771711Y-60599523D01*
X139825652Y-60685369D01*
X139867684Y-60752262D01*
X139995238Y-60879816D01*
X140147978Y-60975789D01*
X140233073Y-61005565D01*
X140318245Y-61035368D01*
X140318250Y-61035369D01*
X140497496Y-61055565D01*
X140497500Y-61055565D01*
X140497504Y-61055565D01*
X140676749Y-61035369D01*
X140676752Y-61035368D01*
X140676755Y-61035368D01*
X140847022Y-60975789D01*
X140999762Y-60879816D01*
X141127316Y-60752262D01*
X141223289Y-60599522D01*
X141282868Y-60429255D01*
X141282869Y-60429249D01*
X141303065Y-60250003D01*
X141303065Y-60249996D01*
X141282869Y-60070750D01*
X141282868Y-60070745D01*
X141223288Y-59900476D01*
X141222991Y-59900003D01*
X150594435Y-59900003D01*
X150614630Y-60079249D01*
X150614631Y-60079254D01*
X150674211Y-60249523D01*
X150674511Y-60250000D01*
X150770184Y-60402262D01*
X150897738Y-60529816D01*
X151050478Y-60625789D01*
X151220745Y-60685368D01*
X151220750Y-60685369D01*
X151399996Y-60705565D01*
X151400000Y-60705565D01*
X151400004Y-60705565D01*
X151579249Y-60685369D01*
X151579252Y-60685368D01*
X151579255Y-60685368D01*
X151749522Y-60625789D01*
X151902262Y-60529816D01*
X152029816Y-60402262D01*
X152125789Y-60249522D01*
X152143116Y-60200003D01*
X152794435Y-60200003D01*
X152814630Y-60379249D01*
X152814631Y-60379254D01*
X152874211Y-60549523D01*
X152959569Y-60685368D01*
X152970184Y-60702262D01*
X153097738Y-60829816D01*
X153250478Y-60925789D01*
X153393367Y-60975788D01*
X153420745Y-60985368D01*
X153420750Y-60985369D01*
X153599996Y-61005565D01*
X153600000Y-61005565D01*
X153600004Y-61005565D01*
X153779249Y-60985369D01*
X153779252Y-60985368D01*
X153779255Y-60985368D01*
X153949522Y-60925789D01*
X154102262Y-60829816D01*
X154229816Y-60702262D01*
X154325789Y-60549522D01*
X154385368Y-60379255D01*
X154399931Y-60250003D01*
X154405565Y-60200003D01*
X154405565Y-60199996D01*
X154385369Y-60020750D01*
X154385368Y-60020745D01*
X154343284Y-59900476D01*
X154325789Y-59850478D01*
X154229816Y-59697738D01*
X154102262Y-59570184D01*
X154070897Y-59550476D01*
X153949523Y-59474211D01*
X153779254Y-59414631D01*
X153779249Y-59414630D01*
X153600004Y-59394435D01*
X153599996Y-59394435D01*
X153420750Y-59414630D01*
X153420745Y-59414631D01*
X153250476Y-59474211D01*
X153097737Y-59570184D01*
X152970184Y-59697737D01*
X152874211Y-59850476D01*
X152814631Y-60020745D01*
X152814630Y-60020750D01*
X152794435Y-60199996D01*
X152794435Y-60200003D01*
X152143116Y-60200003D01*
X152185368Y-60079255D01*
X152185369Y-60079249D01*
X152205565Y-59900003D01*
X152205565Y-59899996D01*
X152185369Y-59720750D01*
X152185368Y-59720745D01*
X152125789Y-59550478D01*
X152029816Y-59397738D01*
X151902262Y-59270184D01*
X151831608Y-59225789D01*
X151749523Y-59174211D01*
X151579254Y-59114631D01*
X151579249Y-59114630D01*
X151400004Y-59094435D01*
X151399996Y-59094435D01*
X151220750Y-59114630D01*
X151220745Y-59114631D01*
X151050476Y-59174211D01*
X150897737Y-59270184D01*
X150770184Y-59397737D01*
X150674211Y-59550476D01*
X150614631Y-59720745D01*
X150614630Y-59720750D01*
X150594435Y-59899996D01*
X150594435Y-59900003D01*
X141222991Y-59900003D01*
X141127315Y-59747737D01*
X140999762Y-59620184D01*
X140847023Y-59524211D01*
X140676754Y-59464631D01*
X140676749Y-59464630D01*
X140497504Y-59444435D01*
X140497496Y-59444435D01*
X140318250Y-59464630D01*
X140318245Y-59464631D01*
X140147976Y-59524211D01*
X139995237Y-59620184D01*
X139867684Y-59747737D01*
X139771711Y-59900476D01*
X139712131Y-60070745D01*
X139712130Y-60070750D01*
X139691935Y-60249996D01*
X139691935Y-60250003D01*
X133300500Y-60250003D01*
X133300500Y-58995003D01*
X136879435Y-58995003D01*
X136899630Y-59174249D01*
X136899631Y-59174254D01*
X136959211Y-59344523D01*
X137034681Y-59464632D01*
X137055184Y-59497262D01*
X137182738Y-59624816D01*
X137273080Y-59681582D01*
X137298792Y-59697738D01*
X137335478Y-59720789D01*
X137412491Y-59747737D01*
X137505745Y-59780368D01*
X137505750Y-59780369D01*
X137684996Y-59800565D01*
X137685000Y-59800565D01*
X137685004Y-59800565D01*
X137864249Y-59780369D01*
X137864252Y-59780368D01*
X137864255Y-59780368D01*
X138034522Y-59720789D01*
X138187262Y-59624816D01*
X138314816Y-59497262D01*
X138410789Y-59344522D01*
X138470368Y-59174255D01*
X138477086Y-59114630D01*
X138490565Y-58995003D01*
X138490565Y-58994998D01*
X138483490Y-58932211D01*
X138495544Y-58863389D01*
X138542893Y-58812009D01*
X138592827Y-58795106D01*
X138679250Y-58785369D01*
X138679253Y-58785368D01*
X138679255Y-58785368D01*
X138849522Y-58725789D01*
X139002262Y-58629816D01*
X139129816Y-58502262D01*
X139131235Y-58500003D01*
X145894435Y-58500003D01*
X145914630Y-58679249D01*
X145914631Y-58679254D01*
X145974211Y-58849523D01*
X145982924Y-58863389D01*
X146070184Y-59002262D01*
X146197738Y-59129816D01*
X146350478Y-59225789D01*
X146477352Y-59270184D01*
X146520745Y-59285368D01*
X146520750Y-59285369D01*
X146699996Y-59305565D01*
X146700000Y-59305565D01*
X146700004Y-59305565D01*
X146879249Y-59285369D01*
X146879252Y-59285368D01*
X146879255Y-59285368D01*
X147049522Y-59225789D01*
X147202262Y-59129816D01*
X147329816Y-59002262D01*
X147425789Y-58849522D01*
X147485368Y-58679255D01*
X147489174Y-58645476D01*
X147505565Y-58500003D01*
X147505565Y-58499996D01*
X147485369Y-58320750D01*
X147485368Y-58320745D01*
X147446488Y-58209632D01*
X147425789Y-58150478D01*
X147329816Y-57997738D01*
X147202262Y-57870184D01*
X147049523Y-57774211D01*
X146879254Y-57714631D01*
X146879249Y-57714630D01*
X146700004Y-57694435D01*
X146699996Y-57694435D01*
X146520750Y-57714630D01*
X146520745Y-57714631D01*
X146350476Y-57774211D01*
X146197737Y-57870184D01*
X146070184Y-57997737D01*
X145974211Y-58150476D01*
X145914631Y-58320745D01*
X145914630Y-58320750D01*
X145894435Y-58499996D01*
X145894435Y-58500003D01*
X139131235Y-58500003D01*
X139225789Y-58349522D01*
X139285368Y-58179255D01*
X139285369Y-58179249D01*
X139305565Y-58000003D01*
X139305565Y-57999996D01*
X139285369Y-57820750D01*
X139285368Y-57820745D01*
X139225788Y-57650476D01*
X139168940Y-57560003D01*
X148234435Y-57560003D01*
X148254630Y-57739249D01*
X148254631Y-57739254D01*
X148314211Y-57909523D01*
X148371062Y-58000000D01*
X148410184Y-58062262D01*
X148537738Y-58189816D01*
X148690478Y-58285789D01*
X148790377Y-58320745D01*
X148860745Y-58345368D01*
X148860750Y-58345369D01*
X149039996Y-58365565D01*
X149040000Y-58365565D01*
X149040004Y-58365565D01*
X149219249Y-58345369D01*
X149219252Y-58345368D01*
X149219255Y-58345368D01*
X149389522Y-58285789D01*
X149542262Y-58189816D01*
X149669816Y-58062262D01*
X149765789Y-57909522D01*
X149825368Y-57739255D01*
X149825369Y-57739249D01*
X149845565Y-57560003D01*
X149845565Y-57559996D01*
X149825369Y-57380750D01*
X149825368Y-57380745D01*
X149788090Y-57274211D01*
X149765789Y-57210478D01*
X149669816Y-57057738D01*
X149542262Y-56930184D01*
X149541508Y-56929710D01*
X149389523Y-56834211D01*
X149219254Y-56774631D01*
X149219249Y-56774630D01*
X149040004Y-56754435D01*
X149039996Y-56754435D01*
X148860750Y-56774630D01*
X148860745Y-56774631D01*
X148690476Y-56834211D01*
X148537737Y-56930184D01*
X148410184Y-57057737D01*
X148314211Y-57210476D01*
X148254631Y-57380745D01*
X148254630Y-57380750D01*
X148234435Y-57559996D01*
X148234435Y-57560003D01*
X139168940Y-57560003D01*
X139129815Y-57497737D01*
X139002262Y-57370184D01*
X138849523Y-57274211D01*
X138679254Y-57214631D01*
X138679249Y-57214630D01*
X138500004Y-57194435D01*
X138499996Y-57194435D01*
X138320750Y-57214630D01*
X138320745Y-57214631D01*
X138150476Y-57274211D01*
X137997737Y-57370184D01*
X137870184Y-57497737D01*
X137774211Y-57650476D01*
X137714631Y-57820745D01*
X137714630Y-57820750D01*
X137694435Y-57999996D01*
X137694435Y-58000003D01*
X137701509Y-58062790D01*
X137689454Y-58131612D01*
X137642105Y-58182991D01*
X137592173Y-58199893D01*
X137505749Y-58209630D01*
X137505745Y-58209631D01*
X137335476Y-58269211D01*
X137182737Y-58365184D01*
X137055184Y-58492737D01*
X136959211Y-58645476D01*
X136899631Y-58815745D01*
X136899630Y-58815750D01*
X136879435Y-58994996D01*
X136879435Y-58995003D01*
X133300500Y-58995003D01*
X133300500Y-56000003D01*
X140994435Y-56000003D01*
X141014630Y-56179249D01*
X141014631Y-56179254D01*
X141074211Y-56349523D01*
X141170184Y-56502262D01*
X141297738Y-56629816D01*
X141450478Y-56725789D01*
X141590063Y-56774632D01*
X141620745Y-56785368D01*
X141620750Y-56785369D01*
X141799996Y-56805565D01*
X141800000Y-56805565D01*
X141800004Y-56805565D01*
X141979249Y-56785369D01*
X141979252Y-56785368D01*
X141979255Y-56785368D01*
X142149522Y-56725789D01*
X142302262Y-56629816D01*
X142429816Y-56502262D01*
X142525789Y-56349522D01*
X142585368Y-56179255D01*
X142605565Y-56000000D01*
X142585368Y-55820745D01*
X142525789Y-55650478D01*
X142429816Y-55497738D01*
X142302262Y-55370184D01*
X142149523Y-55274211D01*
X141979254Y-55214631D01*
X141979249Y-55214630D01*
X141800004Y-55194435D01*
X141799996Y-55194435D01*
X141620750Y-55214630D01*
X141620745Y-55214631D01*
X141450476Y-55274211D01*
X141297737Y-55370184D01*
X141170184Y-55497737D01*
X141074211Y-55650476D01*
X141014631Y-55820745D01*
X141014630Y-55820750D01*
X140994435Y-55999996D01*
X140994435Y-56000003D01*
X133300500Y-56000003D01*
X133300500Y-54597870D01*
X147249500Y-54597870D01*
X147249501Y-54597876D01*
X147255908Y-54657483D01*
X147306202Y-54792328D01*
X147306206Y-54792335D01*
X147392452Y-54907544D01*
X147392455Y-54907547D01*
X147507664Y-54993793D01*
X147507671Y-54993797D01*
X147642517Y-55044091D01*
X147642516Y-55044091D01*
X147649444Y-55044835D01*
X147702127Y-55050500D01*
X149497872Y-55050499D01*
X149557483Y-55044091D01*
X149692331Y-54993796D01*
X149807546Y-54907546D01*
X149893796Y-54792331D01*
X149943002Y-54660401D01*
X149984872Y-54604468D01*
X150050337Y-54580050D01*
X150118610Y-54594901D01*
X150146865Y-54616053D01*
X150268917Y-54738105D01*
X150462421Y-54873600D01*
X150676507Y-54973429D01*
X150676516Y-54973433D01*
X150890000Y-55030634D01*
X150890000Y-54133012D01*
X150947007Y-54165925D01*
X151074174Y-54200000D01*
X151205826Y-54200000D01*
X151332993Y-54165925D01*
X151390000Y-54133012D01*
X151390000Y-55030633D01*
X151603483Y-54973433D01*
X151603492Y-54973429D01*
X151817578Y-54873600D01*
X152011082Y-54738105D01*
X152178105Y-54571082D01*
X152308119Y-54385405D01*
X152362696Y-54341781D01*
X152432195Y-54334588D01*
X152494549Y-54366110D01*
X152511269Y-54385405D01*
X152641505Y-54571401D01*
X152808599Y-54738495D01*
X152905384Y-54806265D01*
X153002165Y-54874032D01*
X153002167Y-54874033D01*
X153002170Y-54874035D01*
X153216337Y-54973903D01*
X153444592Y-55035063D01*
X153621034Y-55050500D01*
X153679999Y-55055659D01*
X153680000Y-55055659D01*
X153680001Y-55055659D01*
X153738966Y-55050500D01*
X153915408Y-55035063D01*
X154143663Y-54973903D01*
X154357830Y-54874035D01*
X154551401Y-54738495D01*
X154718495Y-54571401D01*
X154854035Y-54377830D01*
X154953903Y-54163663D01*
X155015063Y-53935408D01*
X155035659Y-53700000D01*
X155015063Y-53464592D01*
X154953903Y-53236337D01*
X154854035Y-53022171D01*
X154848731Y-53014595D01*
X154718494Y-52828597D01*
X154551402Y-52661506D01*
X154551395Y-52661501D01*
X154357834Y-52525967D01*
X154357830Y-52525965D01*
X154357828Y-52525964D01*
X154143663Y-52426097D01*
X154143659Y-52426096D01*
X154143655Y-52426094D01*
X153915413Y-52364938D01*
X153915403Y-52364936D01*
X153680001Y-52344341D01*
X153679999Y-52344341D01*
X153444596Y-52364936D01*
X153444586Y-52364938D01*
X153216344Y-52426094D01*
X153216335Y-52426098D01*
X153002171Y-52525964D01*
X153002169Y-52525965D01*
X152808597Y-52661505D01*
X152641508Y-52828594D01*
X152511269Y-53014595D01*
X152456692Y-53058219D01*
X152387193Y-53065412D01*
X152324839Y-53033890D01*
X152308119Y-53014594D01*
X152178113Y-52828926D01*
X152178108Y-52828920D01*
X152011082Y-52661894D01*
X151817578Y-52526399D01*
X151603492Y-52426570D01*
X151603486Y-52426567D01*
X151390000Y-52369364D01*
X151390000Y-53266988D01*
X151332993Y-53234075D01*
X151205826Y-53200000D01*
X151074174Y-53200000D01*
X150947007Y-53234075D01*
X150890000Y-53266988D01*
X150890000Y-52369364D01*
X150889999Y-52369364D01*
X150676513Y-52426567D01*
X150676507Y-52426570D01*
X150462422Y-52526399D01*
X150462420Y-52526400D01*
X150268926Y-52661886D01*
X150146865Y-52783947D01*
X150085542Y-52817431D01*
X150015850Y-52812447D01*
X149959917Y-52770575D01*
X149943002Y-52739598D01*
X149893797Y-52607671D01*
X149893793Y-52607664D01*
X149807547Y-52492455D01*
X149807544Y-52492452D01*
X149692335Y-52406206D01*
X149692328Y-52406202D01*
X149557482Y-52355908D01*
X149557483Y-52355908D01*
X149497883Y-52349501D01*
X149497881Y-52349500D01*
X149497873Y-52349500D01*
X149497864Y-52349500D01*
X147702129Y-52349500D01*
X147702123Y-52349501D01*
X147642516Y-52355908D01*
X147507671Y-52406202D01*
X147507664Y-52406206D01*
X147392455Y-52492452D01*
X147392452Y-52492455D01*
X147306206Y-52607664D01*
X147306202Y-52607671D01*
X147255908Y-52742517D01*
X147249501Y-52802116D01*
X147249500Y-52802135D01*
X147249500Y-54597870D01*
X133300500Y-54597870D01*
X133300500Y-52174500D01*
X133320185Y-52107461D01*
X133372989Y-52061706D01*
X133424500Y-52050500D01*
X155325500Y-52050500D01*
X155392539Y-52070185D01*
G37*
%TD.AperFunction*%
%TD*%
M02*
