%TF.GenerationSoftware,KiCad,Pcbnew,8.0.1-rc1*%
%TF.CreationDate,2025-05-18T23:27:59-05:00*%
%TF.ProjectId,rfReciever,72665265-6369-4657-9665-722e6b696361,rev?*%
%TF.SameCoordinates,Original*%
%TF.FileFunction,Copper,L1,Top*%
%TF.FilePolarity,Positive*%
%FSLAX46Y46*%
G04 Gerber Fmt 4.6, Leading zero omitted, Abs format (unit mm)*
G04 Created by KiCad (PCBNEW 8.0.1-rc1) date 2025-05-18 23:27:59*
%MOMM*%
%LPD*%
G01*
G04 APERTURE LIST*
G04 Aperture macros list*
%AMRoundRect*
0 Rectangle with rounded corners*
0 $1 Rounding radius*
0 $2 $3 $4 $5 $6 $7 $8 $9 X,Y pos of 4 corners*
0 Add a 4 corners polygon primitive as box body*
4,1,4,$2,$3,$4,$5,$6,$7,$8,$9,$2,$3,0*
0 Add four circle primitives for the rounded corners*
1,1,$1+$1,$2,$3*
1,1,$1+$1,$4,$5*
1,1,$1+$1,$6,$7*
1,1,$1+$1,$8,$9*
0 Add four rect primitives between the rounded corners*
20,1,$1+$1,$2,$3,$4,$5,0*
20,1,$1+$1,$4,$5,$6,$7,0*
20,1,$1+$1,$6,$7,$8,$9,0*
20,1,$1+$1,$8,$9,$2,$3,0*%
G04 Aperture macros list end*
%TA.AperFunction,SMDPad,CuDef*%
%ADD10RoundRect,0.243750X-0.243750X-0.456250X0.243750X-0.456250X0.243750X0.456250X-0.243750X0.456250X0*%
%TD*%
%TA.AperFunction,SMDPad,CuDef*%
%ADD11RoundRect,0.250000X0.262500X0.450000X-0.262500X0.450000X-0.262500X-0.450000X0.262500X-0.450000X0*%
%TD*%
%TA.AperFunction,SMDPad,CuDef*%
%ADD12RoundRect,0.135000X-0.315000X-0.365000X0.315000X-0.365000X0.315000X0.365000X-0.315000X0.365000X0*%
%TD*%
%TA.AperFunction,SMDPad,CuDef*%
%ADD13RoundRect,0.082500X-0.767500X-0.192500X0.767500X-0.192500X0.767500X0.192500X-0.767500X0.192500X0*%
%TD*%
%TA.AperFunction,ComponentPad*%
%ADD14R,1.700000X1.700000*%
%TD*%
%TA.AperFunction,ComponentPad*%
%ADD15O,1.700000X1.700000*%
%TD*%
%TA.AperFunction,SMDPad,CuDef*%
%ADD16RoundRect,0.250000X-0.450000X0.262500X-0.450000X-0.262500X0.450000X-0.262500X0.450000X0.262500X0*%
%TD*%
%TA.AperFunction,SMDPad,CuDef*%
%ADD17RoundRect,0.250000X0.250000X0.475000X-0.250000X0.475000X-0.250000X-0.475000X0.250000X-0.475000X0*%
%TD*%
%TA.AperFunction,SMDPad,CuDef*%
%ADD18RoundRect,0.250000X-0.250000X-0.475000X0.250000X-0.475000X0.250000X0.475000X-0.250000X0.475000X0*%
%TD*%
%TA.AperFunction,SMDPad,CuDef*%
%ADD19RoundRect,0.243750X0.243750X0.456250X-0.243750X0.456250X-0.243750X-0.456250X0.243750X-0.456250X0*%
%TD*%
%TA.AperFunction,SMDPad,CuDef*%
%ADD20RoundRect,0.250000X-0.262500X-0.450000X0.262500X-0.450000X0.262500X0.450000X-0.262500X0.450000X0*%
%TD*%
%TA.AperFunction,SMDPad,CuDef*%
%ADD21R,2.350000X0.850000*%
%TD*%
%TA.AperFunction,SMDPad,CuDef*%
%ADD22RoundRect,0.250000X0.450000X-0.262500X0.450000X0.262500X-0.450000X0.262500X-0.450000X-0.262500X0*%
%TD*%
%TA.AperFunction,SMDPad,CuDef*%
%ADD23RoundRect,0.150000X0.512500X0.150000X-0.512500X0.150000X-0.512500X-0.150000X0.512500X-0.150000X0*%
%TD*%
%TA.AperFunction,SMDPad,CuDef*%
%ADD24RoundRect,0.250000X-0.475000X0.250000X-0.475000X-0.250000X0.475000X-0.250000X0.475000X0.250000X0*%
%TD*%
%TA.AperFunction,SMDPad,CuDef*%
%ADD25R,1.000000X0.298000*%
%TD*%
%TA.AperFunction,SMDPad,CuDef*%
%ADD26R,1.150000X0.630000*%
%TD*%
%TA.AperFunction,ViaPad*%
%ADD27C,0.600000*%
%TD*%
%TA.AperFunction,Conductor*%
%ADD28C,0.200000*%
%TD*%
%TA.AperFunction,Conductor*%
%ADD29C,0.150000*%
%TD*%
%TA.AperFunction,Conductor*%
%ADD30C,0.250000*%
%TD*%
%TA.AperFunction,Conductor*%
%ADD31C,0.360000*%
%TD*%
%TA.AperFunction,Conductor*%
%ADD32C,0.500000*%
%TD*%
%TA.AperFunction,Conductor*%
%ADD33C,0.157500*%
%TD*%
G04 APERTURE END LIST*
D10*
%TO.P,D7,1,K*%
%TO.N,GND*%
X137006600Y-80553200D03*
%TO.P,D7,2,A*%
%TO.N,/RF_D7*%
X138881600Y-80553200D03*
%TD*%
D11*
%TO.P,R7,1*%
%TO.N,/RF_RESET*%
X142312500Y-78500000D03*
%TO.P,R7,2*%
%TO.N,/RF_SW_RESET*%
X140487500Y-78500000D03*
%TD*%
D12*
%TO.P,SW2,1,1*%
%TO.N,/RF_SW_SLEEP*%
X149756250Y-85037500D03*
X153856250Y-85037500D03*
%TO.P,SW2,2,2*%
%TO.N,GND*%
X149756250Y-86637500D03*
X153856250Y-86637500D03*
D13*
%TO.P,SW2,SH,B*%
X151806250Y-84412500D03*
%TD*%
D14*
%TO.P,J4,1,Pin_1*%
%TO.N,+3.3V*%
X148600000Y-53700000D03*
D15*
%TO.P,J4,2,Pin_2*%
%TO.N,GND*%
X151140000Y-53700000D03*
%TO.P,J4,3,Pin_3*%
%TO.N,+5V*%
X153680000Y-53700000D03*
%TD*%
D11*
%TO.P,R15,1*%
%TO.N,/RF_PWM*%
X142294100Y-80553200D03*
%TO.P,R15,2*%
%TO.N,/RF_D7*%
X140469100Y-80553200D03*
%TD*%
D16*
%TO.P,R12,1*%
%TO.N,+3.3V*%
X144581250Y-79000000D03*
%TO.P,R12,2*%
%TO.N,/RF_RESET*%
X144581250Y-80825000D03*
%TD*%
D17*
%TO.P,C10,1*%
%TO.N,+5V*%
X146700000Y-58500000D03*
%TO.P,C10,2*%
%TO.N,GND*%
X144800000Y-58500000D03*
%TD*%
D16*
%TO.P,R18,1*%
%TO.N,/RF_ASSOCIATE*%
X143831250Y-71425000D03*
%TO.P,R18,2*%
%TO.N,/RF_D9*%
X143831250Y-73250000D03*
%TD*%
D17*
%TO.P,C13,1*%
%TO.N,/USB_OUT_D+*%
X142360000Y-58250000D03*
%TO.P,C13,2*%
%TO.N,GND*%
X140460000Y-58250000D03*
%TD*%
D18*
%TO.P,C11,1*%
%TO.N,+3.3V*%
X141800000Y-56000000D03*
%TO.P,C11,2*%
%TO.N,GND*%
X143700000Y-56000000D03*
%TD*%
D19*
%TO.P,D8,1,K*%
%TO.N,GND*%
X143518750Y-69337500D03*
%TO.P,D8,2,A*%
%TO.N,/RF_D8*%
X141643750Y-69337500D03*
%TD*%
D17*
%TO.P,C5,1*%
%TO.N,+3.3V*%
X148581600Y-76303200D03*
%TO.P,C5,2*%
%TO.N,GND*%
X146681600Y-76303200D03*
%TD*%
D20*
%TO.P,R14,1*%
%TO.N,/USBDM*%
X140497500Y-62750000D03*
%TO.P,R14,2*%
%TO.N,/USB_OUT_D-*%
X142322500Y-62750000D03*
%TD*%
D21*
%TO.P,J2,1,Pin_1*%
%TO.N,/RF_TXD*%
X150525000Y-68100000D03*
%TO.P,J2,2,Pin_2*%
%TO.N,/RF_RXD*%
X152875000Y-70100000D03*
%TD*%
D16*
%TO.P,R16,1*%
%TO.N,/RF_DSLEEP*%
X141581250Y-71425000D03*
%TO.P,R16,2*%
%TO.N,/RF_D8*%
X141581250Y-73250000D03*
%TD*%
D22*
%TO.P,R4,1*%
%TO.N,/USB_Identifier*%
X145600000Y-56312500D03*
%TO.P,R4,2*%
%TO.N,GND*%
X145600000Y-54487500D03*
%TD*%
D21*
%TO.P,J3,1,Pin_1*%
%TO.N,/RF_RESET*%
X137950000Y-83500000D03*
%TO.P,J3,2,Pin_2*%
%TO.N,/RF_SLEEP*%
X140300000Y-85500000D03*
%TD*%
D19*
%TO.P,D9,1,K*%
%TO.N,GND*%
X147018750Y-69337500D03*
%TO.P,D9,2,A*%
%TO.N,/RF_D9*%
X145143750Y-69337500D03*
%TD*%
D17*
%TO.P,C12,1*%
%TO.N,/USB_OUT_D-*%
X142360000Y-64750000D03*
%TO.P,C12,2*%
%TO.N,GND*%
X140460000Y-64750000D03*
%TD*%
D22*
%TO.P,R9,1*%
%TO.N,/UART_CTS*%
X146081250Y-73000000D03*
%TO.P,R9,2*%
%TO.N,GND*%
X146081250Y-71175000D03*
%TD*%
D23*
%TO.P,U2,1,I/O1*%
%TO.N,/USBMLXDN*%
X146643250Y-62400000D03*
%TO.P,U2,2,GND*%
%TO.N,GND*%
X146643250Y-61450000D03*
%TO.P,U2,3,I/O2*%
%TO.N,/USBMLXDP*%
X146643250Y-60500000D03*
%TO.P,U2,4,I/O2*%
%TO.N,/USB_OUT_D+*%
X144368250Y-60500000D03*
%TO.P,U2,5,VBUS*%
%TO.N,+5V*%
X144368250Y-61450000D03*
%TO.P,U2,6,I/O1*%
%TO.N,/USB_OUT_D-*%
X144368250Y-62400000D03*
%TD*%
D24*
%TO.P,C2,1*%
%TO.N,/FTDI_RESET*%
X137685000Y-64545000D03*
%TO.P,C2,2*%
%TO.N,GND*%
X137685000Y-66445000D03*
%TD*%
D25*
%TO.P,J1,A1,GND_A1*%
%TO.N,GND*%
X154755750Y-58700000D03*
%TO.P,J1,A2,TX1+*%
%TO.N,unconnected-(J1-TX1+-PadA2)*%
X154755750Y-59200000D03*
%TO.P,J1,A3,TX1-*%
%TO.N,unconnected-(J1-TX1--PadA3)*%
X154755750Y-59700000D03*
%TO.P,J1,A4,VBUS_A4*%
%TO.N,+5V*%
X154755750Y-60200000D03*
%TO.P,J1,A5,CC*%
%TO.N,/USB_Identifier*%
X154755750Y-60700000D03*
%TO.P,J1,A6,D+*%
%TO.N,/USBMLXDP*%
X154755750Y-61200000D03*
%TO.P,J1,A7,D-*%
%TO.N,/USBMLXDN*%
X154755750Y-61700000D03*
%TO.P,J1,A8,SBU1*%
%TO.N,unconnected-(J1-SBU1-PadA8)*%
X154755750Y-62200000D03*
%TO.P,J1,A9,VBUS_A9*%
%TO.N,+5V*%
X154755750Y-62700000D03*
%TO.P,J1,A10,RX2-*%
%TO.N,unconnected-(J1-RX2--PadA10)*%
X154755750Y-63200000D03*
%TO.P,J1,A11,RX2+*%
%TO.N,unconnected-(J1-RX2+-PadA11)*%
X154755750Y-63700000D03*
%TO.P,J1,A12,GND_A12*%
%TO.N,GND*%
X154755750Y-64200000D03*
D26*
%TO.P,J1,SH1,SHIELD1*%
X153915750Y-58030000D03*
%TD*%
D12*
%TO.P,SW1,1,1*%
%TO.N,/RF_SW_RESET*%
X144256250Y-85037500D03*
X148356250Y-85037500D03*
%TO.P,SW1,2,2*%
%TO.N,GND*%
X144256250Y-86637500D03*
X148356250Y-86637500D03*
D13*
%TO.P,SW1,SH,B*%
X146306250Y-84412500D03*
%TD*%
D20*
%TO.P,R19,1*%
%TO.N,/USBDP*%
X140497500Y-60250000D03*
%TO.P,R19,2*%
%TO.N,/USB_OUT_D+*%
X142322500Y-60250000D03*
%TD*%
D17*
%TO.P,C6,1*%
%TO.N,+3.3V*%
X148581600Y-78303200D03*
%TO.P,C6,2*%
%TO.N,GND*%
X146681600Y-78303200D03*
%TD*%
%TO.P,C7,1*%
%TO.N,+3.3V*%
X148581600Y-80303200D03*
%TO.P,C7,2*%
%TO.N,GND*%
X146681600Y-80303200D03*
%TD*%
D11*
%TO.P,R8,1*%
%TO.N,/UART_RTS*%
X139743750Y-71587500D03*
%TO.P,R8,2*%
%TO.N,GND*%
X137918750Y-71587500D03*
%TD*%
D27*
%TO.N,GND*%
X140460000Y-64750000D03*
X142400000Y-53400000D03*
X137685000Y-66445000D03*
X152630000Y-64870000D03*
X151793750Y-83000000D03*
X136134160Y-69446800D03*
X146250000Y-87500000D03*
X137918750Y-71587500D03*
X137006600Y-80553200D03*
X136134160Y-82553200D03*
X142750000Y-86500000D03*
X146681600Y-80303200D03*
X137935000Y-61495000D03*
X152380000Y-69174998D03*
X146081250Y-71175000D03*
X134100000Y-69400000D03*
X147750000Y-61450000D03*
X140460000Y-58250000D03*
X151100000Y-52350000D03*
X151750000Y-87500000D03*
X152900000Y-58000000D03*
X143518750Y-67400000D03*
X149880640Y-69446800D03*
%TO.N,/RF_TXD*%
X153200000Y-68000000D03*
%TO.N,/RF_RXD*%
X151500000Y-77750000D03*
X150875000Y-76375000D03*
%TO.N,/UART_RTS*%
X139743750Y-71587500D03*
%TO.N,/UART_CTS*%
X146081250Y-73000000D03*
X141182500Y-66200000D03*
%TO.N,/RF_SLEEP*%
X140700000Y-85500000D03*
%TO.N,/RF_RESET*%
X144581250Y-80825000D03*
X143131250Y-84750000D03*
%TO.N,/RF_PWM*%
X142294100Y-80553200D03*
%TO.N,/RF_ASSOCIATE*%
X143831250Y-71425000D03*
%TO.N,+5V*%
X146700000Y-58500000D03*
X153600000Y-60200000D03*
X153600000Y-62700000D03*
%TO.N,+3.3V*%
X134219100Y-84553200D03*
X139719100Y-86553200D03*
X148630960Y-82553200D03*
X138500000Y-58000000D03*
X135425000Y-63750000D03*
X141800000Y-56000000D03*
%TO.N,/RF_SW_SLEEP*%
X149756250Y-85037500D03*
%TO.N,/RF_DSLEEP*%
X141581250Y-71425000D03*
%TO.N,/USBDM*%
X140497500Y-62750000D03*
%TO.N,/USBDP*%
X140497500Y-60250000D03*
%TO.N,/FTDI_RESET*%
X137685000Y-64545000D03*
X137685000Y-58995000D03*
%TO.N,/USB_Identifier*%
X149040000Y-57560000D03*
X151400000Y-59900000D03*
%TD*%
D28*
%TO.N,GND*%
X154546974Y-64355819D02*
X154546974Y-64355793D01*
X148356250Y-86525472D02*
X148356250Y-86637500D01*
X151750000Y-85783500D02*
X153114278Y-85783500D01*
D29*
X154585750Y-58700000D02*
X153915750Y-58030000D01*
D28*
X154652775Y-64250000D02*
X154697994Y-64204773D01*
X149756250Y-86637500D02*
X149756250Y-86525472D01*
X154602056Y-58716306D02*
X154748994Y-58716306D01*
X154697994Y-64204773D02*
X154748975Y-64183649D01*
X153856250Y-86525472D02*
X153856250Y-86637500D01*
X144800000Y-57100000D02*
X143700000Y-56000000D01*
X143700000Y-56000000D02*
X145212500Y-54487500D01*
X151093750Y-83700000D02*
X151293750Y-83900000D01*
X150498222Y-85783500D02*
X151750000Y-85783500D01*
X147750000Y-61450000D02*
X146643250Y-61450000D01*
X151750000Y-85783500D02*
X151750000Y-87500000D01*
X153885750Y-58000000D02*
X153915750Y-58030000D01*
X146681600Y-78303200D02*
X146681600Y-80303200D01*
X144256250Y-86525472D02*
X144998222Y-85783500D01*
D29*
X143518750Y-67400000D02*
X143518750Y-69337500D01*
D28*
X143700000Y-56000000D02*
X143700000Y-56000000D01*
X149756250Y-86525472D02*
X150498222Y-85783500D01*
X144998222Y-85783500D02*
X146250000Y-85783500D01*
X146250000Y-85783500D02*
X147614278Y-85783500D01*
D29*
X154755750Y-58700000D02*
X154585750Y-58700000D01*
D28*
X146306250Y-84412500D02*
X147018750Y-83700000D01*
X154032793Y-64870000D02*
X154546974Y-64355819D01*
X144800000Y-58500000D02*
X144800000Y-57100000D01*
X146250000Y-87500000D02*
X146250000Y-85783500D01*
X144256250Y-86637500D02*
X144256250Y-86525472D01*
X152900000Y-58000000D02*
X153885750Y-58000000D01*
X151793750Y-83000000D02*
X151093750Y-83700000D01*
X154546974Y-64355793D02*
X154697994Y-64204773D01*
X153114278Y-85783500D02*
X153856250Y-86525472D01*
X147018750Y-83700000D02*
X151093750Y-83700000D01*
X147018750Y-70237500D02*
X146081250Y-71175000D01*
X152630000Y-64870000D02*
X154032793Y-64870000D01*
X144118750Y-86500000D02*
X144256250Y-86637500D01*
X146681600Y-76303200D02*
X146681600Y-78303200D01*
X151293750Y-83900000D02*
X151806250Y-84412500D01*
X147018750Y-69337500D02*
X147018750Y-70237500D01*
X145212500Y-54487500D02*
X145600000Y-54487500D01*
X149750000Y-86637500D02*
X149756250Y-86637500D01*
X147614278Y-85783500D02*
X148356250Y-86525472D01*
%TO.N,/RF_TXD*%
X150625000Y-68000000D02*
X150525000Y-68100000D01*
X153200000Y-68000000D02*
X150625000Y-68000000D01*
D29*
%TO.N,/RF_RXD*%
X151500000Y-77000000D02*
X151500000Y-77750000D01*
X152875000Y-75625000D02*
X151500000Y-77000000D01*
X150875000Y-76375000D02*
X151500000Y-77000000D01*
X152875000Y-70100000D02*
X152875000Y-75625000D01*
D28*
%TO.N,/UART_CTS*%
X147900000Y-68500000D02*
X147900000Y-71181250D01*
X146150000Y-66750000D02*
X147900000Y-68500000D01*
X141182500Y-66200000D02*
X141732500Y-66750000D01*
X141732500Y-66750000D02*
X146150000Y-66750000D01*
X147900000Y-71181250D02*
X146081250Y-73000000D01*
D29*
%TO.N,/RF_RESET*%
X143131250Y-84750000D02*
X141881250Y-83500000D01*
D28*
X142243750Y-78500000D02*
X142312500Y-78500000D01*
X142081250Y-78662500D02*
X142243750Y-78500000D01*
X142312500Y-78556250D02*
X144581250Y-80825000D01*
D29*
X141881250Y-83500000D02*
X137950000Y-83500000D01*
D28*
X142312500Y-78500000D02*
X142312500Y-78556250D01*
D30*
%TO.N,+5V*%
X154755750Y-60200000D02*
X154100000Y-60200000D01*
X154755750Y-62700000D02*
X154100000Y-62700000D01*
D31*
X153600000Y-62700000D02*
X154100000Y-62700000D01*
X148700000Y-58700000D02*
X147650000Y-59750000D01*
X146750000Y-59750000D02*
X145850000Y-59750000D01*
X152100000Y-55280000D02*
X152100000Y-58700000D01*
X145500000Y-60100000D02*
X145500000Y-61250000D01*
X153680000Y-53700000D02*
X152100000Y-55280000D01*
X145850000Y-59750000D02*
X145500000Y-60100000D01*
X153600000Y-60200000D02*
X153150000Y-59750000D01*
X152100000Y-58700000D02*
X153150000Y-59750000D01*
X146750000Y-59750000D02*
X146750000Y-58550000D01*
X146750000Y-58550000D02*
X146700000Y-58500000D01*
X154100000Y-60200000D02*
X153600000Y-60200000D01*
X145300000Y-61450000D02*
X144368250Y-61450000D01*
X152100000Y-58700000D02*
X148700000Y-58700000D01*
X145500000Y-61250000D02*
X145300000Y-61450000D01*
X147650000Y-59750000D02*
X146750000Y-59750000D01*
%TO.N,+3.3V*%
X135400000Y-72368320D02*
X135384160Y-72384160D01*
X148200000Y-53300000D02*
X148600000Y-53700000D01*
X136351533Y-58000000D02*
X135425000Y-58926533D01*
X135384160Y-72384160D02*
X138000000Y-75000000D01*
X144300000Y-53300000D02*
X148200000Y-53300000D01*
X148581600Y-80303200D02*
X148581600Y-82503840D01*
D32*
X135425000Y-63750000D02*
X135400000Y-63775000D01*
D31*
X135400000Y-63775000D02*
X135400000Y-72368320D01*
X148581600Y-76303200D02*
X148581600Y-78303200D01*
X138500000Y-58000000D02*
X136351533Y-58000000D01*
X141800000Y-55800000D02*
X144300000Y-53300000D01*
X135425000Y-58926533D02*
X135425000Y-63750000D01*
X148581600Y-78303200D02*
X148581600Y-80303200D01*
X141800000Y-56000000D02*
X141800000Y-55800000D01*
X138000000Y-75000000D02*
X147900000Y-75000000D01*
X134219100Y-78780900D02*
X134219100Y-84553200D01*
X148581600Y-75681600D02*
X148581600Y-76303200D01*
X136219100Y-86553200D02*
X134219100Y-84553200D01*
X139719100Y-86553200D02*
X136219100Y-86553200D01*
X138000000Y-75000000D02*
X134219100Y-78780900D01*
X147900000Y-75000000D02*
X148581600Y-75681600D01*
X144581250Y-79000000D02*
X144581250Y-75081250D01*
X148581600Y-82503840D02*
X148630960Y-82553200D01*
D28*
%TO.N,/RF_D7*%
X140469100Y-80553200D02*
X138881600Y-80553200D01*
%TO.N,/RF_D8*%
X142700000Y-72968750D02*
X142700000Y-70393750D01*
X142418750Y-73250000D02*
X142700000Y-72968750D01*
X141581250Y-73250000D02*
X142418750Y-73250000D01*
X142700000Y-70393750D02*
X141643750Y-69337500D01*
%TO.N,/RF_D9*%
X145000000Y-69481250D02*
X145143750Y-69337500D01*
X145000000Y-72081250D02*
X145000000Y-69481250D01*
X143831250Y-73250000D02*
X145000000Y-72081250D01*
%TO.N,/USB_OUT_D+*%
X142322500Y-60250000D02*
X142572500Y-60500000D01*
D29*
X142360000Y-60212500D02*
X142322500Y-60250000D01*
X142360000Y-58250000D02*
X142360000Y-60212500D01*
D33*
X144368250Y-60500000D02*
X142572500Y-60500000D01*
D29*
%TO.N,/USB_OUT_D-*%
X142322500Y-64712500D02*
X142360000Y-64750000D01*
X142322500Y-62750000D02*
X142322500Y-64712500D01*
D33*
X144368250Y-62400000D02*
X142672500Y-62400000D01*
D28*
X142322500Y-62750000D02*
X142672500Y-62400000D01*
%TO.N,/RF_SW_RESET*%
X144256250Y-84262500D02*
X141400000Y-81406250D01*
X148356250Y-85037500D02*
X144256250Y-85037500D01*
X141400000Y-79412500D02*
X140487500Y-78500000D01*
X141400000Y-81406250D02*
X141400000Y-79412500D01*
X144256250Y-85037500D02*
X143943750Y-85350000D01*
X144256250Y-85037500D02*
X144256250Y-84262500D01*
%TO.N,/RF_SW_SLEEP*%
X153856250Y-85037500D02*
X149756250Y-85037500D01*
D33*
%TO.N,/USBMLXDN*%
X148408251Y-61628750D02*
X147637001Y-62400000D01*
X153934499Y-61628750D02*
X148408251Y-61628750D01*
X147637001Y-62400000D02*
X146643250Y-62400000D01*
X154755750Y-61700000D02*
X154005749Y-61700000D01*
X154005749Y-61700000D02*
X153934499Y-61628750D01*
%TO.N,/USBMLXDP*%
X147637001Y-60500000D02*
X146643250Y-60500000D01*
X154755750Y-61200000D02*
X154005749Y-61200000D01*
X153934499Y-61271250D02*
X148408251Y-61271250D01*
X154005749Y-61200000D02*
X153934499Y-61271250D01*
X148408251Y-61271250D02*
X147637001Y-60500000D01*
D29*
%TO.N,/FTDI_RESET*%
X137500000Y-58995000D02*
X137360000Y-59135000D01*
X137685000Y-58995000D02*
X137500000Y-58995000D01*
X137360000Y-64220000D02*
X137685000Y-64545000D01*
X137360000Y-59135000D02*
X137360000Y-64220000D01*
%TO.N,/USB_Identifier*%
X154105750Y-60700000D02*
X154755750Y-60700000D01*
X153300000Y-60800000D02*
X154005750Y-60800000D01*
X152400000Y-59900000D02*
X153300000Y-60800000D01*
X151400000Y-59900000D02*
X152400000Y-59900000D01*
X147792500Y-56312500D02*
X145600000Y-56312500D01*
X154005750Y-60800000D02*
X154105750Y-60700000D01*
X149040000Y-57560000D02*
X147792500Y-56312500D01*
%TD*%
M02*
