%TF.GenerationSoftware,KiCad,Pcbnew,8.0.1-rc1*%
%TF.CreationDate,2025-05-18T23:27:59-05:00*%
%TF.ProjectId,rfReciever,72665265-6369-4657-9665-722e6b696361,rev?*%
%TF.SameCoordinates,Original*%
%TF.FileFunction,Paste,Bot*%
%TF.FilePolarity,Positive*%
%FSLAX46Y46*%
G04 Gerber Fmt 4.6, Leading zero omitted, Abs format (unit mm)*
G04 Created by KiCad (PCBNEW 8.0.1-rc1) date 2025-05-18 23:27:59*
%MOMM*%
%LPD*%
G01*
G04 APERTURE LIST*
G04 Aperture macros list*
%AMRoundRect*
0 Rectangle with rounded corners*
0 $1 Rounding radius*
0 $2 $3 $4 $5 $6 $7 $8 $9 X,Y pos of 4 corners*
0 Add a 4 corners polygon primitive as box body*
4,1,4,$2,$3,$4,$5,$6,$7,$8,$9,$2,$3,0*
0 Add four circle primitives for the rounded corners*
1,1,$1+$1,$2,$3*
1,1,$1+$1,$4,$5*
1,1,$1+$1,$6,$7*
1,1,$1+$1,$8,$9*
0 Add four rect primitives between the rounded corners*
20,1,$1+$1,$2,$3,$4,$5,0*
20,1,$1+$1,$4,$5,$6,$7,0*
20,1,$1+$1,$6,$7,$8,$9,0*
20,1,$1+$1,$8,$9,$2,$3,0*%
G04 Aperture macros list end*
%ADD10C,0.010000*%
%ADD11R,1.000000X0.298000*%
%ADD12R,1.150000X0.630000*%
%ADD13RoundRect,0.031250X0.093750X-0.388750X0.093750X0.388750X-0.093750X0.388750X-0.093750X-0.388750X0*%
%ADD14RoundRect,0.250000X-0.262500X-0.450000X0.262500X-0.450000X0.262500X0.450000X-0.262500X0.450000X0*%
%ADD15R,0.558800X1.473200*%
%ADD16RoundRect,0.250000X-0.250000X-0.475000X0.250000X-0.475000X0.250000X0.475000X-0.250000X0.475000X0*%
%ADD17RoundRect,0.209550X0.209550X-0.514350X0.209550X0.514350X-0.209550X0.514350X-0.209550X-0.514350X0*%
%ADD18RoundRect,0.209550X-0.514350X-0.209550X0.514350X-0.209550X0.514350X0.209550X-0.514350X0.209550X0*%
%ADD19RoundRect,0.250000X-0.450000X0.262500X-0.450000X-0.262500X0.450000X-0.262500X0.450000X0.262500X0*%
%ADD20RoundRect,0.250000X0.262500X0.450000X-0.262500X0.450000X-0.262500X-0.450000X0.262500X-0.450000X0*%
G04 APERTURE END LIST*
D10*
%TO.C,U3*%
X138725000Y-62005000D02*
X137145000Y-62005000D01*
X137145000Y-60985000D01*
X138725000Y-60985000D01*
X138725000Y-62005000D01*
G36*
X138725000Y-62005000D02*
G01*
X137145000Y-62005000D01*
X137145000Y-60985000D01*
X138725000Y-60985000D01*
X138725000Y-62005000D01*
G37*
%TD*%
D11*
%TO.C,J1*%
X154755750Y-64200000D03*
X154755750Y-63700000D03*
X154755750Y-63200000D03*
X154755750Y-62700000D03*
X154755750Y-62200000D03*
X154755750Y-60700000D03*
X154755750Y-60200000D03*
X154755750Y-59700000D03*
X154755750Y-59200000D03*
X154755750Y-58700000D03*
D12*
X153915750Y-64870000D03*
%TD*%
D13*
%TO.C,U3*%
X139060000Y-62930000D03*
X138610000Y-62930000D03*
X138160000Y-62930000D03*
X137710000Y-62930000D03*
X137260000Y-62930000D03*
X136810000Y-62930000D03*
X136810000Y-60060000D03*
X137260000Y-60060000D03*
X137710000Y-60060000D03*
X138160000Y-60060000D03*
X138610000Y-60060000D03*
X139060000Y-60060000D03*
%TD*%
D14*
%TO.C,R17*%
X134219100Y-84553200D03*
X136044100Y-84553200D03*
%TD*%
D15*
%TO.C,U1*%
X143299999Y-56056200D03*
X144250000Y-56056200D03*
X145200001Y-56056200D03*
X145200001Y-58443800D03*
X143299999Y-58443800D03*
%TD*%
D14*
%TO.C,R11*%
X134337500Y-86750000D03*
X136162500Y-86750000D03*
%TD*%
D16*
%TO.C,C9*%
X139681600Y-84553200D03*
X141581600Y-84553200D03*
%TD*%
D17*
%TO.C,X1*%
X149880640Y-82553200D03*
X148630960Y-82553200D03*
X147381280Y-82553200D03*
X146131600Y-82553200D03*
X144881920Y-82553200D03*
X143632240Y-82553200D03*
X142382560Y-82553200D03*
X141132880Y-82553200D03*
X139883200Y-82553200D03*
X138633520Y-82553200D03*
X137383840Y-82553200D03*
X136134160Y-82553200D03*
D18*
X134597460Y-80381500D03*
X134597460Y-79131820D03*
X134597460Y-77882140D03*
X134597460Y-76632460D03*
X134597460Y-75382780D03*
X134597460Y-74133100D03*
X134597460Y-72883420D03*
X134597460Y-71633740D03*
D17*
X136134160Y-69446800D03*
X137383840Y-69446800D03*
X138633520Y-69446800D03*
X139883200Y-69446800D03*
X141132880Y-69446800D03*
X142382560Y-69446800D03*
X143632240Y-69446800D03*
X144881920Y-69446800D03*
X146131600Y-69446800D03*
X147381280Y-69446800D03*
X148630960Y-69446800D03*
X149880640Y-69446800D03*
X151130320Y-69446800D03*
X152380000Y-69446800D03*
%TD*%
D19*
%TO.C,R13*%
X137881600Y-84390700D03*
X137881600Y-86215700D03*
%TD*%
D16*
%TO.C,C8*%
X143131250Y-84600000D03*
X145031250Y-84600000D03*
%TD*%
D20*
%TO.C,R10*%
X141544100Y-86553200D03*
X139719100Y-86553200D03*
%TD*%
M02*
